<svg xmlns="http://www.w3.org/2000/svg" xmlns:xlink="http://www.w3.org/1999/xlink" width="1366" zoomAndPan="magnify" viewBox="0 0 1024.5 576" height="768" preserveAspectRatio="xMidYMid meet" version="1.0"><defs><clipPath id="7e0abb23ac"><path d="M 793.808594 104 L 885 104 L 885 140.636719 L 793.808594 140.636719 Z M 793.808594 104 " clip-rule="nonzero"/></clipPath><clipPath id="cb6652165b"><path d="M 469 178 L 587 178 L 587 201.847656 L 469 201.847656 Z M 469 178 " clip-rule="nonzero"/></clipPath><clipPath id="e05d9cd1ea"><path d="M 475.621094 184.402344 C 473.078125 183.574219 466.75 187.140625 469.011719 190.128906 C 469.9375 191.300781 472.15625 191.851562 473.542969 192.179688 C 475.113281 192.558594 478.71875 191.445312 479.917969 192.253906 C 482.460938 194 484.816406 194.660156 487.960938 195.269531 C 489.761719 195.617188 491.75 196.242188 493.597656 196.042969 C 495.078125 195.875 497.710938 197.4375 499.28125 197.769531 C 502.101562 198.386719 505.152344 198.867188 508.015625 198.972656 C 511.019531 199.078125 515.132812 199.425781 518.230469 198.9375 C 519.0625 198.8125 519.984375 198.675781 520.726562 198.316406 C 521.050781 198.15625 521.558594 197.070312 521.972656 197.367188 C 529.644531 202.628906 542.816406 203.015625 550.207031 197.402344 C 550.394531 197.25 554.507812 198.46875 555.015625 198.539062 C 558.945312 199.078125 561.207031 198.894531 564.027344 196.742188 C 564.257812 196.566406 566.800781 197.257812 566.984375 197.304688 C 569.710938 197.886719 572.621094 198.46875 575.394531 198.617188 C 577.152344 198.703125 578.722656 198.34375 580.203125 197.511719 C 582.835938 196.042969 583.066406 193.082031 584.082031 192.304688 C 586.117188 190.765625 590.414062 189.800781 589.722656 186.214844 C 588.980469 182.175781 582.742188 184.789062 581.402344 184.113281 C 581.078125 183.960938 581.078125 182.773438 580.800781 182.441406 C 579.738281 180.988281 577.199219 179.886719 575.488281 179.476562 C 574.65625 179.277344 573.363281 179.019531 572.53125 179.070312 C 572.160156 179.089844 571.097656 179.738281 571.003906 179.660156 C 569.757812 178.828125 569.019531 176.699219 567.722656 175.699219 C 566.152344 174.550781 564.167969 173.910156 562.457031 173.070312 C 561.394531 172.546875 559.867188 171.875 558.667969 171.910156 C 558.34375 171.917969 556.863281 172.359375 556.816406 172.296875 C 556.03125 171.234375 556.078125 169.429688 555.15625 168.242188 C 551.550781 163.496094 543.417969 159.816406 537.59375 160.25 C 534.683594 160.472656 530.847656 162.183594 529.042969 164.507812 C 528.535156 165.121094 526.777344 169.453125 526.085938 169.6875 C 525.070312 170.039062 521.882812 168.476562 520.679688 168.308594 C 517.535156 167.886719 514.300781 168.769531 511.484375 170.246094 C 510.003906 171.03125 508.292969 172.894531 507.417969 174.316406 C 506.816406 175.285156 507.417969 177.15625 506.351562 177.519531 C 505.613281 177.769531 503.625 176.863281 502.75 176.867188 C 500.855469 176.882812 499.929688 178.605469 498.726562 179.507812 C 498.128906 179.964844 492.535156 176.5 490.132812 175.78125 C 483.339844 173.757812 479.179688 177.992188 476.5 183.488281 C 476.359375 183.714844 475.621094 184.402344 475.621094 184.402344 Z M 475.621094 184.402344 " clip-rule="evenodd"/></clipPath><clipPath id="368c1cfda3"><path d="M 530 165 L 552 165 L 552 181 L 530 181 Z M 530 165 " clip-rule="nonzero"/></clipPath><clipPath id="bab0bf5733"><path d="M 475.621094 184.402344 C 473.078125 183.574219 466.75 187.140625 469.011719 190.128906 C 469.9375 191.300781 472.15625 191.851562 473.542969 192.179688 C 475.113281 192.558594 478.71875 191.445312 479.917969 192.253906 C 482.460938 194 484.816406 194.660156 487.960938 195.269531 C 489.761719 195.617188 491.75 196.242188 493.597656 196.042969 C 495.078125 195.875 497.710938 197.4375 499.28125 197.769531 C 502.101562 198.386719 505.152344 198.867188 508.015625 198.972656 C 511.019531 199.078125 515.132812 199.425781 518.230469 198.9375 C 519.0625 198.8125 519.984375 198.675781 520.726562 198.316406 C 521.050781 198.15625 521.558594 197.070312 521.972656 197.367188 C 529.644531 202.628906 542.816406 203.015625 550.207031 197.402344 C 550.394531 197.25 554.507812 198.46875 555.015625 198.539062 C 558.945312 199.078125 561.207031 198.894531 564.027344 196.742188 C 564.257812 196.566406 566.800781 197.257812 566.984375 197.304688 C 569.710938 197.886719 572.621094 198.46875 575.394531 198.617188 C 577.152344 198.703125 578.722656 198.34375 580.203125 197.511719 C 582.835938 196.042969 583.066406 193.082031 584.082031 192.304688 C 586.117188 190.765625 590.414062 189.800781 589.722656 186.214844 C 588.980469 182.175781 582.742188 184.789062 581.402344 184.113281 C 581.078125 183.960938 581.078125 182.773438 580.800781 182.441406 C 579.738281 180.988281 577.199219 179.886719 575.488281 179.476562 C 574.65625 179.277344 573.363281 179.019531 572.53125 179.070312 C 572.160156 179.089844 571.097656 179.738281 571.003906 179.660156 C 569.757812 178.828125 569.019531 176.699219 567.722656 175.699219 C 566.152344 174.550781 564.167969 173.910156 562.457031 173.070312 C 561.394531 172.546875 559.867188 171.875 558.667969 171.910156 C 558.34375 171.917969 556.863281 172.359375 556.816406 172.296875 C 556.03125 171.234375 556.078125 169.429688 555.15625 168.242188 C 551.550781 163.496094 543.417969 159.816406 537.59375 160.25 C 534.683594 160.472656 530.847656 162.183594 529.042969 164.507812 C 528.535156 165.121094 526.777344 169.453125 526.085938 169.6875 C 525.070312 170.039062 521.882812 168.476562 520.679688 168.308594 C 517.535156 167.886719 514.300781 168.769531 511.484375 170.246094 C 510.003906 171.03125 508.292969 172.894531 507.417969 174.316406 C 506.816406 175.285156 507.417969 177.15625 506.351562 177.519531 C 505.613281 177.769531 503.625 176.863281 502.75 176.867188 C 500.855469 176.882812 499.929688 178.605469 498.726562 179.507812 C 498.128906 179.964844 492.535156 176.5 490.132812 175.78125 C 483.339844 173.757812 479.179688 177.992188 476.5 183.488281 C 476.359375 183.714844 475.621094 184.402344 475.621094 184.402344 Z M 475.621094 184.402344 " clip-rule="evenodd"/></clipPath></defs><g clip-path="url(#7e0abb23ac)"><path fill="#f2c994" d="M 801.585938 121.832031 C 800.332031 119.828125 800.546875 117.09375 802.097656 115.28125 C 803.652344 113.472656 806.4375 112.703125 808.78125 113.4375 C 808.777344 111.613281 810.050781 109.839844 811.851562 109.171875 C 813.652344 108.5 815.863281 108.972656 817.179688 110.3125 C 817.5625 106.371094 822.707031 103.917969 826.671875 105.199219 C 830.640625 106.480469 833.085938 110.5 833.347656 114.449219 C 834.035156 112.953125 836.71875 113.171875 837.808594 114.433594 C 838.902344 113.097656 840.855469 112.089844 842.457031 112.847656 C 844.058594 113.601562 844.949219 115.488281 844.476562 117.117188 C 848.066406 113.914062 854.875 115.164062 856.9375 119.398438 C 858.722656 115.113281 863.773438 112.085938 868.574219 112.914062 C 873.378906 113.746094 877.046875 118.777344 875.648438 123.1875 C 877.84375 121.902344 882.515625 121.589844 883.8125 124.257812 C 885.003906 126.714844 881.359375 130.464844 874.699219 130.910156 C 874.613281 130.914062 871.417969 135.621094 864.5 136.539062 C 858.316406 137.359375 852.457031 134.492188 849.632812 130.601562 C 849.308594 134.082031 844.859375 134.667969 842.917969 132.976562 C 840.121094 137.132812 834.226562 139.171875 829.246094 137.707031 C 826.820312 140.097656 822.828125 140.941406 819.554688 139.753906 C 816.277344 138.5625 813.914062 135.417969 813.808594 132.109375 C 812.722656 133.488281 811.132812 134.632812 809.316406 134.757812 C 807.5 134.882812 805.535156 133.707031 805.320312 132 C 803.1875 133.121094 800.589844 133.589844 798.265625 132.886719 C 795.941406 132.1875 793.8125 130.179688 793.890625 127.878906 C 794.082031 122.425781 801.585938 121.832031 801.585938 121.832031 Z M 801.585938 121.832031 " fill-opacity="1" fill-rule="nonzero"/></g><path fill="#f2c994" d="M 883.851562 124.351562 C 883.144531 125.785156 880.9375 126.988281 878.820312 127.433594 C 876.214844 127.980469 873.878906 127.5 873.878906 127.5 C 873.878906 127.5 870.3125 130.246094 863.792969 131.136719 C 854.570312 132.398438 847.324219 122.902344 847.324219 122.902344 C 847.324219 122.902344 846.914062 125.785156 844.648438 126.195312 C 842.386719 126.609375 840.738281 123.933594 840.738281 123.933594 C 836.828125 131.550781 829.828125 127.636719 829.828125 127.636719 C 823.035156 135.460938 815.214844 127.226562 815.214844 127.226562 C 810.890625 133.195312 807.800781 127.84375 807.800781 127.84375 C 807.800781 127.84375 804.714844 128.667969 804.097656 126.195312 C 803.480469 123.726562 808.007812 122.285156 808.007812 122.285156 C 800.390625 118.167969 808.78125 113.4375 808.78125 113.4375 C 808.78125 113.308594 808.789062 113.179688 808.800781 113.050781 C 808.960938 111.367188 810.175781 109.792969 811.851562 109.171875 C 813.652344 108.5 815.863281 108.972656 817.179688 110.3125 C 817.5625 106.371094 822.703125 103.917969 826.671875 105.199219 C 830.640625 106.480469 833.085938 110.5 833.347656 114.449219 C 834.035156 112.953125 836.71875 113.171875 837.808594 114.433594 C 838.902344 113.097656 840.855469 112.089844 842.457031 112.847656 C 844.058594 113.601562 844.949219 115.488281 844.476562 117.117188 C 848.066406 113.914062 854.875 115.164062 856.9375 119.398438 C 858.722656 115.113281 863.773438 112.085938 868.574219 112.914062 C 873.378906 113.746094 877.046875 118.777344 875.648438 123.1875 C 877.84375 121.902344 882.515625 121.59375 883.8125 124.257812 C 883.824219 124.289062 883.835938 124.320312 883.851562 124.351562 Z M 883.851562 124.351562 " fill-opacity="1" fill-rule="nonzero"/><path fill="#f2c994" d="M 475.621094 184.402344 C 473.078125 183.574219 466.75 187.140625 469.011719 190.128906 C 469.9375 191.300781 472.15625 191.851562 473.542969 192.179688 C 475.113281 192.558594 478.71875 191.445312 479.917969 192.253906 C 482.460938 194 484.816406 194.660156 487.960938 195.269531 C 489.761719 195.617188 491.75 196.242188 493.597656 196.042969 C 495.078125 195.875 497.710938 197.4375 499.28125 197.769531 C 502.101562 198.386719 505.152344 198.867188 508.015625 198.972656 C 511.019531 199.078125 515.132812 199.425781 518.230469 198.9375 C 519.0625 198.8125 519.984375 198.675781 520.726562 198.316406 C 521.046875 198.15625 521.558594 197.070312 521.972656 197.367188 C 529.644531 202.628906 542.816406 203.015625 550.210938 197.402344 C 550.394531 197.25 554.507812 198.46875 555.015625 198.539062 C 558.945312 199.078125 561.207031 198.894531 564.027344 196.742188 C 564.257812 196.566406 566.800781 197.257812 566.984375 197.304688 C 569.710938 197.886719 572.621094 198.46875 575.394531 198.617188 C 577.152344 198.703125 578.722656 198.34375 580.203125 197.511719 C 582.835938 196.042969 583.066406 193.082031 584.082031 192.304688 C 586.117188 190.765625 590.414062 189.800781 589.722656 186.214844 C 588.980469 182.175781 582.742188 184.789062 581.402344 184.113281 C 581.078125 183.960938 581.078125 182.773438 580.804688 182.441406 C 579.738281 180.988281 577.199219 179.886719 575.488281 179.476562 C 574.65625 179.277344 573.363281 179.019531 572.53125 179.070312 C 572.160156 179.089844 571.097656 179.738281 571.003906 179.660156 C 569.757812 178.828125 569.019531 176.699219 567.722656 175.699219 C 566.152344 174.550781 564.167969 173.910156 562.457031 173.070312 C 561.394531 172.546875 559.867188 171.875 558.667969 171.910156 C 558.34375 171.917969 556.863281 172.359375 556.816406 172.296875 C 556.03125 171.234375 556.078125 169.429688 555.15625 168.242188 C 551.550781 163.496094 543.414062 159.816406 537.59375 160.25 C 534.683594 160.472656 530.84375 162.183594 529.042969 164.507812 C 528.535156 165.121094 526.777344 169.453125 526.085938 169.6875 C 525.070312 170.039062 521.882812 168.476562 520.679688 168.308594 C 517.535156 167.886719 514.300781 168.769531 511.484375 170.246094 C 510.003906 171.03125 508.292969 172.894531 507.414062 174.316406 C 506.816406 175.285156 507.414062 177.15625 506.351562 177.519531 C 505.613281 177.769531 503.625 176.863281 502.75 176.867188 C 500.855469 176.882812 499.929688 178.605469 498.726562 179.507812 C 498.128906 179.964844 492.535156 176.5 490.132812 175.78125 C 483.339844 173.757812 479.179688 177.992188 476.5 183.488281 C 476.359375 183.714844 475.621094 184.402344 475.621094 184.402344 Z M 475.621094 184.402344 " fill-opacity="1" fill-rule="evenodd"/><g clip-path="url(#cb6652165b)"><g clip-path="url(#e05d9cd1ea)"><path fill="#f2c994" d="M 471.136719 191.847656 C 472.523438 188.554688 477.886719 191.113281 479.964844 189.550781 C 480.425781 189.203125 480.335938 187.917969 480.566406 187.394531 C 482 184.53125 486.066406 183.601562 488.882812 183.75 C 489.808594 183.796875 497.339844 183.902344 497.109375 185.355469 C 497.109375 185.589844 495.816406 184.984375 493.414062 185.800781 C 492.859375 185.980469 491.519531 186.410156 491.980469 186.726562 C 492.859375 187.300781 495.445312 186.820312 496.464844 186.855469 C 499.882812 186.980469 503.394531 186.71875 506.816406 186.839844 C 507.414062 186.859375 510.328125 187.558594 510.742188 187.21875 C 511.390625 186.738281 507.691406 185.410156 509.125 183.960938 C 513.238281 179.8125 518.96875 177.113281 524.835938 178.929688 C 526.269531 179.386719 528.535156 179.9375 529.273438 181.453125 C 529.738281 182.464844 527.242188 181.570312 526.363281 181.695312 C 524.746094 181.925781 523.128906 182.421875 521.558594 182.949219 C 520.261719 183.386719 517.675781 186.339844 518.460938 185.71875 C 520.496094 184.183594 525.347656 186.097656 526.824219 187.660156 C 527.054688 187.910156 528.257812 189.929688 528.398438 189.953125 C 528.441406 189.957031 529.183594 189.035156 529.367188 188.964844 C 530.292969 188.566406 531.585938 188.425781 532.601562 188.453125 C 535.789062 188.53125 542.859375 190.332031 544.757812 192.832031 L 545.078125 192.871094 C 547.207031 192.46875 549.101562 190.613281 551.226562 189.882812 C 552.195312 189.558594 553.351562 189.410156 554.367188 189.351562 C 554.96875 189.3125 556.679688 189.804688 556.261719 189.296875 C 553.859375 186.140625 547.34375 189.667969 546.1875 189.511719 C 545.820312 189.460938 545.125 187.742188 544.894531 187.417969 C 544.15625 186.457031 542.769531 185.691406 541.613281 185.539062 C 540.964844 185.445312 538.933594 185.636719 539.582031 185.414062 C 545.957031 183.238281 549.792969 181.773438 556.773438 182.027344 C 558.757812 182.101562 561.625 182.09375 563.332031 183.085938 C 563.472656 183.160156 565.597656 184.636719 565.503906 184.65625 C 565.414062 184.675781 560.144531 184.628906 560.792969 185.445312 C 561.53125 186.445312 564.765625 186.644531 565.921875 187.582031 C 566.246094 187.84375 568.324219 191.09375 568.648438 190.828125 C 569.480469 190.210938 568.648438 187.480469 569.710938 186.667969 C 570.3125 186.214844 572.667969 186.910156 573.316406 187.003906 C 576.96875 187.496094 580.109375 188.191406 583.296875 189.960938 C 584.222656 190.457031 586.671875 191.019531 586.8125 192.355469 C 587.042969 194.484375 583.4375 196.734375 582.097656 197.769531 C 574.238281 203.710938 570.035156 203.617188 560.421875 203.109375 C 549.332031 202.523438 538.980469 206.152344 527.890625 206.476562 C 516.289062 206.820312 505.195312 204.332031 493.78125 202.765625 C 487.40625 201.898438 480.933594 201.808594 474.558594 200.9375 C 473.957031 200.855469 469.476562 199.332031 469.199219 199.5625 C 468.875 199.789062 471.136719 191.847656 471.136719 191.847656 Z M 471.136719 191.847656 " fill-opacity="1" fill-rule="evenodd"/></g></g><g clip-path="url(#368c1cfda3)"><g clip-path="url(#bab0bf5733)"><path fill="#f2c994" d="M 533.386719 175.488281 C 532.925781 175.386719 530.894531 174.050781 530.523438 174.605469 C 530.015625 175.316406 533.25 177.335938 533.757812 177.761719 C 534.035156 177.996094 535.789062 180.652344 535.929688 180.609375 C 537.640625 180.023438 539.027344 178.957031 540.921875 178.902344 C 541.523438 178.882812 542.214844 179.285156 542.539062 178.800781 C 543.691406 177.125 543.140625 175.898438 545.496094 174.582031 C 546.605469 173.980469 547.898438 173.179688 549.101562 172.839844 C 549.421875 172.75 551.917969 172.59375 551.78125 172.085938 C 549.191406 164.527344 535.191406 163 530.753906 169.527344 C 530.707031 169.570312 530.707031 169.632812 530.707031 169.683594 C 531.308594 171.457031 535.28125 172.449219 534.960938 174.890625 C 534.914062 175.21875 533.386719 175.488281 533.386719 175.488281 Z M 533.386719 175.488281 " fill-opacity="1" fill-rule="evenodd"/></g></g></svg>