<svg xmlns="http://www.w3.org/2000/svg" xmlns:xlink="http://www.w3.org/1999/xlink" width="1366" zoomAndPan="magnify" viewBox="0 0 1024.5 576" height="768" preserveAspectRatio="xMidYMid meet" version="1.0"><defs><clipPath id="3432ec0811"><path d="M 0 267 L 398 267 L 398 418.515625 L 0 418.515625 Z M 0 267 " clip-rule="nonzero"/></clipPath><clipPath id="159c131de9"><path d="M 0 397.308594 L 215 397.308594 L 215 575.859375 L 0 575.859375 Z M 0 397.308594 " clip-rule="nonzero"/></clipPath><clipPath id="2c1f6c5bd6"><path d="M 181 374 L 318 374 L 318 447 L 181 447 Z M 181 374 " clip-rule="nonzero"/></clipPath><clipPath id="149f6d83e7"><path d="M 206.925781 374.128906 L 321.792969 415.796875 L 296.484375 485.5625 L 181.617188 443.894531 Z M 206.925781 374.128906 " clip-rule="nonzero"/></clipPath><clipPath id="2e753d59bf"><path d="M 296.269531 485.574219 L 181.402344 443.90625 L 206.710938 374.140625 L 321.578125 415.808594 Z M 296.269531 485.574219 " clip-rule="nonzero"/></clipPath><clipPath id="865c0a5989"><path d="M 299 402 L 398 402 L 398 437 L 299 437 Z M 299 402 " clip-rule="nonzero"/></clipPath><clipPath id="c432865183"><path d="M 329.75 356.921875 L 408.496094 426.300781 L 351.507812 490.984375 L 272.761719 421.605469 Z M 329.75 356.921875 " clip-rule="nonzero"/></clipPath><clipPath id="8dcbac6950"><path d="M 329.75 356.921875 L 408.496094 426.300781 L 351.507812 490.984375 L 272.761719 421.605469 Z M 329.75 356.921875 " clip-rule="nonzero"/></clipPath><clipPath id="3c3612c2da"><path d="M 0 384.167969 L 295 384.167969 L 295 575.859375 L 0 575.859375 Z M 0 384.167969 " clip-rule="nonzero"/></clipPath><clipPath id="d59467198e"><path d="M 0 406 L 154 406 L 154 575.859375 L 0 575.859375 Z M 0 406 " clip-rule="nonzero"/></clipPath><clipPath id="836652d194"><path d="M -116.640625 639.703125 L -62.53125 373.78125 L 173.269531 421.761719 L 119.160156 687.679688 Z M -116.640625 639.703125 " clip-rule="nonzero"/></clipPath><clipPath id="49bdd8a68a"><path d="M 119.472656 687.742188 L 173.578125 421.824219 L -62.222656 373.847656 L -116.328125 639.765625 Z M 119.472656 687.742188 " clip-rule="nonzero"/></clipPath><clipPath id="6ca88c29a1"><path d="M 269 396 L 329 396 L 329 442 L 269 442 Z M 269 396 " clip-rule="nonzero"/></clipPath><clipPath id="fb9ebb9a79"><path d="M 261.714844 433.894531 L 298.230469 386.324219 L 340.449219 418.730469 L 303.933594 466.304688 Z M 261.714844 433.894531 " clip-rule="nonzero"/></clipPath><clipPath id="281f4e5510"><path d="M 304.054688 466.398438 L 340.570312 418.824219 L 298.351562 386.417969 L 261.835938 433.988281 Z M 304.054688 466.398438 " clip-rule="nonzero"/></clipPath><clipPath id="a142f60e38"><path d="M 104 439 L 197.664062 439 L 197.664062 539 L 104 539 Z M 104 439 " clip-rule="nonzero"/></clipPath><clipPath id="fbe8a5cf1c"><path d="M 0 295 L 60 295 L 60 357 L 0 357 Z M 0 295 " clip-rule="nonzero"/></clipPath><clipPath id="007e202de7"><path d="M -31.78125 346.304688 L 17.96875 281.488281 L 75.652344 325.765625 L 25.898438 390.582031 Z M -31.78125 346.304688 " clip-rule="nonzero"/></clipPath><clipPath id="3d1f1d78f3"><path d="M 25.710938 390.4375 L 75.464844 325.621094 L 17.785156 281.34375 L -31.96875 346.160156 Z M 25.710938 390.4375 " clip-rule="nonzero"/></clipPath><clipPath id="73543f3a5c"><path d="M 0 279 L 411 279 L 411 431.066406 L 0 431.066406 Z M 0 279 " clip-rule="nonzero"/></clipPath><clipPath id="9d846592b2"><path d="M 0 410 L 227.773438 410 L 227.773438 575.859375 L 0 575.859375 Z M 0 410 " clip-rule="nonzero"/></clipPath><clipPath id="5ec4ba85d3"><path d="M 194 386 L 331 386 L 331 460 L 194 460 Z M 194 386 " clip-rule="nonzero"/></clipPath><clipPath id="c15db621f9"><path d="M 219.476562 386.679688 L 334.34375 428.347656 L 309.035156 498.113281 L 194.167969 456.445312 Z M 219.476562 386.679688 " clip-rule="nonzero"/></clipPath><clipPath id="f0aa6ed06a"><path d="M 308.820312 498.121094 L 193.953125 456.457031 L 219.261719 386.691406 L 334.125 428.359375 Z M 308.820312 498.121094 " clip-rule="nonzero"/></clipPath><clipPath id="dc186e9247"><path d="M 312 414 L 411 414 L 411 449 L 312 449 Z M 312 414 " clip-rule="nonzero"/></clipPath><clipPath id="6115fb0bc5"><path d="M 342.300781 369.472656 L 421.046875 438.851562 L 364.058594 503.535156 L 285.3125 434.15625 Z M 342.300781 369.472656 " clip-rule="nonzero"/></clipPath><clipPath id="1a077a134d"><path d="M 342.300781 369.472656 L 421.046875 438.851562 L 364.058594 503.535156 L 285.3125 434.15625 Z M 342.300781 369.472656 " clip-rule="nonzero"/></clipPath><clipPath id="e67b1a0e0b"><path d="M 0 397 L 307.667969 397 L 307.667969 575.859375 L 0 575.859375 Z M 0 397 " clip-rule="nonzero"/></clipPath><clipPath id="ed639b595d"><path d="M 0 418 L 166 418 L 166 575.859375 L 0 575.859375 Z M 0 418 " clip-rule="nonzero"/></clipPath><clipPath id="9444be0315"><path d="M -104.089844 652.25 L -49.980469 386.332031 L 185.820312 434.3125 L 131.710938 700.230469 Z M -104.089844 652.25 " clip-rule="nonzero"/></clipPath><clipPath id="e682922c35"><path d="M 132.019531 700.292969 L 186.128906 434.375 L -49.671875 386.394531 L -103.78125 652.3125 Z M 132.019531 700.292969 " clip-rule="nonzero"/></clipPath><clipPath id="5d9495fa43"><path d="M 281 409 L 342 409 L 342 454 L 281 454 Z M 281 409 " clip-rule="nonzero"/></clipPath><clipPath id="de26392d23"><path d="M 274.265625 446.445312 L 310.78125 398.875 L 353 431.28125 L 316.484375 478.855469 Z M 274.265625 446.445312 " clip-rule="nonzero"/></clipPath><clipPath id="6a6bd1ee81"><path d="M 316.605469 478.945312 L 353.121094 431.375 L 310.902344 398.96875 L 274.386719 446.539062 Z M 316.605469 478.945312 " clip-rule="nonzero"/></clipPath><clipPath id="d516570b3b"><path d="M 0 308 L 73 308 L 73 369 L 0 369 Z M 0 308 " clip-rule="nonzero"/></clipPath><clipPath id="4d588771f2"><path d="M -19.234375 358.855469 L 30.519531 294.039062 L 88.199219 338.3125 L 38.449219 403.128906 Z M -19.234375 358.855469 " clip-rule="nonzero"/></clipPath><clipPath id="2475d84360"><path d="M 38.261719 402.988281 L 88.015625 338.171875 L 30.335938 293.894531 L -19.417969 358.710938 Z M 38.261719 402.988281 " clip-rule="nonzero"/></clipPath></defs><g clip-path="url(#3432ec0811)"><path fill="#68251c" d="M -44.964844 418.59375 C -41.226562 409.554688 -29.929688 403.523438 -24.035156 396.074219 C -14.058594 383.46875 -9.097656 367.28125 1.660156 354.902344 C 5.34375 350.660156 9.3125 345.394531 14.191406 342.492188 C 19.523438 339.320312 27.109375 340.1875 31.878906 335.953125 C 38.792969 329.808594 47.445312 311.734375 55.109375 302.8125 C 61.371094 295.527344 77.5 265.613281 89.582031 267.257812 C 98.589844 268.488281 108.175781 286.753906 116.832031 292.101562 C 122.9375 295.871094 132.96875 283.808594 142.089844 291.074219 C 147.957031 295.753906 150.613281 304.101562 155.621094 309.683594 C 161.996094 316.800781 177.367188 336.023438 185.835938 339.863281 C 192.28125 342.78125 200.820312 342.429688 206.757812 346.445312 C 210.054688 348.671875 212.566406 352.5625 216.5 353.710938 C 225.140625 356.226562 235.394531 353.429688 244.289062 354.246094 C 246.328125 354.429688 251.789062 357.382812 253.441406 355.457031 C 260.019531 347.757812 270.929688 321.175781 284.40625 323.261719 C 288.171875 323.847656 294.160156 332.769531 297.261719 335.390625 C 303.402344 340.582031 310.328125 342.042969 315.730469 348.734375 C 321.492188 355.867188 323.023438 365.273438 329.839844 371.855469 C 341.601562 383.222656 350.558594 378.296875 363.257812 384.777344 C 369.351562 387.886719 373.707031 395.695312 378.328125 400.726562 C 384.117188 407.03125 392.734375 411.167969 397.835938 418.09375 Z M -44.964844 418.59375 " fill-opacity="1" fill-rule="evenodd"/></g><g clip-path="url(#159c131de9)"><path fill="#68251c" d="M -116.566406 599.4375 L -116.566406 398.019531 L 176.714844 398.019531 C 196.535156 397.308594 215.152344 412.304688 214.503906 430.957031 C 214.3125 436.4375 212.460938 442.203125 207.925781 445.644531 C 205.046875 447.824219 201.382812 448.859375 197.769531 449.59375 C 178.515625 453.492188 156.703125 450.667969 140.722656 461.496094 C 124.773438 472.308594 119.652344 493.789062 102.933594 503.519531 C 81.640625 515.910156 52.929688 503.40625 29.234375 511.023438 C 1.148438 520.050781 -8.851562 552.414062 -30.835938 571.183594 C -52.417969 589.605469 -87.582031 596.570312 -116.566406 599.4375 Z M -116.566406 599.4375 " fill-opacity="1" fill-rule="nonzero"/></g><g clip-path="url(#2c1f6c5bd6)"><g clip-path="url(#149f6d83e7)"><g clip-path="url(#2e753d59bf)"><path fill="#68251c" d="M 181.621094 443.984375 L 206.867188 374.386719 L 308.207031 411.148438 C 315.144531 413.386719 319.695312 420.902344 317.132812 427.265625 C 316.382812 429.132812 315.019531 430.894531 313.019531 431.515625 C 311.753906 431.910156 310.355469 431.804688 309.015625 431.605469 C 301.875 430.542969 294.691406 426.832031 287.8125 428.570312 C 280.945312 430.304688 276.484375 437.085938 269.488281 438.351562 C 260.578125 439.964844 252.226562 432.046875 243.082031 431.707031 C 232.246094 431.308594 224.734375 441.238281 214.785156 444.964844 C 205.019531 448.628906 191.996094 446.625 181.621094 443.984375 Z M 181.621094 443.984375 " fill-opacity="1" fill-rule="nonzero"/></g></g></g><g clip-path="url(#865c0a5989)"><g clip-path="url(#c432865183)"><g clip-path="url(#8dcbac6950)"><path fill="#68251c" d="M 392.519531 412.234375 C 382.058594 404.171875 341.386719 401.8125 326.96875 402.058594 C 289.425781 402.8125 291.566406 437.980469 326.359375 435.957031 C 342.1875 433.382812 357.996094 428.058594 374.203125 431.488281 C 389.023438 436.75 407.152344 427.429688 392.519531 412.234375 " fill-opacity="1" fill-rule="nonzero"/></g></g></g><g clip-path="url(#3c3612c2da)"><path fill="#68251c" d="M -80.363281 612.800781 L -80.363281 384.746094 L 251.695312 384.746094 C 274.136719 383.945312 295.21875 400.921875 294.484375 422.042969 C 294.269531 428.246094 292.171875 434.773438 287.035156 438.671875 C 283.777344 441.140625 279.628906 442.3125 275.535156 443.140625 C 253.738281 447.558594 229.039062 444.359375 210.945312 456.621094 C 192.886719 468.859375 187.089844 493.179688 168.164062 504.199219 C 144.050781 518.230469 111.542969 504.074219 84.71875 512.695312 C 52.914062 522.917969 41.59375 559.5625 16.703125 580.808594 C -7.730469 601.671875 -47.550781 609.554688 -80.363281 612.800781 Z M -80.363281 612.800781 " fill-opacity="1" fill-rule="nonzero"/></g><g clip-path="url(#d59467198e)"><g clip-path="url(#836652d194)"><g clip-path="url(#49bdd8a68a)"><path fill="#68251c" d="M 150.246094 526.339844 C 146.339844 535.542969 143.160156 541.144531 136.355469 546.003906 C 115.402344 561.742188 99.152344 560.101562 72.671875 570.121094 C 38.390625 582.726562 32.96875 590.785156 6.765625 610.863281 C 3.601562 613.554688 0.59375 615.441406 -2.488281 617.726562 C -26.964844 636.488281 -69.394531 649.105469 -88.773438 618.5 C -92.464844 612.332031 -95.238281 605.941406 -97.597656 597.542969 C -99.765625 589.605469 -102.570312 581.949219 -97.664062 572.117188 C -94.246094 565.3125 -88.109375 559.480469 -83.457031 553.761719 C -78.441406 547.695312 -73.144531 541.695312 -69.757812 533.636719 C -66.453125 525.980469 -63.257812 514.546875 -63.226562 505.808594 C -63.078125 487.921875 -79.90625 459.089844 -59.191406 431.640625 C -30.53125 393.734375 -1.941406 419.132812 34.242188 411.496094 C 47.59375 408.796875 68.675781 401.003906 84.535156 411.734375 C 94.816406 418.410156 96.703125 426.289062 99.722656 431.488281 C 101.46875 434.34375 101.605469 429.371094 103.972656 437.769531 C 104.996094 441.3125 112.066406 452.332031 116.445312 456.558594 C 119.109375 459.183594 122.222656 461.066406 126.085938 463.519531 C 141.152344 472.417969 146.1875 483.441406 151.273438 499.886719 C 154.035156 509.195312 154.410156 515.941406 150.253906 526.339844 Z M 150.246094 526.339844 " fill-opacity="1" fill-rule="evenodd"/></g></g></g><g clip-path="url(#6ca88c29a1)"><g clip-path="url(#fb9ebb9a79)"><g clip-path="url(#281f4e5510)"><path fill="#68251c" d="M 325.863281 437.25 C 324.191406 438.703125 323.011719 439.507812 321.1875 439.816406 C 315.488281 440.914062 312.410156 439.007812 306.164062 438.429688 C 298.117188 437.609375 296.253906 438.6875 289.085938 440.140625 C 288.195312 440.367188 287.414062 440.453125 286.578125 440.609375 C 279.882812 441.964844 270.207031 440.355469 269.324219 432.378906 C 269.1875 430.792969 269.257812 429.25 269.601562 427.351562 C 269.941406 425.558594 270.125 423.761719 272.058594 422.28125 C 273.398438 421.257812 275.1875 420.695312 276.671875 420.007812 C 278.257812 419.289062 279.894531 418.605469 281.351562 417.332031 C 282.753906 416.128906 284.5 414.164062 285.355469 412.425781 C 287.121094 408.878906 286.574219 401.503906 293.363281 398.050781 C 302.753906 393.289062 305.976562 401.121094 313.921875 403.117188 C 316.84375 403.875 321.796875 404.375 323.914062 408.050781 C 325.3125 410.378906 324.921875 412.128906 325.015625 413.457031 C 325.089844 414.195312 325.597656 413.21875 325.253906 415.121094 C 325.113281 415.925781 325.449219 418.808594 325.910156 420.074219 C 326.1875 420.855469 326.625 421.53125 327.15625 422.398438 C 329.289062 425.632812 329.222656 428.316406 328.636719 432.082031 C 328.28125 434.207031 327.703125 435.585938 325.863281 437.25 Z M 325.863281 437.25 " fill-opacity="1" fill-rule="evenodd"/></g></g></g><g clip-path="url(#a142f60e38)"><path fill="#68251c" d="M 196.921875 479.382812 C 196.132812 483.257812 195.34375 485.679688 193.089844 488.097656 C 186.214844 495.84375 179.789062 496.492188 170.320312 502.460938 C 158.03125 510.046875 156.566406 513.597656 147.996094 523.441406 C 146.984375 524.734375 145.96875 525.703125 144.953125 526.828125 C 136.949219 536.027344 121.503906 544.261719 111.585938 533.929688 C 109.667969 531.832031 108.089844 529.574219 106.511719 526.507812 C 105.046875 523.601562 103.359375 520.859375 104.484375 516.664062 C 105.273438 513.753906 107.191406 511.011719 108.542969 508.429688 C 110.007812 505.683594 111.585938 502.941406 112.261719 499.554688 C 112.9375 496.328125 113.277344 491.644531 112.597656 488.257812 C 111.246094 481.316406 102.453125 471.472656 108.316406 459.207031 C 116.429688 442.257812 129.507812 449.84375 142.925781 444.035156 C 147.886719 441.9375 155.4375 437.257812 162.429688 440.164062 C 166.9375 441.9375 168.292969 444.84375 169.871094 446.617188 C 170.773438 447.585938 170.433594 445.648438 172.011719 448.71875 C 172.6875 450.007812 176.296875 453.722656 178.324219 455.011719 C 179.566406 455.820312 180.917969 456.304688 182.609375 456.949219 C 189.148438 459.210938 191.964844 463.082031 195.234375 469.054688 C 197.039062 472.441406 197.714844 475.027344 196.925781 479.382812 Z M 196.921875 479.382812 " fill-opacity="1" fill-rule="evenodd"/></g><g clip-path="url(#fbe8a5cf1c)"><g clip-path="url(#007e202de7)"><g clip-path="url(#3d1f1d78f3)"><path fill="#68251c" d="M 55.320312 350.863281 C 53.050781 352.835938 51.453125 353.929688 48.972656 354.347656 C 41.230469 355.835938 37.054688 353.25 28.574219 352.464844 C 17.644531 351.351562 15.117188 352.816406 5.382812 354.789062 C 4.171875 355.097656 3.109375 355.210938 1.976562 355.421875 C -7.117188 357.265625 -20.25 355.078125 -21.453125 344.25 C -21.636719 342.09375 -21.542969 340 -21.074219 337.417969 C -20.613281 334.988281 -20.363281 332.546875 -17.738281 330.535156 C -15.917969 329.148438 -13.488281 328.382812 -11.476562 327.449219 C -9.320312 326.46875 -7.097656 325.546875 -5.117188 323.816406 C -3.214844 322.179688 -0.84375 319.511719 0.320312 317.152344 C 2.71875 312.335938 1.972656 302.320312 11.191406 297.636719 C 23.941406 291.167969 28.320312 301.804688 39.109375 304.511719 C 43.074219 305.542969 49.800781 306.21875 52.675781 311.210938 C 54.574219 314.371094 54.042969 316.75 54.175781 318.554688 C 54.269531 319.558594 54.960938 318.230469 54.496094 320.816406 C 54.304688 321.90625 54.761719 325.820312 55.390625 327.539062 C 55.761719 328.601562 56.355469 329.519531 57.078125 330.691406 C 59.976562 335.085938 59.882812 338.730469 59.089844 343.847656 C 58.609375 346.726562 57.820312 348.601562 55.324219 350.863281 Z M 55.320312 350.863281 " fill-opacity="1" fill-rule="evenodd"/></g></g></g><g clip-path="url(#73543f3a5c)"><path fill="#68251c" d="M -32.414062 431.140625 C -28.675781 422.105469 -17.378906 416.074219 -11.488281 408.625 C -1.507812 396.019531 3.453125 379.828125 14.210938 367.453125 C 17.890625 363.210938 21.863281 357.941406 26.742188 355.042969 C 32.074219 351.867188 39.65625 352.738281 44.425781 348.503906 C 51.34375 342.359375 59.996094 324.285156 67.660156 315.359375 C 73.921875 308.078125 90.050781 278.160156 102.132812 279.808594 C 111.140625 281.035156 120.726562 299.304688 129.378906 304.648438 C 135.484375 308.417969 145.515625 296.359375 154.640625 303.625 C 160.507812 308.304688 163.164062 316.648438 168.167969 322.234375 C 174.546875 329.351562 189.917969 348.574219 198.386719 352.414062 C 204.828125 355.332031 213.371094 354.980469 219.308594 358.996094 C 222.605469 361.222656 225.117188 365.113281 229.050781 366.261719 C 237.691406 368.777344 247.945312 365.980469 256.839844 366.796875 C 258.878906 366.980469 264.339844 369.933594 265.992188 368.003906 C 272.570312 360.308594 283.480469 333.722656 296.957031 335.8125 C 300.722656 336.398438 306.710938 345.320312 309.8125 347.941406 C 315.953125 353.132812 322.878906 354.59375 328.28125 361.28125 C 334.039062 368.417969 335.574219 377.824219 342.390625 384.40625 C 354.152344 395.773438 363.109375 390.847656 375.808594 397.324219 C 381.902344 400.4375 386.257812 408.246094 390.878906 413.277344 C 396.667969 419.582031 405.285156 423.71875 410.386719 430.640625 Z M -32.414062 431.140625 " fill-opacity="1" fill-rule="evenodd"/></g><g clip-path="url(#9d846592b2)"><path fill="#68251c" d="M -104.015625 611.988281 L -104.015625 410.566406 L 189.261719 410.566406 C 209.082031 409.859375 227.699219 424.855469 227.054688 443.507812 C 226.863281 448.984375 225.011719 454.753906 220.476562 458.191406 C 217.597656 460.375 213.933594 461.410156 210.320312 462.140625 C 191.066406 466.042969 169.25 463.21875 153.273438 474.046875 C 137.324219 484.859375 132.203125 506.335938 115.484375 516.066406 C 94.191406 528.460938 65.480469 515.957031 41.785156 523.574219 C 13.699219 532.601562 3.695312 564.964844 -18.285156 583.730469 C -39.867188 602.15625 -75.03125 609.121094 -104.015625 611.988281 Z M -104.015625 611.988281 " fill-opacity="1" fill-rule="nonzero"/></g><g clip-path="url(#5ec4ba85d3)"><g clip-path="url(#c15db621f9)"><g clip-path="url(#f0aa6ed06a)"><path fill="#68251c" d="M 194.171875 456.535156 L 219.417969 386.9375 L 320.753906 423.695312 C 327.691406 425.9375 332.246094 433.449219 329.683594 439.816406 C 328.933594 441.683594 327.570312 443.445312 325.570312 444.066406 C 324.300781 444.457031 322.90625 444.355469 321.566406 444.15625 C 314.425781 443.089844 307.242188 439.378906 300.363281 441.121094 C 293.496094 442.855469 289.035156 449.636719 282.039062 450.902344 C 273.128906 452.515625 264.773438 444.597656 255.632812 444.257812 C 244.796875 443.859375 237.285156 453.785156 227.335938 457.515625 C 217.570312 461.175781 204.546875 459.175781 194.171875 456.535156 Z M 194.171875 456.535156 " fill-opacity="1" fill-rule="nonzero"/></g></g></g><g clip-path="url(#dc186e9247)"><g clip-path="url(#6115fb0bc5)"><g clip-path="url(#1a077a134d)"><path fill="#68251c" d="M 405.066406 424.785156 C 394.609375 416.71875 353.9375 414.363281 339.519531 414.609375 C 301.972656 415.359375 304.117188 450.53125 338.90625 448.507812 C 354.738281 445.929688 370.546875 440.609375 386.753906 444.039062 C 401.574219 449.300781 419.703125 439.980469 405.066406 424.785156 " fill-opacity="1" fill-rule="nonzero"/></g></g></g><g clip-path="url(#e67b1a0e0b)"><path fill="#68251c" d="M -67.8125 625.351562 L -67.8125 397.296875 L 264.246094 397.296875 C 286.6875 396.492188 307.765625 413.472656 307.035156 434.589844 C 306.820312 440.796875 304.722656 447.324219 299.585938 451.21875 C 296.324219 453.691406 292.179688 454.863281 288.085938 455.691406 C 266.289062 460.109375 241.589844 456.90625 223.496094 469.167969 C 205.4375 481.410156 199.640625 505.730469 180.710938 516.746094 C 156.601562 530.777344 124.09375 516.621094 97.265625 525.246094 C 65.464844 535.46875 54.140625 572.109375 29.253906 593.359375 C 4.816406 614.222656 -35 622.105469 -67.8125 625.351562 Z M -67.8125 625.351562 " fill-opacity="1" fill-rule="nonzero"/></g><g clip-path="url(#ed639b595d)"><g clip-path="url(#9444be0315)"><g clip-path="url(#e682922c35)"><path fill="#68251c" d="M 162.796875 538.890625 C 158.890625 548.089844 155.710938 553.695312 148.902344 558.554688 C 127.953125 574.289062 111.703125 572.652344 85.222656 582.671875 C 50.941406 595.277344 45.519531 603.335938 19.316406 623.414062 C 16.152344 626.105469 13.144531 627.992188 10.0625 630.277344 C -14.414062 649.039062 -56.84375 661.65625 -76.222656 631.050781 C -79.914062 624.882812 -82.6875 618.488281 -85.050781 610.089844 C -87.214844 602.15625 -90.023438 594.5 -85.117188 584.667969 C -81.695312 577.863281 -75.558594 572.03125 -70.90625 566.308594 C -65.890625 560.246094 -60.59375 554.246094 -57.207031 546.1875 C -53.902344 538.53125 -50.707031 527.097656 -50.675781 518.355469 C -50.53125 500.472656 -67.359375 471.636719 -46.640625 444.191406 C -17.980469 406.285156 10.609375 431.683594 46.789062 424.046875 C 60.144531 421.347656 81.222656 413.554688 97.085938 424.285156 C 107.363281 430.960938 109.253906 438.839844 112.273438 444.039062 C 114.019531 446.894531 114.15625 441.921875 116.523438 450.320312 C 117.546875 453.863281 124.617188 464.882812 128.996094 469.105469 C 131.660156 471.734375 134.769531 473.617188 138.636719 476.070312 C 153.703125 484.96875 158.734375 495.988281 163.820312 512.4375 C 166.585938 521.746094 166.960938 528.492188 162.804688 538.890625 Z M 162.796875 538.890625 " fill-opacity="1" fill-rule="evenodd"/></g></g></g><g clip-path="url(#5d9495fa43)"><g clip-path="url(#de26392d23)"><g clip-path="url(#6a6bd1ee81)"><path fill="#68251c" d="M 338.414062 449.800781 C 336.742188 451.253906 335.5625 452.058594 333.734375 452.367188 C 328.035156 453.464844 324.960938 451.558594 318.714844 450.980469 C 310.664062 450.160156 308.804688 451.238281 301.636719 452.691406 C 300.746094 452.917969 299.960938 453.003906 299.125 453.15625 C 292.429688 454.515625 282.757812 452.90625 281.875 444.929688 C 281.738281 443.34375 281.804688 441.800781 282.152344 439.898438 C 282.492188 438.109375 282.675781 436.3125 284.609375 434.832031 C 285.949219 433.808594 287.738281 433.246094 289.21875 432.558594 C 290.808594 431.835938 292.445312 431.15625 293.902344 429.882812 C 295.304688 428.679688 297.050781 426.710938 297.90625 424.976562 C 299.671875 421.429688 299.125 414.054688 305.914062 410.601562 C 315.304688 405.839844 318.527344 413.671875 326.472656 415.667969 C 329.394531 416.425781 334.347656 416.921875 336.460938 420.601562 C 337.859375 422.929688 337.472656 424.679688 337.566406 426.007812 C 337.636719 426.746094 338.148438 425.769531 337.804688 427.671875 C 337.664062 428.476562 338 431.355469 338.460938 432.625 C 338.738281 433.40625 339.171875 434.082031 339.703125 434.945312 C 341.839844 438.183594 341.769531 440.863281 341.1875 444.632812 C 340.832031 446.753906 340.25 448.132812 338.414062 449.800781 Z M 338.414062 449.800781 " fill-opacity="1" fill-rule="evenodd"/></g></g></g><path fill="#68251c" d="M 209.472656 491.933594 C 208.683594 495.804688 207.894531 498.226562 205.640625 500.648438 C 198.761719 508.394531 192.339844 509.042969 182.867188 515.011719 C 170.582031 522.597656 169.117188 526.148438 160.546875 535.992188 C 159.53125 537.28125 158.515625 538.25 157.503906 539.378906 C 149.5 548.578125 134.054688 556.808594 124.136719 546.480469 C 122.21875 544.382812 120.640625 542.125 119.0625 539.054688 C 117.597656 536.152344 115.90625 533.40625 117.03125 529.210938 C 117.820312 526.304688 119.738281 523.5625 121.089844 520.980469 C 122.554688 518.234375 124.136719 515.492188 124.8125 512.105469 C 125.488281 508.878906 125.824219 504.195312 125.148438 500.808594 C 123.796875 493.867188 115.003906 484.023438 120.867188 471.753906 C 128.980469 454.808594 142.058594 462.394531 155.476562 456.585938 C 160.433594 454.488281 167.988281 449.804688 174.980469 452.710938 C 179.488281 454.488281 180.839844 457.394531 182.421875 459.167969 C 183.324219 460.136719 182.984375 458.199219 184.5625 461.269531 C 185.238281 462.558594 188.84375 466.269531 190.875 467.5625 C 192.113281 468.371094 193.46875 468.855469 195.160156 469.5 C 201.699219 471.761719 204.515625 475.632812 207.785156 481.605469 C 209.589844 484.992188 210.265625 487.578125 209.472656 491.933594 Z M 209.472656 491.933594 " fill-opacity="1" fill-rule="evenodd"/><g clip-path="url(#d516570b3b)"><g clip-path="url(#4d588771f2)"><g clip-path="url(#2475d84360)"><path fill="#68251c" d="M 67.871094 363.414062 C 65.601562 365.386719 64.003906 366.480469 61.523438 366.898438 C 53.78125 368.386719 49.605469 365.800781 41.125 365.015625 C 30.195312 363.902344 27.664062 365.367188 17.933594 367.335938 C 16.722656 367.648438 15.660156 367.761719 14.527344 367.972656 C 5.433594 369.816406 -7.703125 367.628906 -8.902344 356.800781 C -9.085938 354.644531 -8.996094 352.550781 -8.523438 349.96875 C -8.0625 347.539062 -7.8125 345.097656 -5.1875 343.085938 C -3.367188 341.699219 -0.9375 340.929688 1.074219 340 C 3.230469 339.019531 5.453125 338.097656 7.429688 336.367188 C 9.335938 334.730469 11.707031 332.0625 12.867188 329.703125 C 15.265625 324.886719 14.519531 314.871094 23.742188 310.183594 C 36.492188 303.71875 40.871094 314.355469 51.660156 317.0625 C 55.625 318.09375 62.351562 318.769531 65.222656 323.761719 C 67.121094 326.921875 66.59375 329.300781 66.722656 331.105469 C 66.820312 332.109375 67.511719 330.78125 67.042969 333.363281 C 66.855469 334.457031 67.3125 338.367188 67.9375 340.089844 C 68.3125 341.148438 68.90625 342.070312 69.625 343.242188 C 72.527344 347.636719 72.433594 351.277344 71.636719 356.398438 C 71.15625 359.277344 70.371094 361.152344 67.875 363.414062 Z M 67.871094 363.414062 " fill-opacity="1" fill-rule="evenodd"/></g></g></g></svg>