<svg xmlns="http://www.w3.org/2000/svg" xmlns:xlink="http://www.w3.org/1999/xlink" width="1366" zoomAndPan="magnify" viewBox="0 0 1024.5 576" height="768" preserveAspectRatio="xMidYMid meet" version="1.0"><defs><clipPath id="abc0e92aaf"><path d="M 793.808594 104 L 885 104 L 885 140.636719 L 793.808594 140.636719 Z M 793.808594 104 " clip-rule="nonzero"/></clipPath><clipPath id="4461f58aa0"><path d="M 42 43 L 262.332031 43 L 262.332031 115 L 42 115 Z M 42 43 " clip-rule="nonzero"/></clipPath><clipPath id="86680a8c3f"><path d="M 98 59 L 123 59 L 123 77 L 98 77 Z M 98 59 " clip-rule="nonzero"/></clipPath><clipPath id="2d9414b0b3"><path d="M 69.78125 79.386719 C 69.253906 81.941406 62.03125 79.007812 60.285156 79.78125 C 54.515625 82.328125 57.894531 88.9375 56.089844 89.480469 C 52.710938 90.507812 45.023438 89.671875 42.515625 92.695312 C 41.933594 93.4375 44.4375 93.082031 45.371094 93.128906 C 47.875 93.242188 50.441406 92.503906 52.945312 92.941406 C 55.800781 93.441406 58.1875 95.265625 61.21875 95.3125 C 65.585938 95.382812 69.488281 93.152344 73.742188 94.125 C 74.03125 94.199219 73.855469 94.425781 73.972656 94.628906 C 74.265625 95.292969 67.15625 98.5625 66.519531 101.300781 C 66.050781 103.433594 71.121094 106.363281 72.691406 107.03125 C 75.835938 108.414062 94.539062 110.636719 98.265625 110.574219 C 101.585938 110.515625 106.480469 107.246094 109.449219 107.933594 C 116.03125 109.460938 117.605469 111.65625 126.109375 111.792969 C 130.070312 111.855469 136.65625 106.898438 139.972656 108.199219 C 144.167969 109.8125 146.035156 113.503906 150.925781 114.355469 C 158.558594 115.671875 167.472656 112.257812 175.042969 111.535156 C 178.710938 111.191406 181.566406 108.117188 184.886719 107.796875 C 186.75 107.621094 187.277344 110.316406 189.375 110.535156 C 191.355469 110.742188 193.800781 109.285156 195.78125 109.746094 C 200.90625 110.933594 206.734375 111.097656 212.265625 109.9375 C 214.886719 109.398438 216.578125 107.125 219.316406 106.460938 C 221.292969 105.984375 223.917969 107.820312 226.132812 107.921875 C 230.558594 108.132812 233.820312 106.34375 237.199219 104.242188 C 241.800781 101.351562 249.257812 102.214844 254.324219 101.738281 C 254.964844 101.679688 262.363281 101.375 262.304688 100.980469 C 262.246094 100.195312 248.5 99 247.570312 96.769531 C 244.714844 90.4375 237.839844 89.527344 237.316406 88.613281 C 235.742188 86.148438 237.375 80.597656 230.675781 78.011719 C 227.53125 76.789062 224.035156 78.710938 221.355469 77.667969 C 212.265625 74.164062 209.296875 62.910156 198.285156 62.132812 C 193.976562 61.824219 189.429688 63.546875 186.402344 66.414062 C 183.550781 69.121094 181.917969 75.128906 176.964844 73.980469 C 175.160156 73.570312 173.355469 70.695312 171.78125 69.734375 C 170.730469 69.085938 166.652344 69.34375 166.246094 68.328125 C 165.488281 66.621094 169.917969 63.652344 166.015625 58.875 C 165.953125 58.742188 165.78125 58.660156 165.664062 58.554688 C 163.800781 57.027344 162.402344 58.316406 160.65625 57.628906 C 158.558594 56.824219 157.160156 54.230469 154.710938 53.980469 C 152.5 53.753906 150.402344 56.351562 148.539062 55.617188 C 139.390625 52.082031 136.304688 41.910156 123.605469 44.292969 C 119.121094 45.125 106.011719 56.859375 105.546875 61.449219 C 105.199219 65.027344 111.023438 73.292969 108.226562 74.53125 C 105.605469 75.691406 103.625 73.742188 100.945312 73.992188 C 99.898438 74.097656 99.253906 75.558594 98.324219 75.652344 C 97.972656 75.679688 92.964844 68.300781 91.042969 67.390625 C 85.683594 64.832031 78.925781 71.160156 76.421875 74.21875 C 75.082031 75.855469 69.664062 73.367188 68.441406 78.832031 C 68.378906 79.117188 69.78125 79.386719 69.78125 79.386719 Z M 69.78125 79.386719 " clip-rule="evenodd"/></clipPath><clipPath id="a04b49394c"><path d="M 42.34375 52 L 262.332031 52 L 262.332031 114.804688 L 42.34375 114.804688 Z M 42.34375 52 " clip-rule="nonzero"/></clipPath><clipPath id="7127373d80"><path d="M 69.78125 79.386719 C 69.253906 81.941406 62.03125 79.007812 60.285156 79.78125 C 54.515625 82.328125 57.894531 88.9375 56.089844 89.480469 C 52.710938 90.507812 45.023438 89.671875 42.515625 92.695312 C 41.933594 93.4375 44.4375 93.082031 45.371094 93.128906 C 47.875 93.242188 50.441406 92.503906 52.945312 92.941406 C 55.800781 93.441406 58.1875 95.265625 61.21875 95.3125 C 65.585938 95.382812 69.488281 93.152344 73.742188 94.125 C 74.03125 94.199219 73.855469 94.425781 73.972656 94.628906 C 74.265625 95.292969 67.15625 98.5625 66.519531 101.300781 C 66.050781 103.433594 71.121094 106.363281 72.691406 107.03125 C 75.835938 108.414062 94.539062 110.636719 98.265625 110.574219 C 101.585938 110.515625 106.480469 107.246094 109.449219 107.933594 C 116.03125 109.460938 117.605469 111.65625 126.109375 111.792969 C 130.070312 111.855469 136.65625 106.898438 139.972656 108.199219 C 144.167969 109.8125 146.035156 113.503906 150.925781 114.355469 C 158.558594 115.671875 167.472656 112.257812 175.042969 111.535156 C 178.710938 111.191406 181.566406 108.117188 184.886719 107.796875 C 186.75 107.621094 187.277344 110.316406 189.375 110.535156 C 191.355469 110.742188 193.800781 109.285156 195.78125 109.746094 C 200.90625 110.933594 206.734375 111.097656 212.265625 109.9375 C 214.886719 109.398438 216.578125 107.125 219.316406 106.460938 C 221.292969 105.984375 223.917969 107.820312 226.132812 107.921875 C 230.558594 108.132812 233.820312 106.34375 237.199219 104.242188 C 241.800781 101.351562 249.257812 102.214844 254.324219 101.738281 C 254.964844 101.679688 262.363281 101.375 262.304688 100.980469 C 262.246094 100.195312 248.5 99 247.570312 96.769531 C 244.714844 90.4375 237.839844 89.527344 237.316406 88.613281 C 235.742188 86.148438 237.375 80.597656 230.675781 78.011719 C 227.53125 76.789062 224.035156 78.710938 221.355469 77.667969 C 212.265625 74.164062 209.296875 62.910156 198.285156 62.132812 C 193.976562 61.824219 189.429688 63.546875 186.402344 66.414062 C 183.550781 69.121094 181.917969 75.128906 176.964844 73.980469 C 175.160156 73.570312 173.355469 70.695312 171.78125 69.734375 C 170.730469 69.085938 166.652344 69.34375 166.246094 68.328125 C 165.488281 66.621094 169.917969 63.652344 166.015625 58.875 C 165.953125 58.742188 165.78125 58.660156 165.664062 58.554688 C 163.800781 57.027344 162.402344 58.316406 160.65625 57.628906 C 158.558594 56.824219 157.160156 54.230469 154.710938 53.980469 C 152.5 53.753906 150.402344 56.351562 148.539062 55.617188 C 139.390625 52.082031 136.304688 41.910156 123.605469 44.292969 C 119.121094 45.125 106.011719 56.859375 105.546875 61.449219 C 105.199219 65.027344 111.023438 73.292969 108.226562 74.53125 C 105.605469 75.691406 103.625 73.742188 100.945312 73.992188 C 99.898438 74.097656 99.253906 75.558594 98.324219 75.652344 C 97.972656 75.679688 92.964844 68.300781 91.042969 67.390625 C 85.683594 64.832031 78.925781 71.160156 76.421875 74.21875 C 75.082031 75.855469 69.664062 73.367188 68.441406 78.832031 C 68.378906 79.117188 69.78125 79.386719 69.78125 79.386719 Z M 69.78125 79.386719 " clip-rule="evenodd"/></clipPath><clipPath id="154b343a27"><path d="M 154 91 L 180 91 L 180 101 L 154 101 Z M 154 91 " clip-rule="nonzero"/></clipPath><clipPath id="9d15ee705b"><path d="M 69.78125 79.386719 C 69.253906 81.941406 62.03125 79.007812 60.285156 79.78125 C 54.515625 82.328125 57.894531 88.9375 56.089844 89.480469 C 52.710938 90.507812 45.023438 89.671875 42.515625 92.695312 C 41.933594 93.4375 44.4375 93.082031 45.371094 93.128906 C 47.875 93.242188 50.441406 92.503906 52.945312 92.941406 C 55.800781 93.441406 58.1875 95.265625 61.21875 95.3125 C 65.585938 95.382812 69.488281 93.152344 73.742188 94.125 C 74.03125 94.199219 73.855469 94.425781 73.972656 94.628906 C 74.265625 95.292969 67.15625 98.5625 66.519531 101.300781 C 66.050781 103.433594 71.121094 106.363281 72.691406 107.03125 C 75.835938 108.414062 94.539062 110.636719 98.265625 110.574219 C 101.585938 110.515625 106.480469 107.246094 109.449219 107.933594 C 116.03125 109.460938 117.605469 111.65625 126.109375 111.792969 C 130.070312 111.855469 136.65625 106.898438 139.972656 108.199219 C 144.167969 109.8125 146.035156 113.503906 150.925781 114.355469 C 158.558594 115.671875 167.472656 112.257812 175.042969 111.535156 C 178.710938 111.191406 181.566406 108.117188 184.886719 107.796875 C 186.75 107.621094 187.277344 110.316406 189.375 110.535156 C 191.355469 110.742188 193.800781 109.285156 195.78125 109.746094 C 200.90625 110.933594 206.734375 111.097656 212.265625 109.9375 C 214.886719 109.398438 216.578125 107.125 219.316406 106.460938 C 221.292969 105.984375 223.917969 107.820312 226.132812 107.921875 C 230.558594 108.132812 233.820312 106.34375 237.199219 104.242188 C 241.800781 101.351562 249.257812 102.214844 254.324219 101.738281 C 254.964844 101.679688 262.363281 101.375 262.304688 100.980469 C 262.246094 100.195312 248.5 99 247.570312 96.769531 C 244.714844 90.4375 237.839844 89.527344 237.316406 88.613281 C 235.742188 86.148438 237.375 80.597656 230.675781 78.011719 C 227.53125 76.789062 224.035156 78.710938 221.355469 77.667969 C 212.265625 74.164062 209.296875 62.910156 198.285156 62.132812 C 193.976562 61.824219 189.429688 63.546875 186.402344 66.414062 C 183.550781 69.121094 181.917969 75.128906 176.964844 73.980469 C 175.160156 73.570312 173.355469 70.695312 171.78125 69.734375 C 170.730469 69.085938 166.652344 69.34375 166.246094 68.328125 C 165.488281 66.621094 169.917969 63.652344 166.015625 58.875 C 165.953125 58.742188 165.78125 58.660156 165.664062 58.554688 C 163.800781 57.027344 162.402344 58.316406 160.65625 57.628906 C 158.558594 56.824219 157.160156 54.230469 154.710938 53.980469 C 152.5 53.753906 150.402344 56.351562 148.539062 55.617188 C 139.390625 52.082031 136.304688 41.910156 123.605469 44.292969 C 119.121094 45.125 106.011719 56.859375 105.546875 61.449219 C 105.199219 65.027344 111.023438 73.292969 108.226562 74.53125 C 105.605469 75.691406 103.625 73.742188 100.945312 73.992188 C 99.898438 74.097656 99.253906 75.558594 98.324219 75.652344 C 97.972656 75.679688 92.964844 68.300781 91.042969 67.390625 C 85.683594 64.832031 78.925781 71.160156 76.421875 74.21875 C 75.082031 75.855469 69.664062 73.367188 68.441406 78.832031 C 68.378906 79.117188 69.78125 79.386719 69.78125 79.386719 Z M 69.78125 79.386719 " clip-rule="evenodd"/></clipPath><clipPath id="339285915a"><path d="M 957.828125 16 L 1024 16 L 1024 78 L 957.828125 78 Z M 957.828125 16 " clip-rule="nonzero"/></clipPath><clipPath id="2b039b0c25"><path d="M 957.828125 23 L 1024 23 L 1024 77.996094 L 957.828125 77.996094 Z M 957.828125 23 " clip-rule="nonzero"/></clipPath><clipPath id="22a1519d31"><path d="M 1125.46875 47.167969 C 1125.925781 49.394531 1132.210938 46.839844 1133.730469 47.511719 C 1138.753906 49.730469 1135.8125 55.484375 1137.382812 55.957031 C 1140.324219 56.847656 1147.019531 56.121094 1149.199219 58.753906 C 1149.703125 59.398438 1147.523438 59.089844 1146.714844 59.128906 C 1144.53125 59.230469 1142.300781 58.585938 1140.121094 58.96875 C 1137.636719 59.402344 1135.558594 60.992188 1132.921875 61.03125 C 1129.117188 61.09375 1125.722656 59.148438 1122.019531 59.996094 C 1121.765625 60.0625 1121.917969 60.261719 1121.816406 60.4375 C 1121.5625 61.015625 1127.75 63.859375 1128.308594 66.242188 C 1128.710938 68.101562 1124.300781 70.648438 1122.933594 71.234375 C 1120.191406 72.433594 1103.917969 74.371094 1100.671875 74.316406 C 1097.78125 74.265625 1093.523438 71.421875 1090.9375 72.019531 C 1085.207031 73.347656 1083.835938 75.257812 1076.433594 75.375 C 1072.984375 75.433594 1067.257812 71.117188 1064.367188 72.246094 C 1060.714844 73.652344 1059.09375 76.867188 1054.832031 77.605469 C 1048.191406 78.753906 1040.433594 75.78125 1033.839844 75.152344 C 1030.648438 74.855469 1028.160156 72.175781 1025.273438 71.898438 C 1023.648438 71.746094 1023.191406 74.09375 1021.367188 74.28125 C 1019.640625 74.464844 1017.511719 73.195312 1015.789062 73.597656 C 1011.328125 74.628906 1006.257812 74.773438 1001.441406 73.761719 C 999.160156 73.292969 997.6875 71.316406 995.304688 70.738281 C 993.578125 70.320312 991.296875 71.917969 989.371094 72.007812 C 985.519531 72.191406 982.679688 70.636719 979.738281 68.804688 C 975.730469 66.289062 969.242188 67.039062 964.828125 66.625 C 964.269531 66.574219 957.832031 66.308594 957.882812 65.964844 C 957.933594 65.28125 969.898438 64.242188 970.710938 62.296875 C 973.195312 56.785156 979.179688 55.996094 979.636719 55.199219 C 981.003906 53.054688 979.585938 48.222656 985.414062 45.972656 C 988.152344 44.90625 991.195312 46.578125 993.527344 45.671875 C 1001.441406 42.625 1004.023438 32.828125 1013.609375 32.148438 C 1017.359375 31.878906 1021.316406 33.382812 1023.953125 35.875 C 1026.4375 38.234375 1027.855469 43.460938 1032.167969 42.460938 C 1033.738281 42.109375 1035.3125 39.601562 1036.679688 38.765625 C 1037.59375 38.203125 1041.140625 38.425781 1041.496094 37.542969 C 1042.15625 36.058594 1038.304688 33.472656 1041.699219 29.3125 C 1041.75 29.199219 1041.902344 29.125 1042.003906 29.035156 C 1043.625 27.707031 1044.84375 28.828125 1046.367188 28.230469 C 1048.191406 27.53125 1049.40625 25.273438 1051.535156 25.054688 C 1053.464844 24.855469 1055.289062 27.117188 1056.910156 26.480469 C 1064.875 23.402344 1067.558594 14.546875 1078.613281 16.621094 C 1082.519531 17.347656 1093.925781 27.558594 1094.332031 31.554688 C 1094.636719 34.667969 1089.566406 41.863281 1092 42.945312 C 1094.28125 43.953125 1096.007812 42.253906 1098.339844 42.472656 C 1099.25 42.5625 1099.808594 43.835938 1100.621094 43.917969 C 1100.925781 43.941406 1105.285156 37.519531 1106.960938 36.726562 C 1111.625 34.5 1117.503906 40.007812 1119.6875 42.671875 C 1120.851562 44.09375 1125.566406 41.929688 1126.632812 46.6875 C 1126.683594 46.933594 1125.46875 47.167969 1125.46875 47.167969 Z M 1125.46875 47.167969 " clip-rule="evenodd"/></clipPath><clipPath id="0434e48124"><path d="M 469 178 L 587 178 L 587 201.847656 L 469 201.847656 Z M 469 178 " clip-rule="nonzero"/></clipPath><clipPath id="e8cbd36ab6"><path d="M 475.621094 184.402344 C 473.078125 183.574219 466.75 187.140625 469.011719 190.128906 C 469.9375 191.300781 472.15625 191.851562 473.542969 192.179688 C 475.113281 192.558594 478.71875 191.445312 479.917969 192.253906 C 482.460938 194 484.816406 194.660156 487.960938 195.269531 C 489.761719 195.617188 491.75 196.242188 493.597656 196.042969 C 495.078125 195.875 497.710938 197.4375 499.28125 197.769531 C 502.101562 198.386719 505.152344 198.867188 508.015625 198.972656 C 511.019531 199.078125 515.132812 199.425781 518.230469 198.9375 C 519.0625 198.8125 519.984375 198.675781 520.726562 198.316406 C 521.050781 198.15625 521.558594 197.070312 521.972656 197.367188 C 529.644531 202.628906 542.816406 203.015625 550.207031 197.402344 C 550.394531 197.25 554.507812 198.46875 555.015625 198.539062 C 558.945312 199.078125 561.207031 198.894531 564.027344 196.742188 C 564.257812 196.566406 566.800781 197.257812 566.984375 197.304688 C 569.710938 197.886719 572.621094 198.46875 575.394531 198.617188 C 577.152344 198.703125 578.722656 198.34375 580.203125 197.511719 C 582.835938 196.042969 583.066406 193.082031 584.082031 192.304688 C 586.117188 190.765625 590.414062 189.800781 589.722656 186.214844 C 588.980469 182.175781 582.742188 184.789062 581.402344 184.113281 C 581.078125 183.960938 581.078125 182.773438 580.800781 182.441406 C 579.738281 180.988281 577.199219 179.886719 575.488281 179.476562 C 574.65625 179.277344 573.363281 179.019531 572.53125 179.070312 C 572.160156 179.089844 571.097656 179.738281 571.003906 179.660156 C 569.757812 178.828125 569.019531 176.699219 567.722656 175.699219 C 566.152344 174.550781 564.167969 173.910156 562.457031 173.070312 C 561.394531 172.546875 559.867188 171.875 558.667969 171.910156 C 558.34375 171.917969 556.863281 172.359375 556.816406 172.296875 C 556.03125 171.234375 556.078125 169.429688 555.15625 168.242188 C 551.550781 163.496094 543.417969 159.816406 537.59375 160.25 C 534.683594 160.472656 530.847656 162.183594 529.042969 164.507812 C 528.535156 165.121094 526.777344 169.453125 526.085938 169.6875 C 525.070312 170.039062 521.882812 168.476562 520.679688 168.308594 C 517.535156 167.886719 514.300781 168.769531 511.484375 170.246094 C 510.003906 171.03125 508.292969 172.894531 507.417969 174.316406 C 506.816406 175.285156 507.417969 177.15625 506.351562 177.519531 C 505.613281 177.769531 503.625 176.863281 502.75 176.867188 C 500.855469 176.882812 499.929688 178.605469 498.726562 179.507812 C 498.128906 179.964844 492.535156 176.5 490.132812 175.78125 C 483.339844 173.757812 479.179688 177.992188 476.5 183.488281 C 476.359375 183.714844 475.621094 184.402344 475.621094 184.402344 Z M 475.621094 184.402344 " clip-rule="evenodd"/></clipPath><clipPath id="cc96db4d29"><path d="M 530 165 L 552 165 L 552 181 L 530 181 Z M 530 165 " clip-rule="nonzero"/></clipPath><clipPath id="679dd7ef50"><path d="M 475.621094 184.402344 C 473.078125 183.574219 466.75 187.140625 469.011719 190.128906 C 469.9375 191.300781 472.15625 191.851562 473.542969 192.179688 C 475.113281 192.558594 478.71875 191.445312 479.917969 192.253906 C 482.460938 194 484.816406 194.660156 487.960938 195.269531 C 489.761719 195.617188 491.75 196.242188 493.597656 196.042969 C 495.078125 195.875 497.710938 197.4375 499.28125 197.769531 C 502.101562 198.386719 505.152344 198.867188 508.015625 198.972656 C 511.019531 199.078125 515.132812 199.425781 518.230469 198.9375 C 519.0625 198.8125 519.984375 198.675781 520.726562 198.316406 C 521.050781 198.15625 521.558594 197.070312 521.972656 197.367188 C 529.644531 202.628906 542.816406 203.015625 550.207031 197.402344 C 550.394531 197.25 554.507812 198.46875 555.015625 198.539062 C 558.945312 199.078125 561.207031 198.894531 564.027344 196.742188 C 564.257812 196.566406 566.800781 197.257812 566.984375 197.304688 C 569.710938 197.886719 572.621094 198.46875 575.394531 198.617188 C 577.152344 198.703125 578.722656 198.34375 580.203125 197.511719 C 582.835938 196.042969 583.066406 193.082031 584.082031 192.304688 C 586.117188 190.765625 590.414062 189.800781 589.722656 186.214844 C 588.980469 182.175781 582.742188 184.789062 581.402344 184.113281 C 581.078125 183.960938 581.078125 182.773438 580.800781 182.441406 C 579.738281 180.988281 577.199219 179.886719 575.488281 179.476562 C 574.65625 179.277344 573.363281 179.019531 572.53125 179.070312 C 572.160156 179.089844 571.097656 179.738281 571.003906 179.660156 C 569.757812 178.828125 569.019531 176.699219 567.722656 175.699219 C 566.152344 174.550781 564.167969 173.910156 562.457031 173.070312 C 561.394531 172.546875 559.867188 171.875 558.667969 171.910156 C 558.34375 171.917969 556.863281 172.359375 556.816406 172.296875 C 556.03125 171.234375 556.078125 169.429688 555.15625 168.242188 C 551.550781 163.496094 543.417969 159.816406 537.59375 160.25 C 534.683594 160.472656 530.847656 162.183594 529.042969 164.507812 C 528.535156 165.121094 526.777344 169.453125 526.085938 169.6875 C 525.070312 170.039062 521.882812 168.476562 520.679688 168.308594 C 517.535156 167.886719 514.300781 168.769531 511.484375 170.246094 C 510.003906 171.03125 508.292969 172.894531 507.417969 174.316406 C 506.816406 175.285156 507.417969 177.15625 506.351562 177.519531 C 505.613281 177.769531 503.625 176.863281 502.75 176.867188 C 500.855469 176.882812 499.929688 178.605469 498.726562 179.507812 C 498.128906 179.964844 492.535156 176.5 490.132812 175.78125 C 483.339844 173.757812 479.179688 177.992188 476.5 183.488281 C 476.359375 183.714844 475.621094 184.402344 475.621094 184.402344 Z M 475.621094 184.402344 " clip-rule="evenodd"/></clipPath></defs><g clip-path="url(#abc0e92aaf)"><path fill="#f2c994" d="M 801.585938 121.832031 C 800.332031 119.828125 800.546875 117.09375 802.097656 115.28125 C 803.652344 113.472656 806.4375 112.703125 808.78125 113.4375 C 808.777344 111.613281 810.050781 109.839844 811.851562 109.171875 C 813.652344 108.5 815.863281 108.972656 817.179688 110.3125 C 817.5625 106.371094 822.707031 103.917969 826.671875 105.199219 C 830.640625 106.480469 833.085938 110.5 833.347656 114.449219 C 834.035156 112.953125 836.71875 113.171875 837.808594 114.433594 C 838.902344 113.097656 840.855469 112.089844 842.457031 112.847656 C 844.058594 113.601562 844.949219 115.488281 844.476562 117.117188 C 848.066406 113.914062 854.875 115.164062 856.9375 119.398438 C 858.722656 115.113281 863.773438 112.085938 868.574219 112.914062 C 873.378906 113.746094 877.046875 118.777344 875.648438 123.1875 C 877.84375 121.902344 882.515625 121.589844 883.8125 124.257812 C 885.003906 126.714844 881.359375 130.464844 874.699219 130.910156 C 874.613281 130.914062 871.417969 135.621094 864.5 136.539062 C 858.316406 137.359375 852.457031 134.492188 849.632812 130.601562 C 849.308594 134.082031 844.859375 134.667969 842.917969 132.976562 C 840.121094 137.132812 834.226562 139.171875 829.246094 137.707031 C 826.820312 140.097656 822.828125 140.941406 819.554688 139.753906 C 816.277344 138.5625 813.914062 135.417969 813.808594 132.109375 C 812.722656 133.488281 811.132812 134.632812 809.316406 134.757812 C 807.5 134.882812 805.535156 133.707031 805.320312 132 C 803.1875 133.121094 800.589844 133.589844 798.265625 132.886719 C 795.941406 132.1875 793.8125 130.179688 793.890625 127.878906 C 794.082031 122.425781 801.585938 121.832031 801.585938 121.832031 Z M 801.585938 121.832031 " fill-opacity="1" fill-rule="nonzero"/></g><path fill="#f2c994" d="M 883.851562 124.351562 C 883.144531 125.785156 880.9375 126.988281 878.820312 127.433594 C 876.214844 127.980469 873.878906 127.5 873.878906 127.5 C 873.878906 127.5 870.3125 130.246094 863.792969 131.136719 C 854.570312 132.398438 847.324219 122.902344 847.324219 122.902344 C 847.324219 122.902344 846.914062 125.785156 844.648438 126.195312 C 842.386719 126.609375 840.738281 123.933594 840.738281 123.933594 C 836.828125 131.550781 829.828125 127.636719 829.828125 127.636719 C 823.035156 135.460938 815.214844 127.226562 815.214844 127.226562 C 810.890625 133.195312 807.800781 127.84375 807.800781 127.84375 C 807.800781 127.84375 804.714844 128.667969 804.097656 126.195312 C 803.480469 123.726562 808.007812 122.285156 808.007812 122.285156 C 800.390625 118.167969 808.78125 113.4375 808.78125 113.4375 C 808.78125 113.308594 808.789062 113.179688 808.800781 113.050781 C 808.960938 111.367188 810.175781 109.792969 811.851562 109.171875 C 813.652344 108.5 815.863281 108.972656 817.179688 110.3125 C 817.5625 106.371094 822.703125 103.917969 826.671875 105.199219 C 830.640625 106.480469 833.085938 110.5 833.347656 114.449219 C 834.035156 112.953125 836.71875 113.171875 837.808594 114.433594 C 838.902344 113.097656 840.855469 112.089844 842.457031 112.847656 C 844.058594 113.601562 844.949219 115.488281 844.476562 117.117188 C 848.066406 113.914062 854.875 115.164062 856.9375 119.398438 C 858.722656 115.113281 863.773438 112.085938 868.574219 112.914062 C 873.378906 113.746094 877.046875 118.777344 875.648438 123.1875 C 877.84375 121.902344 882.515625 121.59375 883.8125 124.257812 C 883.824219 124.289062 883.835938 124.320312 883.851562 124.351562 Z M 883.851562 124.351562 " fill-opacity="1" fill-rule="nonzero"/><g clip-path="url(#4461f58aa0)"><path fill="#f2c994" d="M 69.78125 79.386719 C 69.253906 81.941406 62.03125 79.007812 60.285156 79.78125 C 54.515625 82.328125 57.894531 88.9375 56.089844 89.480469 C 52.710938 90.507812 45.023438 89.671875 42.519531 92.695312 C 41.933594 93.4375 44.441406 93.082031 45.371094 93.128906 C 47.875 93.242188 50.441406 92.503906 52.945312 92.941406 C 55.800781 93.441406 58.1875 95.265625 61.214844 95.3125 C 65.585938 95.382812 69.488281 93.152344 73.742188 94.125 C 74.03125 94.199219 73.859375 94.425781 73.972656 94.628906 C 74.265625 95.292969 67.160156 98.5625 66.519531 101.300781 C 66.050781 103.433594 71.121094 106.363281 72.691406 107.03125 C 75.839844 108.414062 94.539062 110.636719 98.265625 110.574219 C 101.585938 110.515625 106.480469 107.246094 109.449219 107.933594 C 116.03125 109.460938 117.605469 111.65625 126.109375 111.792969 C 130.070312 111.855469 136.65625 106.898438 139.976562 108.199219 C 144.167969 109.8125 146.03125 113.503906 150.925781 114.355469 C 158.558594 115.671875 167.472656 112.257812 175.042969 111.535156 C 178.714844 111.191406 181.566406 108.117188 184.886719 107.796875 C 186.753906 107.621094 187.277344 110.316406 189.375 110.535156 C 191.355469 110.742188 193.800781 109.285156 195.78125 109.746094 C 200.90625 110.933594 206.730469 111.097656 212.265625 109.9375 C 214.886719 109.398438 216.578125 107.125 219.316406 106.460938 C 221.296875 105.984375 223.917969 107.820312 226.132812 107.921875 C 230.558594 108.132812 233.820312 106.34375 237.199219 104.242188 C 241.800781 101.351562 249.257812 102.214844 254.324219 101.738281 C 254.964844 101.679688 262.363281 101.375 262.304688 100.980469 C 262.25 100.195312 248.5 99 247.570312 96.769531 C 244.714844 90.4375 237.839844 89.527344 237.316406 88.613281 C 235.742188 86.148438 237.375 80.597656 230.675781 78.011719 C 227.527344 76.789062 224.035156 78.710938 221.355469 77.667969 C 212.265625 74.164062 209.296875 62.910156 198.285156 62.132812 C 193.976562 61.820312 189.433594 63.546875 186.402344 66.414062 C 183.546875 69.121094 181.917969 75.128906 176.964844 73.980469 C 175.160156 73.570312 173.355469 70.695312 171.78125 69.734375 C 170.734375 69.085938 166.65625 69.34375 166.246094 68.328125 C 165.488281 66.621094 169.917969 63.652344 166.015625 58.875 C 165.957031 58.742188 165.78125 58.660156 165.664062 58.554688 C 163.800781 57.027344 162.402344 58.316406 160.65625 57.628906 C 158.558594 56.824219 157.160156 54.230469 154.710938 53.980469 C 152.5 53.753906 150.402344 56.351562 148.539062 55.617188 C 139.390625 52.082031 136.304688 41.910156 123.605469 44.292969 C 119.121094 45.125 106.015625 56.859375 105.546875 61.449219 C 105.199219 65.027344 111.023438 73.292969 108.226562 74.53125 C 105.605469 75.691406 103.625 73.742188 100.945312 73.992188 C 99.898438 74.097656 99.253906 75.558594 98.324219 75.652344 C 97.972656 75.679688 92.964844 68.300781 91.042969 67.390625 C 85.683594 64.832031 78.925781 71.160156 76.421875 74.21875 C 75.082031 75.855469 69.664062 73.367188 68.441406 78.832031 C 68.382812 79.117188 69.78125 79.386719 69.78125 79.386719 Z M 69.78125 79.386719 " fill-opacity="1" fill-rule="evenodd"/></g><g clip-path="url(#86680a8c3f)"><g clip-path="url(#2d9414b0b3)"><path fill="#f2c994" d="M 101.179688 59.199219 C 98.324219 62.160156 106.421875 67.476562 108.691406 67.824219 C 110.265625 68.0625 111.722656 66.664062 113.003906 66.539062 C 113.46875 66.492188 111.664062 69.273438 111.722656 69.988281 C 111.78125 70.800781 113.527344 71.871094 114.226562 72.027344 C 115.972656 72.441406 118.421875 73.117188 120.285156 73.203125 C 120.460938 73.214844 122.5 72.824219 122.554688 73.164062 C 122.730469 75.195312 117.199219 76.390625 116.03125 76.410156 C 111.429688 76.492188 93.78125 70.414062 99.082031 64.011719 C 99.722656 63.195312 101.179688 59.199219 101.179688 59.199219 Z M 101.179688 59.199219 " fill-opacity="1" fill-rule="evenodd"/></g></g><g clip-path="url(#a04b49394c)"><g clip-path="url(#7127373d80)"><path fill="#f2c994" d="M 163.800781 54.570312 C 158.558594 60.878906 159.898438 65.707031 150.867188 71.003906 C 148.246094 72.546875 144.34375 74.457031 141.199219 74.542969 C 140.558594 74.5625 136.304688 73.546875 135.78125 74.1875 C 135.488281 74.527344 141.140625 76.996094 141.664062 77.132812 C 144.050781 77.785156 157.859375 75.953125 157.742188 80.851562 C 157.683594 86.027344 151.742188 86.085938 148.65625 88.367188 C 147.257812 89.410156 148.015625 91.515625 146.265625 92.796875 C 143.585938 94.765625 137.238281 94.238281 134.089844 95.183594 C 130.304688 96.320312 128.847656 99.722656 125.9375 101.554688 C 124.59375 102.382812 123.257812 99.238281 123.023438 98.503906 C 121.507812 94.222656 120.578125 88.933594 114.109375 89.542969 C 112.480469 89.703125 109.972656 93 109.683594 92.941406 C 106.769531 92.269531 102.75 88.542969 99.546875 90.929688 C 96.226562 93.382812 100.59375 97.082031 95.46875 98.144531 C 93.722656 98.511719 86.148438 97.554688 85.101562 95.625 C 83.46875 92.636719 88.59375 90.511719 87.546875 88.042969 C 86.265625 85.203125 82.011719 90.839844 80.265625 91.007812 C 77.820312 91.234375 76.710938 85.878906 75.429688 84.460938 C 73.449219 82.113281 70.070312 84.675781 69.023438 82.96875 C 67.042969 79.769531 71.003906 74.789062 66.285156 72.378906 C 58.476562 68.40625 36.226562 83.742188 39.722656 93.621094 C 44.382812 106.617188 68.554688 112.351562 79.972656 115.71875 C 84.460938 117.027344 88.710938 119.660156 93.199219 120.699219 C 102.578125 122.871094 114.75 119.738281 124.539062 119.902344 C 139.625 120.152344 155.121094 121.375 170.207031 119.941406 C 176.207031 119.375 182.148438 115.5625 187.976562 115.457031 C 197.878906 115.273438 207.488281 116.246094 217.394531 117.039062 C 232.421875 118.25 245.996094 115.980469 259.800781 110.21875 C 262.714844 108.996094 272.792969 106.296875 272.847656 101.800781 C 272.910156 97.957031 268.714844 95.492188 266.09375 93.335938 C 259.335938 87.757812 253.625 82.25 243.492188 87.78125 C 238.25 90.632812 235.335938 102.476562 228.226562 96.582031 C 227.179688 95.707031 229.101562 91.171875 228.578125 91.117188 C 225.722656 90.820312 220.773438 93.496094 219.78125 88.972656 C 218.847656 84.515625 227.9375 73.710938 219.839844 71.113281 C 209.355469 67.746094 214.1875 77.597656 212.847656 80.351562 C 211.976562 82.214844 209.179688 81.367188 207.78125 82.238281 C 206.558594 82.996094 208.597656 86.121094 207.957031 87.476562 C 206.964844 89.476562 203.238281 90.769531 201.316406 91.605469 C 193.160156 95.21875 189.722656 89.957031 186.050781 84.121094 C 184.65625 81.855469 180.167969 83.03125 179.878906 79.628906 C 179.351562 73.925781 181.453125 69.539062 177.546875 64.269531 C 174.402344 59.976562 167.703125 57.332031 165.546875 52.449219 C 165.371094 51.949219 163.800781 54.570312 163.800781 54.570312 Z M 163.800781 54.570312 " fill-opacity="1" fill-rule="evenodd"/></g></g><g clip-path="url(#154b343a27)"><g clip-path="url(#9d15ee705b)"><path fill="#f2c994" d="M 173.527344 92.398438 C 170.441406 88.339844 162.75 94.34375 160.015625 95.171875 C 159.140625 95.429688 154.074219 93.984375 154.886719 96.710938 C 155.644531 99.285156 171.957031 100.933594 174.808594 100.070312 C 178.945312 98.820312 180.867188 95.796875 177.082031 92.679688 C 176.558594 92.222656 173.527344 92.398438 173.527344 92.398438 Z M 173.527344 92.398438 " fill-opacity="1" fill-rule="evenodd"/></g></g><g clip-path="url(#339285915a)"><path fill="#f2c994" d="M 1125.46875 47.167969 C 1125.925781 49.394531 1132.210938 46.839844 1133.730469 47.511719 C 1138.753906 49.730469 1135.8125 55.484375 1137.382812 55.957031 C 1140.324219 56.847656 1147.015625 56.121094 1149.199219 58.753906 C 1149.703125 59.398438 1147.523438 59.089844 1146.714844 59.128906 C 1144.53125 59.230469 1142.300781 58.585938 1140.121094 58.96875 C 1137.636719 59.402344 1135.558594 60.992188 1132.921875 61.03125 C 1129.117188 61.09375 1125.722656 59.148438 1122.019531 59.996094 C 1121.765625 60.0625 1121.917969 60.261719 1121.816406 60.4375 C 1121.5625 61.015625 1127.75 63.859375 1128.308594 66.242188 C 1128.714844 68.101562 1124.300781 70.648438 1122.933594 71.234375 C 1120.195312 72.433594 1103.917969 74.371094 1100.671875 74.316406 C 1097.78125 74.265625 1093.523438 71.421875 1090.9375 72.019531 C 1085.207031 73.347656 1083.835938 75.257812 1076.433594 75.375 C 1072.984375 75.433594 1067.257812 71.117188 1064.367188 72.246094 C 1060.714844 73.652344 1059.09375 76.867188 1054.832031 77.605469 C 1048.191406 78.753906 1040.433594 75.78125 1033.839844 75.152344 C 1030.644531 74.855469 1028.160156 72.175781 1025.273438 71.898438 C 1023.648438 71.746094 1023.191406 74.09375 1021.367188 74.28125 C 1019.640625 74.464844 1017.511719 73.195312 1015.789062 73.597656 C 1011.328125 74.628906 1006.257812 74.773438 1001.441406 73.761719 C 999.15625 73.292969 997.6875 71.316406 995.304688 70.738281 C 993.582031 70.320312 991.296875 71.917969 989.371094 72.007812 C 985.515625 72.191406 982.679688 70.636719 979.738281 68.804688 C 975.730469 66.289062 969.242188 67.039062 964.828125 66.625 C 964.269531 66.574219 957.832031 66.308594 957.882812 65.964844 C 957.933594 65.28125 969.898438 64.242188 970.710938 62.300781 C 973.195312 56.785156 979.179688 55.996094 979.636719 55.199219 C 981.003906 53.054688 979.585938 48.222656 985.414062 45.972656 C 988.152344 44.90625 991.195312 46.578125 993.527344 45.671875 C 1001.441406 42.625 1004.023438 32.828125 1013.609375 32.148438 C 1017.359375 31.878906 1021.316406 33.382812 1023.953125 35.875 C 1026.4375 38.234375 1027.855469 43.460938 1032.167969 42.460938 C 1033.738281 42.109375 1035.3125 39.601562 1036.679688 38.765625 C 1037.59375 38.203125 1041.140625 38.425781 1041.496094 37.542969 C 1042.15625 36.058594 1038.304688 33.472656 1041.699219 29.3125 C 1041.75 29.199219 1041.902344 29.125 1042.003906 29.035156 C 1043.628906 27.707031 1044.84375 28.828125 1046.363281 28.230469 C 1048.191406 27.53125 1049.40625 25.273438 1051.539062 25.054688 C 1053.464844 24.855469 1055.289062 27.117188 1056.910156 26.480469 C 1064.871094 23.402344 1067.558594 14.546875 1078.613281 16.621094 C 1082.519531 17.347656 1093.925781 27.558594 1094.332031 31.554688 C 1094.636719 34.667969 1089.566406 41.863281 1092 42.945312 C 1094.28125 43.953125 1096.007812 42.253906 1098.339844 42.472656 C 1099.25 42.5625 1099.808594 43.835938 1100.621094 43.917969 C 1100.925781 43.941406 1105.285156 37.519531 1106.960938 36.726562 C 1111.625 34.5 1117.503906 40.007812 1119.6875 42.671875 C 1120.851562 44.09375 1125.570312 41.929688 1126.632812 46.6875 C 1126.683594 46.933594 1125.46875 47.167969 1125.46875 47.167969 Z M 1125.46875 47.167969 " fill-opacity="1" fill-rule="evenodd"/></g><g clip-path="url(#2b039b0c25)"><g clip-path="url(#22a1519d31)"><path fill="#f2c994" d="M 1043.628906 25.566406 C 1048.191406 31.058594 1047.023438 35.261719 1054.882812 39.871094 C 1057.164062 41.214844 1060.5625 42.878906 1063.300781 42.953125 C 1063.859375 42.96875 1067.558594 42.085938 1068.015625 42.644531 C 1068.269531 42.9375 1063.351562 45.089844 1062.894531 45.207031 C 1060.816406 45.773438 1048.796875 44.179688 1048.902344 48.445312 C 1048.953125 52.949219 1054.121094 53 1056.8125 54.988281 C 1058.027344 55.894531 1057.367188 57.726562 1058.890625 58.839844 C 1061.222656 60.554688 1066.75 60.097656 1069.488281 60.917969 C 1072.785156 61.910156 1074.050781 64.871094 1076.585938 66.46875 C 1077.753906 67.1875 1078.917969 64.449219 1079.121094 63.808594 C 1080.441406 60.082031 1081.25 55.480469 1086.878906 56.011719 C 1088.300781 56.148438 1090.480469 59.019531 1090.734375 58.96875 C 1093.269531 58.382812 1096.769531 55.140625 1099.558594 57.21875 C 1102.445312 59.351562 1098.644531 62.574219 1103.105469 63.496094 C 1104.628906 63.816406 1111.21875 62.984375 1112.132812 61.304688 C 1113.550781 58.703125 1109.089844 56.851562 1110 54.703125 C 1111.117188 52.234375 1114.820312 57.136719 1116.339844 57.285156 C 1118.46875 57.480469 1119.433594 52.820312 1120.546875 51.585938 C 1122.273438 49.542969 1125.214844 51.773438 1126.125 50.285156 C 1127.851562 47.503906 1124.402344 43.167969 1128.507812 41.066406 C 1135.304688 37.609375 1154.675781 50.960938 1151.632812 59.5625 C 1147.574219 70.875 1126.53125 75.863281 1116.59375 78.792969 C 1112.6875 79.933594 1108.988281 82.226562 1105.082031 83.128906 C 1096.917969 85.019531 1086.320312 82.292969 1077.804688 82.433594 C 1064.671875 82.652344 1051.183594 83.71875 1038.050781 82.46875 C 1032.824219 81.976562 1027.65625 78.65625 1022.582031 78.566406 C 1013.964844 78.410156 1005.597656 79.253906 996.976562 79.945312 C 983.894531 81 972.082031 79.023438 960.0625 74.007812 C 957.527344 72.941406 948.753906 70.59375 948.707031 66.679688 C 948.652344 63.332031 952.304688 61.1875 954.585938 59.3125 C 960.46875 54.453125 965.4375 49.664062 974.261719 54.476562 C 978.824219 56.960938 981.359375 67.269531 987.546875 62.136719 C 988.457031 61.375 986.785156 57.425781 987.242188 57.378906 C 989.726562 57.121094 994.035156 59.449219 994.898438 55.515625 C 995.710938 51.636719 987.800781 42.230469 994.847656 39.96875 C 1003.976562 37.035156 999.765625 45.609375 1000.933594 48.011719 C 1001.691406 49.632812 1004.125 48.890625 1005.34375 49.652344 C 1006.410156 50.3125 1004.632812 53.03125 1005.191406 54.210938 C 1006.054688 55.949219 1009.300781 57.074219 1010.972656 57.804688 C 1018.070312 60.949219 1021.0625 56.371094 1024.257812 51.289062 C 1025.472656 49.316406 1029.378906 50.34375 1029.632812 47.382812 C 1030.089844 42.417969 1028.261719 38.597656 1031.660156 34.007812 C 1034.398438 30.273438 1040.230469 27.96875 1042.105469 23.722656 C 1042.257812 23.285156 1043.628906 25.566406 1043.628906 25.566406 Z M 1043.628906 25.566406 " fill-opacity="1" fill-rule="evenodd"/></g></g><path fill="#f2c994" d="M 475.621094 184.402344 C 473.078125 183.574219 466.75 187.140625 469.011719 190.128906 C 469.9375 191.300781 472.15625 191.851562 473.542969 192.179688 C 475.113281 192.558594 478.71875 191.445312 479.917969 192.253906 C 482.460938 194 484.816406 194.660156 487.960938 195.269531 C 489.761719 195.617188 491.75 196.242188 493.597656 196.042969 C 495.078125 195.875 497.710938 197.4375 499.28125 197.769531 C 502.101562 198.386719 505.152344 198.867188 508.015625 198.972656 C 511.019531 199.078125 515.132812 199.425781 518.230469 198.9375 C 519.0625 198.8125 519.984375 198.675781 520.726562 198.316406 C 521.046875 198.15625 521.558594 197.070312 521.972656 197.367188 C 529.644531 202.628906 542.816406 203.015625 550.210938 197.402344 C 550.394531 197.25 554.507812 198.46875 555.015625 198.539062 C 558.945312 199.078125 561.207031 198.894531 564.027344 196.742188 C 564.257812 196.566406 566.800781 197.257812 566.984375 197.304688 C 569.710938 197.886719 572.621094 198.46875 575.394531 198.617188 C 577.152344 198.703125 578.722656 198.34375 580.203125 197.511719 C 582.835938 196.042969 583.066406 193.082031 584.082031 192.304688 C 586.117188 190.765625 590.414062 189.800781 589.722656 186.214844 C 588.980469 182.175781 582.742188 184.789062 581.402344 184.113281 C 581.078125 183.960938 581.078125 182.773438 580.804688 182.441406 C 579.738281 180.988281 577.199219 179.886719 575.488281 179.476562 C 574.65625 179.277344 573.363281 179.019531 572.53125 179.070312 C 572.160156 179.089844 571.097656 179.738281 571.003906 179.660156 C 569.757812 178.828125 569.019531 176.699219 567.722656 175.699219 C 566.152344 174.550781 564.167969 173.910156 562.457031 173.070312 C 561.394531 172.546875 559.867188 171.875 558.667969 171.910156 C 558.34375 171.917969 556.863281 172.359375 556.816406 172.296875 C 556.03125 171.234375 556.078125 169.429688 555.15625 168.242188 C 551.550781 163.496094 543.414062 159.816406 537.59375 160.25 C 534.683594 160.472656 530.84375 162.183594 529.042969 164.507812 C 528.535156 165.121094 526.777344 169.453125 526.085938 169.6875 C 525.070312 170.039062 521.882812 168.476562 520.679688 168.308594 C 517.535156 167.886719 514.300781 168.769531 511.484375 170.246094 C 510.003906 171.03125 508.292969 172.894531 507.414062 174.316406 C 506.816406 175.285156 507.414062 177.15625 506.351562 177.519531 C 505.613281 177.769531 503.625 176.863281 502.75 176.867188 C 500.855469 176.882812 499.929688 178.605469 498.726562 179.507812 C 498.128906 179.964844 492.535156 176.5 490.132812 175.78125 C 483.339844 173.757812 479.179688 177.992188 476.5 183.488281 C 476.359375 183.714844 475.621094 184.402344 475.621094 184.402344 Z M 475.621094 184.402344 " fill-opacity="1" fill-rule="evenodd"/><g clip-path="url(#0434e48124)"><g clip-path="url(#e8cbd36ab6)"><path fill="#f2c994" d="M 471.136719 191.847656 C 472.523438 188.554688 477.886719 191.113281 479.964844 189.550781 C 480.425781 189.203125 480.335938 187.917969 480.566406 187.394531 C 482 184.53125 486.066406 183.601562 488.882812 183.75 C 489.808594 183.796875 497.339844 183.902344 497.109375 185.355469 C 497.109375 185.589844 495.816406 184.984375 493.414062 185.800781 C 492.859375 185.980469 491.519531 186.410156 491.980469 186.726562 C 492.859375 187.300781 495.445312 186.820312 496.464844 186.855469 C 499.882812 186.980469 503.394531 186.71875 506.816406 186.839844 C 507.414062 186.859375 510.328125 187.558594 510.742188 187.21875 C 511.390625 186.738281 507.691406 185.410156 509.125 183.960938 C 513.238281 179.8125 518.96875 177.113281 524.835938 178.929688 C 526.269531 179.386719 528.535156 179.9375 529.273438 181.453125 C 529.738281 182.464844 527.242188 181.570312 526.363281 181.695312 C 524.746094 181.925781 523.128906 182.421875 521.558594 182.949219 C 520.261719 183.386719 517.675781 186.339844 518.460938 185.71875 C 520.496094 184.183594 525.347656 186.097656 526.824219 187.660156 C 527.054688 187.910156 528.257812 189.929688 528.398438 189.953125 C 528.441406 189.957031 529.183594 189.035156 529.367188 188.964844 C 530.292969 188.566406 531.585938 188.425781 532.601562 188.453125 C 535.789062 188.53125 542.859375 190.332031 544.757812 192.832031 L 545.078125 192.871094 C 547.207031 192.46875 549.101562 190.613281 551.226562 189.882812 C 552.195312 189.558594 553.351562 189.410156 554.367188 189.351562 C 554.96875 189.3125 556.679688 189.804688 556.261719 189.296875 C 553.859375 186.140625 547.34375 189.667969 546.1875 189.511719 C 545.820312 189.460938 545.125 187.742188 544.894531 187.417969 C 544.15625 186.457031 542.769531 185.691406 541.613281 185.539062 C 540.964844 185.445312 538.933594 185.636719 539.582031 185.414062 C 545.957031 183.238281 549.792969 181.773438 556.773438 182.027344 C 558.757812 182.101562 561.625 182.09375 563.332031 183.085938 C 563.472656 183.160156 565.597656 184.636719 565.503906 184.65625 C 565.414062 184.675781 560.144531 184.628906 560.792969 185.445312 C 561.53125 186.445312 564.765625 186.644531 565.921875 187.582031 C 566.246094 187.84375 568.324219 191.09375 568.648438 190.828125 C 569.480469 190.210938 568.648438 187.480469 569.710938 186.667969 C 570.3125 186.214844 572.667969 186.910156 573.316406 187.003906 C 576.96875 187.496094 580.109375 188.191406 583.296875 189.960938 C 584.222656 190.457031 586.671875 191.019531 586.8125 192.355469 C 587.042969 194.484375 583.4375 196.734375 582.097656 197.769531 C 574.238281 203.710938 570.035156 203.617188 560.421875 203.109375 C 549.332031 202.523438 538.980469 206.152344 527.890625 206.476562 C 516.289062 206.820312 505.195312 204.332031 493.78125 202.765625 C 487.40625 201.898438 480.933594 201.808594 474.558594 200.9375 C 473.957031 200.855469 469.476562 199.332031 469.199219 199.5625 C 468.875 199.789062 471.136719 191.847656 471.136719 191.847656 Z M 471.136719 191.847656 " fill-opacity="1" fill-rule="evenodd"/></g></g><g clip-path="url(#cc96db4d29)"><g clip-path="url(#679dd7ef50)"><path fill="#f2c994" d="M 533.386719 175.488281 C 532.925781 175.386719 530.894531 174.050781 530.523438 174.605469 C 530.015625 175.316406 533.25 177.335938 533.757812 177.761719 C 534.035156 177.996094 535.789062 180.652344 535.929688 180.609375 C 537.640625 180.023438 539.027344 178.957031 540.921875 178.902344 C 541.523438 178.882812 542.214844 179.285156 542.539062 178.800781 C 543.691406 177.125 543.140625 175.898438 545.496094 174.582031 C 546.605469 173.980469 547.898438 173.179688 549.101562 172.839844 C 549.421875 172.75 551.917969 172.59375 551.78125 172.085938 C 549.191406 164.527344 535.191406 163 530.753906 169.527344 C 530.707031 169.570312 530.707031 169.632812 530.707031 169.683594 C 531.308594 171.457031 535.28125 172.449219 534.960938 174.890625 C 534.914062 175.21875 533.386719 175.488281 533.386719 175.488281 Z M 533.386719 175.488281 " fill-opacity="1" fill-rule="evenodd"/></g></g></svg>