<svg xmlns="http://www.w3.org/2000/svg" xmlns:xlink="http://www.w3.org/1999/xlink" width="1366" zoomAndPan="magnify" viewBox="0 0 1024.5 576" height="768" preserveAspectRatio="xMidYMid meet" version="1.0"><defs><clipPath id="9ec10ada13"><path d="M 389 262.980469 L 978.964844 262.980469 L 978.964844 372.058594 L 389 372.058594 Z M 389 262.980469 " clip-rule="nonzero"/></clipPath><clipPath id="3ddf2f5341"><path d="M 194.957031 307.714844 L 533.269531 307.714844 L 533.269531 370.152344 L 194.957031 370.152344 Z M 194.957031 307.714844 " clip-rule="nonzero"/></clipPath><clipPath id="54f4569860"><path d="M 0 262.980469 L 414.761719 262.980469 L 414.761719 372.058594 L 0 372.058594 Z M 0 262.980469 " clip-rule="nonzero"/></clipPath><clipPath id="05e2b5ad78"><path d="M 839.648438 309.574219 L 1024 309.574219 L 1024 372.011719 L 839.648438 372.011719 Z M 839.648438 309.574219 " clip-rule="nonzero"/></clipPath><clipPath id="19d34dd76f"><path d="M 1006 331 L 1024 331 L 1024 356 L 1006 356 Z M 1006 331 " clip-rule="nonzero"/></clipPath></defs><g clip-path="url(#9ec10ada13)"><path fill="#993225" d="M 508.164062 304.054688 C 550.976562 278.375 573.5625 293.585938 589.984375 282.761719 C 621.984375 261.679688 629.976562 259.925781 641.972656 266.078125 C 666.863281 278.824219 662.765625 296.757812 691.539062 295.839844 C 695.6875 295.707031 709.832031 295.101562 713.980469 295.0625 C 745.441406 294.757812 761.191406 331.605469 794.152344 323.453125 C 806.898438 320.292969 832.933594 313.996094 846.972656 323.164062 C 896.34375 355.402344 978.964844 372.375 978.964844 372.375 L 389 372.375 C 389 372.375 418.261719 355.808594 455.976562 338.980469 C 471.4375 332.078125 485.671875 317.539062 508.164062 304.054688 " fill-opacity="1" fill-rule="nonzero"/></g><path fill="#993225" d="M 583.253906 285.617188 C 579.511719 291.042969 567.214844 294.601562 561.644531 299.023438 C 552.320312 306.4375 543.851562 310.207031 533.382812 315.445312 C 529.828125 317.238281 528.300781 318.921875 525.453125 321.160156 C 517.527344 327.402344 504.753906 334.710938 494.285156 336.226562 C 492.71875 336.464844 493.097656 339.003906 494.652344 338.964844 C 503.871094 338.730469 516.488281 333.699219 523.96875 328.589844 C 525.585938 327.484375 526.707031 326.085938 528.179688 324.929688 C 533.304688 320.925781 537.648438 318.988281 543.707031 315.90625 C 550.710938 312.339844 556.46875 307.019531 562.566406 302.105469 C 566.777344 298.707031 581.976562 292.414062 584.714844 286.476562 C 585.164062 285.488281 583.871094 284.710938 583.253906 285.617188 " fill-opacity="1" fill-rule="nonzero"/><path fill="#993225" d="M 679.398438 301.855469 C 684.207031 307.375 686.746094 308.730469 692.632812 311.757812 C 699.863281 315.472656 704.300781 321.242188 709.648438 326.652344 C 716.851562 333.933594 729.96875 337.675781 739.054688 342.667969 C 740.804688 343.628906 742.875 341.21875 741.265625 339.796875 C 732.734375 332.183594 719.3125 331.484375 711.375 323.941406 C 701.867188 314.917969 689.183594 310.046875 680.570312 300.683594 C 679.832031 299.894531 678.703125 301.054688 679.398438 301.855469 " fill-opacity="1" fill-rule="nonzero"/><path fill="#993225" d="M 628.671875 266.773438 C 630.265625 268.078125 630.84375 268.15625 632.6875 268.933594 C 633.597656 269.316406 634.941406 268.589844 635.808594 268.90625 C 645.910156 272.648438 647.453125 274.425781 650.558594 283.355469 C 654.035156 293.375 657.527344 299.683594 666.257812 306.308594 C 671.933594 310.613281 676.460938 314.101562 679.914062 320.570312 C 681.71875 323.941406 682.574219 328.246094 684.746094 331.421875 C 689.65625 338.570312 698.492188 342.574219 704.316406 349.105469 C 705.394531 350.316406 707.332031 348.765625 706.527344 347.40625 C 701.535156 338.886719 691.410156 335.84375 686.445312 327.589844 C 682.007812 320.175781 680.492188 313.023438 673.472656 307.503906 C 665.480469 301.238281 658.75 296.628906 654.8125 286.84375 C 652.546875 281.246094 651.691406 274.308594 646.992188 269.949219 C 641.421875 264.785156 635.664062 268.90625 629.777344 265.351562 C 628.910156 264.824219 627.84375 266.117188 628.671875 266.773438 " fill-opacity="1" fill-rule="nonzero"/><path fill="#993225" d="M 755.4375 315.855469 C 764.667969 325.453125 777.296875 332.65625 790.019531 336.109375 C 799.933594 338.792969 808.507812 342.691406 816.816406 348.683594 C 819.976562 350.960938 822.636719 353.503906 826.640625 353.792969 C 827.761719 353.875 827.996094 352.082031 826.902344 351.84375 C 822.347656 350.816406 818.949219 347.128906 815.210938 344.550781 C 809.640625 340.691406 803.726562 337.6875 797.300781 335.542969 C 782.605469 330.589844 768.683594 324.902344 756.515625 314.789062 C 755.777344 314.167969 754.75 315.144531 755.4375 315.855469 " fill-opacity="1" fill-rule="nonzero"/><path fill="#993225" d="M 512.3125 342.21875 C 504.253906 340.863281 489.425781 331.023438 481.40625 335.542969 C 480.496094 336.042969 479.746094 338.320312 479.0625 338.964844 C 475.492188 342.375 471.34375 344.867188 466.984375 347.15625 C 458.253906 351.726562 449.429688 352.953125 440.621094 357.46875 C 439.265625 358.167969 440.210938 360.523438 441.675781 359.96875 C 456.292969 354.503906 468.65625 351.292969 481.324219 340.941406 C 485.699219 337.371094 484.027344 337.570312 491.058594 339.519531 C 498.289062 341.519531 504.371094 345.089844 511.984375 344.695312 C 513.3125 344.617188 513.800781 342.457031 512.3125 342.21875 " fill-opacity="1" fill-rule="nonzero"/><path fill="#993225" d="M 668.246094 306.148438 C 662.554688 309.269531 654.167969 302.226562 647.832031 303.699219 C 642.050781 305.042969 640.351562 312.101562 637.574219 316.683594 C 635.046875 320.832031 633.503906 323.28125 629.148438 324.769531 C 625.90625 325.875 623.667969 326.863281 621.152344 329.433594 C 620.269531 330.339844 621.457031 332.050781 622.5625 331.261719 C 627.710938 327.5625 633.253906 327.902344 637.324219 322.769531 C 639.484375 320.054688 641.210938 316.933594 642.90625 313.90625 C 646.1875 308.085938 647.964844 306.253906 654.695312 307.085938 C 658.738281 307.570312 665.28125 310.230469 669.046875 307.519531 C 669.863281 306.925781 669.152344 305.648438 668.246094 306.148438 " fill-opacity="1" fill-rule="nonzero"/><g clip-path="url(#3ddf2f5341)"><path fill="#993225" d="M 263.292969 331.269531 C 287.839844 316.542969 300.792969 325.265625 310.210938 319.058594 C 328.558594 306.96875 333.144531 305.960938 340.023438 309.488281 C 354.296875 316.800781 351.945312 327.085938 368.445312 326.554688 C 370.824219 326.480469 378.9375 326.132812 381.316406 326.109375 C 399.355469 325.9375 408.386719 347.066406 427.289062 342.390625 C 434.597656 340.578125 449.527344 336.96875 457.578125 342.226562 C 485.890625 360.710938 533.269531 370.445312 533.269531 370.445312 L 194.957031 370.445312 C 194.957031 370.445312 211.738281 360.945312 233.363281 351.292969 C 242.230469 347.335938 250.394531 339 263.292969 331.269531 " fill-opacity="1" fill-rule="nonzero"/></g><path fill="#993225" d="M 306.351562 320.695312 C 304.207031 323.808594 297.152344 325.847656 293.957031 328.382812 C 288.613281 332.632812 283.757812 334.792969 277.753906 337.800781 C 275.714844 338.828125 274.835938 339.792969 273.207031 341.078125 C 268.660156 344.65625 261.335938 348.847656 255.332031 349.714844 C 254.433594 349.851562 254.652344 351.308594 255.542969 351.289062 C 260.828125 351.152344 268.0625 348.265625 272.351562 345.335938 C 273.28125 344.703125 273.925781 343.902344 274.769531 343.238281 C 277.707031 340.941406 280.199219 339.832031 283.671875 338.0625 C 287.691406 336.019531 290.992188 332.96875 294.488281 330.148438 C 296.902344 328.203125 305.617188 324.59375 307.1875 321.1875 C 307.445312 320.621094 306.707031 320.175781 306.351562 320.695312 " fill-opacity="1" fill-rule="nonzero"/><path fill="#993225" d="M 361.484375 330.007812 C 364.242188 333.171875 365.699219 333.949219 369.074219 335.6875 C 373.21875 337.816406 375.765625 341.121094 378.832031 344.226562 C 382.960938 348.402344 390.484375 350.546875 395.695312 353.410156 C 396.699219 353.960938 397.882812 352.578125 396.960938 351.761719 C 392.070312 347.398438 384.375 346.996094 379.820312 342.671875 C 374.367188 337.496094 367.09375 334.703125 362.15625 329.335938 C 361.734375 328.882812 361.085938 329.546875 361.484375 330.007812 " fill-opacity="1" fill-rule="nonzero"/><path fill="#993225" d="M 332.394531 309.890625 C 333.308594 310.636719 333.640625 310.683594 334.699219 311.128906 C 335.21875 311.347656 335.992188 310.929688 336.488281 311.113281 C 342.28125 313.257812 343.164062 314.277344 344.945312 319.398438 C 346.941406 325.144531 348.941406 328.761719 353.949219 332.558594 C 357.203125 335.027344 359.800781 337.03125 361.777344 340.738281 C 362.8125 342.671875 363.304688 345.140625 364.550781 346.960938 C 367.367188 351.0625 372.433594 353.355469 375.773438 357.101562 C 376.390625 357.796875 377.5 356.90625 377.039062 356.128906 C 374.179688 351.242188 368.371094 349.496094 365.523438 344.761719 C 362.980469 340.511719 362.113281 336.410156 358.085938 333.246094 C 353.503906 329.652344 349.644531 327.007812 347.386719 321.398438 C 346.085938 318.1875 345.597656 314.207031 342.898438 311.710938 C 339.707031 308.75 336.40625 311.113281 333.03125 309.074219 C 332.53125 308.773438 331.921875 309.511719 332.394531 309.890625 " fill-opacity="1" fill-rule="nonzero"/><path fill="#993225" d="M 405.085938 338.035156 C 410.382812 343.539062 417.625 347.671875 424.917969 349.648438 C 430.605469 351.1875 435.519531 353.425781 440.285156 356.859375 C 442.097656 358.167969 443.625 359.625 445.917969 359.789062 C 446.5625 359.835938 446.695312 358.808594 446.070312 358.671875 C 443.457031 358.082031 441.507812 355.96875 439.363281 354.488281 C 436.171875 352.277344 432.78125 350.554688 429.09375 349.324219 C 420.667969 346.484375 412.683594 343.222656 405.707031 337.421875 C 405.285156 337.066406 404.695312 337.625 405.085938 338.035156 " fill-opacity="1" fill-rule="nonzero"/><path fill="#993225" d="M 265.671875 353.152344 C 261.046875 352.375 252.546875 346.734375 247.945312 349.324219 C 247.425781 349.609375 246.996094 350.917969 246.601562 351.289062 C 244.554688 353.242188 242.175781 354.671875 239.675781 355.984375 C 234.671875 358.605469 229.609375 359.308594 224.558594 361.898438 C 223.78125 362.296875 224.324219 363.648438 225.164062 363.332031 C 233.546875 360.199219 240.636719 358.355469 247.902344 352.417969 C 250.410156 350.375 249.449219 350.488281 253.480469 351.605469 C 257.628906 352.753906 261.117188 354.796875 265.480469 354.570312 C 266.242188 354.527344 266.523438 353.289062 265.671875 353.152344 " fill-opacity="1" fill-rule="nonzero"/><path fill="#993225" d="M 355.089844 332.46875 C 351.828125 334.257812 347.015625 330.21875 343.382812 331.0625 C 340.066406 331.835938 339.09375 335.882812 337.5 338.511719 C 336.050781 340.886719 335.167969 342.292969 332.667969 343.148438 C 330.808594 343.78125 329.527344 344.347656 328.082031 345.820312 C 327.578125 346.339844 328.257812 347.324219 328.890625 346.871094 C 331.84375 344.746094 335.023438 344.945312 337.355469 342 C 338.597656 340.441406 339.585938 338.652344 340.558594 336.917969 C 342.441406 333.578125 343.460938 332.527344 347.316406 333.003906 C 349.636719 333.285156 353.390625 334.808594 355.550781 333.253906 C 356.015625 332.914062 355.609375 332.179688 355.089844 332.46875 " fill-opacity="1" fill-rule="nonzero"/><g clip-path="url(#54f4569860)"><path fill="#993225" d="M 295.597656 304.054688 C 252.785156 278.375 230.199219 293.585938 213.777344 282.761719 C 181.777344 261.679688 173.785156 259.925781 161.785156 266.078125 C 136.898438 278.824219 140.992188 296.757812 112.21875 295.839844 C 108.070312 295.707031 93.925781 295.101562 89.78125 295.0625 C 58.320312 294.757812 42.570312 331.605469 9.605469 323.453125 C -3.140625 320.292969 -29.175781 313.996094 -43.214844 323.164062 C -92.582031 355.402344 -175.203125 372.375 -175.203125 372.375 L 414.761719 372.375 C 414.761719 372.375 385.5 355.808594 347.785156 338.980469 C 332.324219 332.078125 318.089844 317.539062 295.597656 304.054688 " fill-opacity="1" fill-rule="nonzero"/></g><path fill="#993225" d="M 220.507812 285.617188 C 224.246094 291.042969 236.546875 294.601562 242.117188 299.023438 C 251.441406 306.4375 259.90625 310.207031 270.378906 315.445312 C 273.933594 317.238281 275.460938 318.921875 278.304688 321.160156 C 286.234375 327.402344 299.007812 334.710938 309.476562 336.226562 C 311.042969 336.464844 310.660156 339.003906 309.105469 338.964844 C 299.890625 338.730469 287.273438 333.699219 279.792969 328.589844 C 278.171875 327.484375 277.054688 326.085938 275.578125 324.929688 C 270.457031 320.925781 266.109375 318.988281 260.054688 315.90625 C 253.046875 312.339844 247.292969 307.019531 241.195312 302.105469 C 236.980469 298.707031 221.785156 292.414062 219.046875 286.476562 C 218.597656 285.488281 219.886719 284.710938 220.507812 285.617188 " fill-opacity="1" fill-rule="nonzero"/><path fill="#993225" d="M 124.359375 301.855469 C 119.554688 307.375 117.011719 308.730469 111.125 311.757812 C 103.894531 315.472656 99.457031 321.242188 94.113281 326.652344 C 86.910156 333.933594 73.792969 337.675781 64.707031 342.667969 C 62.953125 343.628906 60.886719 341.21875 62.492188 339.796875 C 71.027344 332.183594 84.445312 331.484375 92.386719 323.941406 C 101.894531 314.917969 114.578125 310.046875 123.1875 300.683594 C 123.925781 299.894531 125.058594 301.054688 124.359375 301.855469 " fill-opacity="1" fill-rule="nonzero"/><path fill="#993225" d="M 175.085938 266.773438 C 173.492188 268.078125 172.914062 268.15625 171.070312 268.933594 C 170.164062 269.316406 168.820312 268.589844 167.949219 268.90625 C 157.847656 272.648438 156.308594 274.425781 153.199219 283.355469 C 149.722656 293.375 146.234375 299.683594 137.503906 306.308594 C 131.828125 310.613281 127.296875 314.101562 123.847656 320.570312 C 122.042969 323.941406 121.1875 328.246094 119.015625 331.421875 C 114.101562 338.570312 105.265625 342.574219 99.445312 349.105469 C 98.367188 350.316406 96.429688 348.765625 97.234375 347.40625 C 102.222656 338.886719 112.351562 335.84375 117.316406 327.589844 C 121.753906 320.175781 123.269531 313.023438 130.285156 307.503906 C 138.28125 301.238281 145.007812 296.628906 148.945312 286.84375 C 151.210938 281.246094 152.066406 274.308594 156.769531 269.949219 C 162.339844 264.785156 168.09375 268.90625 173.980469 265.351562 C 174.851562 264.824219 175.917969 266.117188 175.085938 266.773438 " fill-opacity="1" fill-rule="nonzero"/><path fill="#993225" d="M 48.324219 315.855469 C 39.09375 325.453125 26.464844 332.65625 13.742188 336.109375 C 3.824219 338.792969 -4.746094 342.691406 -13.054688 348.683594 C -16.21875 350.960938 -18.878906 353.503906 -22.878906 353.792969 C -24 353.875 -24.238281 352.082031 -23.144531 351.84375 C -18.585938 350.816406 -15.191406 347.128906 -11.449219 344.550781 C -5.878906 340.691406 0.0351562 337.6875 6.460938 335.542969 C 21.15625 330.589844 35.074219 324.902344 47.242188 314.789062 C 47.980469 314.167969 49.007812 315.144531 48.324219 315.855469 " fill-opacity="1" fill-rule="nonzero"/><path fill="#993225" d="M 291.449219 342.21875 C 299.507812 340.863281 314.335938 331.023438 322.355469 335.542969 C 323.261719 336.042969 324.015625 338.320312 324.699219 338.964844 C 328.269531 342.375 332.417969 344.867188 336.773438 347.15625 C 345.507812 351.726562 354.328125 352.953125 363.140625 357.46875 C 364.496094 358.167969 363.546875 360.523438 362.085938 359.96875 C 347.46875 354.503906 335.101562 351.292969 322.433594 340.941406 C 318.0625 337.371094 319.734375 337.570312 312.703125 339.519531 C 305.472656 341.519531 299.386719 345.089844 291.777344 344.695312 C 290.445312 344.617188 289.960938 342.457031 291.449219 342.21875 " fill-opacity="1" fill-rule="nonzero"/><path fill="#993225" d="M 135.515625 306.148438 C 141.203125 309.269531 149.59375 302.226562 155.925781 303.699219 C 161.707031 305.042969 163.40625 312.101562 166.183594 316.683594 C 168.714844 320.832031 170.253906 323.28125 174.613281 324.769531 C 177.851562 325.875 180.089844 326.863281 182.605469 329.433594 C 183.488281 330.339844 182.304688 332.050781 181.199219 331.261719 C 176.046875 327.5625 170.503906 327.902344 166.433594 322.769531 C 164.277344 320.054688 162.550781 316.933594 160.851562 313.90625 C 157.574219 308.085938 155.796875 306.253906 149.066406 307.085938 C 145.023438 307.570312 138.476562 310.230469 134.710938 307.519531 C 133.894531 306.925781 134.605469 305.648438 135.515625 306.148438 " fill-opacity="1" fill-rule="nonzero"/><g clip-path="url(#05e2b5ad78)"><path fill="#993225" d="M 907.984375 333.128906 C 932.535156 318.402344 945.484375 327.125 954.902344 320.917969 C 973.253906 308.828125 977.835938 307.824219 984.714844 311.351562 C 998.988281 318.660156 996.640625 328.945312 1013.140625 328.417969 C 1015.519531 328.339844 1023.628906 327.992188 1026.007812 327.972656 C 1044.046875 327.796875 1053.082031 348.925781 1071.980469 344.253906 C 1079.292969 342.441406 1094.222656 338.832031 1102.269531 344.085938 C 1130.582031 362.574219 1177.960938 372.308594 1177.960938 372.308594 L 839.648438 372.308594 C 839.648438 372.308594 856.429688 362.808594 878.058594 353.15625 C 886.921875 349.199219 895.085938 340.863281 907.984375 333.128906 " fill-opacity="1" fill-rule="nonzero"/></g><path fill="#993225" d="M 951.042969 322.558594 C 948.898438 325.667969 941.84375 327.707031 938.652344 330.246094 C 933.304688 334.496094 928.449219 336.65625 922.445312 339.660156 C 920.40625 340.6875 919.53125 341.65625 917.898438 342.9375 C 913.351562 346.519531 906.027344 350.710938 900.023438 351.578125 C 899.125 351.714844 899.34375 353.171875 900.234375 353.148438 C 905.523438 353.011719 912.757812 350.128906 917.046875 347.199219 C 917.972656 346.5625 918.617188 345.761719 919.460938 345.097656 C 922.398438 342.800781 924.890625 341.691406 928.367188 339.925781 C 932.382812 337.878906 935.683594 334.828125 939.179688 332.011719 C 941.597656 330.0625 950.308594 326.453125 951.882812 323.046875 C 952.136719 322.480469 951.398438 322.035156 951.042969 322.558594 " fill-opacity="1" fill-rule="nonzero"/><g clip-path="url(#19d34dd76f)"><path fill="#993225" d="M 1006.175781 331.867188 C 1008.933594 335.03125 1010.390625 335.808594 1013.765625 337.546875 C 1017.914062 339.675781 1020.457031 342.984375 1023.523438 346.085938 C 1027.652344 350.261719 1035.175781 352.410156 1040.386719 355.269531 C 1041.390625 355.820312 1042.574219 354.441406 1041.65625 353.625 C 1036.761719 349.257812 1029.066406 348.859375 1024.511719 344.53125 C 1019.058594 339.359375 1011.789062 336.566406 1006.847656 331.195312 C 1006.425781 330.742188 1005.777344 331.40625 1006.175781 331.867188 " fill-opacity="1" fill-rule="nonzero"/></g><path fill="#993225" d="M 977.089844 311.75 C 978.003906 312.5 978.335938 312.542969 979.390625 312.988281 C 979.914062 313.207031 980.683594 312.792969 981.179688 312.972656 C 986.972656 315.117188 987.855469 316.136719 989.640625 321.257812 C 991.632812 327.003906 993.632812 330.621094 998.640625 334.421875 C 1001.894531 336.890625 1004.492188 338.890625 1006.472656 342.597656 C 1007.507812 344.53125 1007.996094 347 1009.242188 348.820312 C 1012.058594 352.921875 1017.125 355.21875 1020.464844 358.964844 C 1021.082031 359.65625 1022.195312 358.765625 1021.734375 357.988281 C 1018.871094 353.101562 1013.0625 351.359375 1010.21875 346.625 C 1007.671875 342.371094 1006.804688 338.273438 1002.777344 335.109375 C 998.195312 331.511719 994.335938 328.871094 992.078125 323.257812 C 990.78125 320.050781 990.289062 316.070312 987.59375 313.570312 C 984.398438 310.609375 981.097656 312.972656 977.722656 310.933594 C 977.222656 310.632812 976.613281 311.371094 977.089844 311.75 " fill-opacity="1" fill-rule="nonzero"/><path fill="#993225" d="M 910.363281 355.011719 C 905.742188 354.234375 897.238281 348.59375 892.640625 351.183594 C 892.117188 351.472656 891.6875 352.777344 891.292969 353.148438 C 889.25 355.105469 886.871094 356.53125 884.371094 357.84375 C 879.363281 360.464844 874.304688 361.167969 869.25 363.757812 C 868.472656 364.160156 869.015625 365.511719 869.855469 365.191406 C 878.238281 362.058594 885.328125 360.214844 892.59375 354.28125 C 895.101562 352.234375 894.140625 352.347656 898.175781 353.464844 C 902.320312 354.613281 905.808594 356.660156 910.171875 356.433594 C 910.9375 356.386719 911.214844 355.148438 910.363281 355.011719 " fill-opacity="1" fill-rule="nonzero"/><path fill="#993225" d="M 999.78125 334.328125 C 996.519531 336.121094 991.707031 332.078125 988.074219 332.925781 C 984.761719 333.695312 983.785156 337.742188 982.191406 340.371094 C 980.742188 342.75 979.859375 344.15625 977.359375 345.007812 C 975.503906 345.640625 974.21875 346.207031 972.777344 347.679688 C 972.269531 348.203125 972.949219 349.183594 973.585938 348.730469 C 976.535156 346.609375 979.714844 346.804688 982.050781 343.859375 C 983.289062 342.304688 984.277344 340.515625 985.25 338.777344 C 987.132812 335.441406 988.152344 334.390625 992.011719 334.867188 C 994.328125 335.144531 998.082031 336.671875 1000.242188 335.113281 C 1000.710938 334.773438 1000.300781 334.042969 999.78125 334.328125 " fill-opacity="1" fill-rule="nonzero"/></svg>