<svg xmlns="http://www.w3.org/2000/svg" xmlns:xlink="http://www.w3.org/1999/xlink" width="1366" zoomAndPan="magnify" viewBox="0 0 1024.5 576" height="768" preserveAspectRatio="xMidYMid meet" version="1.0"><defs><clipPath id="aae934e673"><path d="M 709.777344 58 L 1024 58 L 1024 340.785156 L 709.777344 340.785156 Z M 709.777344 58 " clip-rule="nonzero"/></clipPath><clipPath id="161a410ec6"><path d="M 870 58 L 1024 58 L 1024 340.785156 L 870 340.785156 Z M 870 58 " clip-rule="nonzero"/></clipPath><clipPath id="7eefd9c126"><path d="M 528.878906 146.867188 L 937.886719 146.867188 L 937.886719 365 L 528.878906 365 Z M 528.878906 146.867188 " clip-rule="nonzero"/></clipPath><clipPath id="f44a7df99d"><path d="M 905.582031 135.847656 L 1024 135.847656 L 1024 353.992188 L 905.582031 353.992188 Z M 905.582031 135.847656 " clip-rule="nonzero"/></clipPath></defs><g clip-path="url(#aae934e673)"><path fill="#e17432" d="M 812.460938 187.925781 C 793.113281 202.625 735.945312 323.867188 709.78125 382.652344 L 1132.726562 343.664062 C 1105.34375 315.3125 1046.554688 257.046875 1030.46875 250.808594 C 1010.363281 243.007812 1006.878906 170.003906 993.066406 148.648438 C 979.253906 127.292969 945.429688 99.179688 925.25 67.703125 C 905.070312 36.226562 873.054688 97.253906 862.453125 123.050781 C 851.851562 148.851562 836.644531 169.554688 812.460938 187.925781 Z M 812.460938 187.925781 " fill-opacity="1" fill-rule="nonzero"/></g><g clip-path="url(#161a410ec6)"><path fill="#e47837" d="M 908.246094 59.480469 C 906.9375 69.699219 906.03125 81.632812 907.382812 88.492188 C 908.191406 92.589844 909.554688 96.371094 910.796875 99.832031 C 913.546875 107.476562 915.726562 113.53125 910.089844 117.851562 C 901.90625 124.121094 894.90625 133.605469 895.457031 139.558594 C 896.003906 145.507812 894.75 173.285156 893.742188 181.730469 C 892.738281 190.179688 888.621094 215.945312 886.039062 223.160156 C 884.417969 227.6875 887.472656 235.75 889.988281 242.382812 C 891.480469 246.320312 892.78125 249.753906 892.804688 251.65625 C 892.828125 253.625 889.945312 256.804688 886.457031 260.648438 C 880.90625 266.773438 873.820312 274.585938 874.496094 281.894531 C 875.0625 288.046875 873.625 313.617188 872.277344 337.652344 C 871.65625 348.714844 871.054688 359.453125 870.671875 367.820312 L 1132.726562 343.664062 C 1105.335938 315.3125 1046.527344 257.050781 1030.4375 250.8125 C 1018.613281 246.226562 1012.539062 219.113281 1006.730469 193.199219 C 1002.660156 175.03125 998.71875 157.453125 993.023438 148.652344 C 986.816406 139.058594 976.570312 128.097656 965.335938 116.085938 C 951.5625 101.359375 936.304688 85.042969 925.1875 67.710938 C 920.113281 59.796875 914.289062 57.730469 908.246094 59.480469 Z M 908.246094 59.480469 " fill-opacity="1" fill-rule="nonzero"/></g><path fill="#c36226" d="M 873.082031 172.652344 C 879.800781 169.496094 884.027344 135.953125 885.304688 119.574219 C 881.605469 119.917969 884.550781 127.773438 878.425781 125.902344 C 872.300781 124.027344 870.453125 144.113281 867.53125 147.636719 C 864.609375 151.15625 855.265625 165.023438 846.472656 169.980469 C 837.683594 174.9375 841.703125 183.347656 848.042969 186.988281 C 854.378906 190.632812 864.683594 176.59375 873.082031 172.652344 Z M 873.082031 172.652344 " fill-opacity="1" fill-rule="nonzero"/><path fill="#e17432" d="M 924.105469 209.535156 C 917.386719 206.378906 921.875 193.976562 920.601562 177.601562 C 919.933594 169.03125 914.472656 146.550781 920.601562 144.675781 C 926.726562 142.804688 939.75 181.007812 942.667969 184.53125 C 945.589844 188.050781 953.019531 201.710938 961.808594 206.667969 C 970.53125 211.585938 955.71875 220.097656 949.296875 223.789062 L 949.144531 223.875 C 942.804688 227.519531 932.5 213.480469 924.105469 209.535156 Z M 924.105469 209.535156 " fill-opacity="1" fill-rule="nonzero"/><path fill="#c36226" d="M 833.742188 292.6875 C 840.253906 287.292969 864.339844 264.027344 863.933594 247.914062 L 839.722656 227.132812 C 835.664062 228.261719 815.136719 231.5625 813.609375 235.398438 C 811.695312 240.191406 810.820312 240.355469 815.554688 256.527344 C 820.292969 272.699219 811.847656 270.886719 795.304688 287.722656 C 792.761719 305.054688 788.742188 321.304688 797.984375 316.808594 C 807.226562 312.308594 825.597656 299.433594 833.742188 292.6875 Z M 833.742188 292.6875 " fill-opacity="1" fill-rule="nonzero"/><g clip-path="url(#7eefd9c126)"><path fill="#e47837" d="M 531.433594 352.867188 C 538.46875 351.148438 545.996094 351.558594 553.195312 351.394531 C 560.804688 351.3125 568.332031 351.476562 575.9375 351.964844 C 579.539062 352.210938 583.054688 352.046875 586.65625 352.046875 C 590.582031 352.128906 594.511719 352.539062 598.519531 352.703125 C 606.046875 352.867188 613.488281 353.847656 621.015625 354.257812 C 626.742188 354.582031 632.46875 354.992188 638.195312 355.320312 C 645.722656 355.730469 653.167969 356.054688 660.777344 356.054688 C 674.929688 356.054688 688.839844 357.445312 702.910156 359.246094 C 709.863281 360.148438 716.816406 360.636719 723.773438 360.71875 C 730.398438 360.800781 736.859375 362.273438 743.488281 362.683594 C 747.414062 362.929688 751.34375 363.175781 755.269531 363.5 C 757.886719 363.664062 760.585938 363.910156 763.203125 364.15625 C 769.585938 364.808594 776.457031 364.15625 782.839844 363.746094 C 789.792969 363.417969 796.746094 362.847656 803.699219 362.273438 C 810.492188 361.78125 817.28125 360.882812 824.070312 360.71875 C 829.960938 360.636719 835.769531 359.574219 841.660156 359.328125 C 842.5625 359.328125 843.460938 359.246094 844.359375 359.246094 C 851.480469 359.246094 858.597656 359.65625 865.632812 360.472656 C 868.90625 360.882812 872.011719 362.027344 875.367188 362.109375 C 878.3125 362.191406 881.257812 362.109375 884.285156 362.027344 C 890.992188 362.027344 897.785156 361.863281 904.328125 360.472656 C 910.382812 359.164062 916.191406 356.792969 922 354.664062 L 922.246094 354.582031 C 924.617188 353.683594 926.910156 352.539062 929.117188 351.148438 C 930.671875 350.164062 932.308594 349.429688 934.027344 348.9375 C 935.007812 349.511719 936.234375 349.347656 936.972656 348.367188 C 937.953125 347.628906 938.117188 346.238281 937.460938 345.339844 C 937.378906 345.257812 937.296875 345.09375 937.136719 345.011719 C 936.726562 340.347656 935.253906 336.421875 933.371094 332.003906 C 930.917969 326.277344 926.910156 322.675781 922.574219 318.339844 C 918.398438 314.167969 915.128906 309.425781 911.117188 305.167969 C 908.910156 302.878906 906.621094 300.671875 904.164062 298.625 C 903.101562 297.644531 902.285156 296.578125 901.464844 295.433594 C 900.648438 294.207031 899.910156 292.898438 899.011719 291.671875 C 896.3125 287.90625 893.691406 283.328125 889.601562 280.789062 C 885.101562 278.007812 879.539062 276.371094 874.714844 274.328125 C 869.476562 272.117188 864.242188 269.828125 859.003906 267.617188 L 857.367188 266.964844 C 856.714844 266.71875 855.976562 266.472656 855.324219 266.226562 C 851.316406 264.917969 846.898438 264.507812 843.132812 262.628906 C 842.644531 262.382812 842.234375 262.054688 841.824219 261.644531 C 840.433594 259.929688 841.171875 257.390625 841.335938 255.183594 C 841.496094 252.8125 840.84375 251.175781 839.535156 249.292969 C 836.917969 245.449219 835.199219 241.113281 832.007812 237.757812 C 828.570312 234.15625 824.5625 231.703125 820.554688 228.839844 C 815.972656 225.566406 811.472656 222.457031 807.136719 219.023438 C 803.128906 216.078125 799.9375 212.152344 797.890625 207.652344 C 796.828125 205.113281 795.109375 202.90625 793.066406 201.023438 C 792 200.125 790.855469 199.386719 789.628906 198.734375 C 785.949219 196.851562 782.183594 195.050781 778.667969 192.925781 C 776.539062 191.617188 773.757812 191.042969 771.386719 190.0625 C 769.011719 189.078125 766.804688 188.179688 764.59375 187.117188 C 763.777344 186.707031 763.039062 186.214844 762.304688 185.5625 C 760.914062 184.253906 759.6875 182.78125 758.542969 181.226562 C 756.90625 179.179688 755.1875 177.300781 753.222656 175.5 C 749.050781 171.734375 745.207031 167.644531 741.035156 163.882812 C 736.859375 160.117188 732.523438 157.335938 727.945312 154.226562 C 726.636719 153.328125 725.324219 152.429688 724.015625 151.527344 C 723.199219 150.957031 722.300781 150.464844 721.398438 150.054688 C 720.417969 149.566406 719.515625 148.910156 718.617188 148.417969 C 718.371094 147.765625 717.882812 147.273438 717.226562 147.109375 C 716.652344 147.027344 716.164062 146.945312 715.589844 146.945312 C 711.664062 146.867188 708.800781 149.320312 705.9375 152.101562 C 701.929688 156.027344 699.554688 161.347656 696.039062 165.601562 C 694.320312 167.808594 692.4375 169.855469 690.390625 171.734375 C 688.183594 173.699219 685.238281 174.027344 682.621094 175.171875 C 680.65625 176.070312 678.449219 176.398438 676.648438 177.542969 C 674.4375 178.933594 672.394531 180.652344 670.265625 182.042969 C 668.386719 183.269531 666.339844 184.171875 664.539062 185.480469 C 662.742188 186.789062 661.59375 188.507812 660.039062 189.898438 C 656.523438 193.089844 654.148438 196.523438 651.695312 200.535156 C 648.914062 205.03125 645.394531 208.960938 642.453125 213.378906 C 639.507812 217.796875 636.644531 221.96875 633.699219 226.222656 C 630.835938 230.3125 628.625 235.304688 625.027344 238.820312 C 621.671875 242.09375 616.925781 243.238281 613.328125 246.019531 C 609.808594 248.71875 608.089844 252.484375 605.636719 256 C 602.691406 260.171875 599.828125 264.347656 596.964844 268.519531 C 594.101562 272.691406 591.808594 276.863281 588.457031 280.707031 C 584.855469 284.800781 580.765625 288.480469 576.347656 291.589844 C 568.414062 297.234375 559.742188 301.40625 552.378906 307.953125 C 549.105469 310.976562 546.324219 314.578125 544.195312 318.585938 C 543.050781 320.714844 541.90625 322.757812 540.921875 324.96875 C 539.941406 327.175781 538.222656 328.324219 536.75 330.121094 C 534.378906 333.066406 533.070312 337.238281 532.25 340.839844 C 531.84375 342.964844 531.1875 345.011719 530.207031 346.976562 C 529.46875 348.121094 529.0625 349.429688 528.816406 350.738281 C 528.652344 352.292969 530.289062 353.191406 531.433594 352.867188 Z M 531.433594 352.867188 " fill-opacity="1" fill-rule="nonzero"/><path fill="#c36226" d="M 528.816406 350.902344 C 528.652344 352.292969 530.289062 353.191406 531.433594 352.949219 C 538.46875 351.230469 545.996094 351.636719 553.195312 351.476562 C 560.804688 351.394531 568.332031 351.558594 575.9375 352.046875 C 579.539062 352.292969 583.054688 352.128906 586.65625 352.128906 C 590.582031 352.210938 594.511719 352.621094 598.519531 352.785156 C 606.046875 352.949219 613.488281 353.929688 621.015625 354.339844 C 626.742188 354.664062 632.46875 355.074219 638.195312 355.402344 C 638.523438 354.011719 638.851562 352.703125 639.34375 351.3125 C 640.078125 349.429688 641.058594 347.628906 641.632812 345.667969 C 642.125 343.867188 642.53125 342.066406 642.777344 340.265625 C 643.269531 336.421875 643.433594 332.578125 643.925781 328.730469 C 644.414062 324.804688 644.824219 320.796875 645.234375 316.785156 C 645.804688 312.859375 646.132812 308.933594 646.214844 305.007812 C 646.214844 303.042969 646.214844 301.160156 646.296875 299.199219 C 646.460938 297.234375 646.707031 295.351562 647.113281 293.472656 C 647.769531 289.789062 647.113281 286.109375 647.769531 282.425781 C 648.421875 278.746094 649.40625 275.0625 649.976562 271.300781 C 651.042969 264.019531 651.695312 256.410156 654.804688 249.621094 C 657.914062 242.828125 663.476562 237.265625 668.058594 231.375 C 670.023438 228.757812 672.804688 226.957031 674.765625 224.339844 C 675.832031 222.949219 676.402344 221.394531 677.382812 220.003906 C 678.367188 218.613281 679.675781 217.714844 680.492188 216.242188 C 682.210938 213.214844 684.746094 210.839844 686.875 208.140625 C 688.019531 206.667969 689 205.03125 690.148438 203.558594 C 691.128906 202.167969 692.191406 200.941406 693.09375 199.46875 C 694.890625 196.523438 695.300781 192.761719 696.527344 189.488281 C 697.917969 185.808594 699.066406 182.042969 699.882812 178.199219 C 700.292969 176.5625 700.945312 174.925781 701.765625 173.371094 C 702.417969 171.734375 702.992188 170.101562 703.320312 168.382812 C 704.136719 164.945312 705.445312 161.589844 707.246094 158.5625 C 708.226562 157.089844 709.289062 155.621094 710.4375 154.226562 C 711.582031 152.753906 712.398438 151.039062 713.382812 149.484375 C 714.035156 148.582031 714.691406 147.683594 715.507812 146.945312 C 711.582031 146.867188 708.71875 149.320312 705.855469 152.101562 C 701.847656 155.945312 699.472656 161.347656 695.957031 165.601562 C 694.238281 167.808594 692.355469 169.855469 690.3125 171.734375 C 688.101562 173.699219 685.15625 174.027344 682.539062 175.171875 C 680.574219 176.070312 678.367188 176.398438 676.566406 177.542969 C 674.359375 178.933594 672.3125 180.652344 670.183594 182.042969 C 668.304688 183.269531 666.257812 184.171875 664.457031 185.480469 C 662.660156 186.789062 661.511719 188.507812 659.957031 189.898438 C 656.441406 193.089844 654.070312 196.523438 651.613281 200.535156 C 648.832031 205.03125 645.316406 208.960938 642.371094 213.378906 C 639.425781 217.796875 636.5625 221.96875 633.617188 226.222656 C 630.753906 230.3125 628.542969 235.304688 624.945312 238.820312 C 621.589844 242.09375 616.84375 243.238281 613.246094 246.019531 C 609.726562 248.71875 608.007812 252.484375 605.554688 256 C 602.609375 260.171875 599.746094 264.347656 596.882812 268.519531 C 594.019531 272.691406 591.808594 277.027344 588.539062 280.871094 C 584.9375 284.960938 580.847656 288.644531 576.429688 291.753906 C 568.492188 297.398438 559.820312 301.570312 552.460938 308.113281 C 549.105469 311.140625 546.324219 314.742188 544.195312 318.667969 C 543.050781 320.796875 541.90625 322.839844 540.921875 325.050781 C 539.941406 327.257812 538.222656 328.402344 536.75 330.203125 C 534.378906 333.148438 533.070312 337.320312 532.25 340.921875 C 531.84375 343.046875 531.1875 345.09375 530.207031 347.058594 C 529.550781 348.285156 529.0625 349.59375 528.816406 350.902344 Z M 859.003906 267.78125 C 858.433594 267.617188 857.859375 267.375 857.289062 267.128906 L 855.324219 266.308594 C 855.976562 266.554688 856.714844 266.800781 857.367188 267.046875 Z M 837.324219 260.335938 C 835.769531 259.601562 834.296875 258.699219 832.988281 257.71875 C 830.453125 255.835938 828.164062 253.957031 826.691406 251.09375 C 825.378906 248.636719 824.5625 246.019531 823.5 243.484375 C 822.925781 242.175781 822.273438 240.949219 821.371094 239.804688 C 820.308594 238.574219 819.246094 237.429688 818.019531 236.367188 C 815.398438 233.996094 812.453125 232.113281 809.917969 229.738281 C 808.691406 228.511719 807.382812 227.367188 806.074219 226.304688 C 804.765625 225.402344 803.617188 224.339844 802.554688 223.195312 C 800.59375 220.824219 798.957031 218.121094 797.730469 215.339844 C 797.074219 213.949219 796.339844 212.476562 795.601562 211.085938 C 794.945312 209.777344 794.539062 208.304688 794.375 206.75 C 794.375 206.097656 794.210938 205.441406 794.046875 204.789062 C 793.800781 203.96875 793.472656 203.234375 793.3125 202.414062 C 793.230469 202.007812 793.148438 201.597656 793.066406 201.1875 C 795.191406 202.988281 796.828125 205.277344 797.890625 207.816406 C 799.9375 212.3125 803.128906 216.242188 807.136719 219.1875 C 811.472656 222.621094 816.054688 225.730469 820.554688 229.003906 C 824.5625 231.867188 828.570312 234.320312 832.007812 237.921875 C 835.199219 241.277344 836.917969 245.691406 839.535156 249.457031 C 840.84375 251.421875 841.578125 252.972656 841.335938 255.347656 C 841.171875 257.554688 840.515625 260.09375 841.824219 261.808594 C 840.351562 261.402344 838.796875 260.992188 837.324219 260.335938 Z M 904.164062 298.789062 C 906.621094 300.832031 908.910156 303.042969 911.117188 305.332031 C 915.046875 309.667969 918.398438 314.414062 922.574219 318.503906 C 926.910156 322.757812 930.835938 326.441406 933.289062 332.085938 C 935.171875 336.585938 936.644531 340.429688 937.054688 345.09375 C 937.953125 345.910156 938.035156 347.300781 937.214844 348.203125 C 937.136719 348.285156 936.972656 348.449219 936.890625 348.53125 C 936.234375 349.429688 934.925781 349.675781 933.945312 349.101562 C 932.226562 349.59375 930.589844 350.410156 929.035156 351.3125 C 926.828125 352.703125 924.535156 353.847656 922.164062 354.746094 L 921.34375 351.882812 C 920.691406 349.511719 919.789062 347.222656 918.890625 344.929688 C 917.992188 342.476562 917.171875 339.941406 916.027344 337.566406 C 915.046875 335.277344 913.820312 333.148438 912.589844 331.023438 C 911.9375 330.039062 911.445312 328.976562 911.035156 327.832031 C 910.875 327.257812 910.710938 326.6875 910.546875 326.195312 C 910.382812 325.703125 910.054688 325.296875 909.808594 324.804688 C 909.320312 323.660156 908.828125 322.515625 908.5 321.285156 C 908.09375 320.140625 907.601562 318.996094 907.191406 317.769531 C 906.78125 316.542969 906.539062 315.558594 906.128906 314.496094 C 905.71875 313.433594 905.308594 312.125 904.984375 310.898438 C 904.738281 309.75 904.65625 308.605469 904.738281 307.460938 C 904.820312 306.316406 904.246094 305.332031 904.164062 304.105469 C 904.164062 303.535156 904.164062 303.042969 904.082031 302.46875 C 903.917969 302.0625 903.757812 301.652344 903.429688 301.324219 C 902.855469 300.425781 902.445312 299.359375 902.203125 298.296875 C 901.875 297.398438 901.546875 296.417969 901.21875 295.515625 C 902.203125 296.742188 903.101562 297.808594 904.164062 298.789062 Z M 763.203125 351.71875 C 764.023438 350.246094 764.757812 348.773438 765.496094 347.300781 C 766.230469 345.828125 766.886719 344.113281 767.539062 342.558594 C 768.847656 339.613281 770.976562 336.832031 771.550781 333.640625 C 771.875 332.167969 773.023438 331.1875 773.675781 329.796875 C 774.332031 328.402344 774.902344 326.851562 775.3125 325.378906 C 775.804688 323.824219 776.128906 322.269531 776.210938 320.632812 C 776.292969 318.914062 776.128906 317.195312 775.886719 315.558594 C 775.640625 313.921875 775.3125 312.371094 774.902344 310.734375 C 774.496094 309.097656 774.332031 307.378906 774.332031 305.660156 C 774.332031 304.023438 774.332031 302.304688 774.496094 300.671875 C 774.738281 298.953125 775.066406 297.316406 775.640625 295.679688 C 776.046875 294.125 776.375 292.570312 776.867188 291.097656 C 777.441406 289.789062 777.929688 288.398438 778.339844 287.007812 C 778.667969 285.453125 778.257812 283.980469 778.09375 282.425781 C 778.011719 281.691406 778.011719 280.871094 778.011719 280.136719 C 778.011719 279.398438 777.765625 278.5 777.683594 277.597656 C 777.441406 275.882812 777.277344 274.164062 776.949219 272.445312 C 776.621094 270.726562 776.128906 269.335938 775.886719 267.78125 C 775.640625 266.226562 774.984375 264.671875 775.066406 263.117188 C 775.066406 262.136719 775.886719 261.402344 776.867188 261.402344 C 777.03125 261.402344 777.113281 261.402344 777.277344 261.484375 C 777.765625 261.644531 778.175781 261.890625 778.585938 262.300781 C 778.75 262.546875 778.992188 262.792969 779.238281 263.039062 C 780.140625 263.691406 780.957031 264.429688 781.695312 265.246094 C 783.167969 266.882812 784.558594 268.519531 786.113281 270.074219 C 787.664062 271.628906 789.300781 273.101562 790.773438 274.734375 C 791.347656 275.472656 792 276.207031 792.65625 276.863281 C 793.394531 277.519531 794.128906 278.089844 794.867188 278.664062 C 795.601562 279.316406 796.175781 279.972656 796.746094 280.789062 C 797.074219 281.445312 797.566406 282.097656 798.136719 282.671875 C 799.855469 284.144531 801.65625 285.617188 803.292969 287.089844 C 806.644531 290.199219 809.101562 293.960938 811.308594 297.886719 C 813.519531 301.816406 815.726562 305.742188 818.101562 309.503906 C 820.472656 313.269531 823.089844 317.03125 825.707031 320.714844 C 828 323.90625 830.453125 327.011719 833.644531 329.386719 C 835.28125 330.449219 836.835938 331.59375 838.226562 332.820312 C 839.617188 334.292969 840.761719 336.011719 841.578125 337.894531 C 843.789062 342.476562 843.789062 348.121094 843.132812 353.109375 C 842.886719 355.320312 842.398438 357.367188 841.90625 359.574219 C 836.015625 359.820312 830.207031 360.882812 824.316406 360.964844 C 817.527344 361.046875 810.738281 361.945312 803.945312 362.519531 C 796.992188 363.011719 790.039062 363.582031 783.085938 363.992188 C 776.621094 364.320312 769.832031 364.972656 763.367188 364.402344 C 760.75 364.15625 758.050781 363.910156 755.433594 363.746094 C 756.085938 362.4375 756.90625 361.292969 757.804688 360.148438 C 759.769531 357.445312 761.566406 354.664062 763.203125 351.71875 Z M 741.035156 163.882812 C 745.207031 167.644531 749.132812 171.734375 753.222656 175.5 C 755.1875 177.300781 756.90625 179.179688 758.542969 181.226562 C 759.6875 182.78125 760.914062 184.253906 762.304688 185.5625 C 762.796875 187.28125 762.878906 189 762.632812 190.796875 C 762.46875 191.699219 762.304688 192.515625 762.304688 193.414062 C 762.304688 194.398438 762.222656 195.460938 762.140625 196.441406 C 761.894531 198.40625 761.8125 200.453125 761.976562 202.414062 C 762.140625 204.625 761.976562 206.914062 761.648438 209.125 C 761.40625 210.023438 761.242188 210.921875 761.160156 211.90625 C 761.078125 213.050781 761.160156 214.277344 761.160156 215.503906 C 761.078125 217.714844 761.160156 220.003906 761.488281 222.214844 C 761.730469 223.113281 761.976562 223.929688 762.058594 224.832031 C 762.058594 225.078125 762.058594 225.402344 761.976562 225.648438 C 762.140625 226.140625 762.222656 226.632812 762.304688 227.121094 C 762.304688 228.105469 761.488281 228.839844 760.585938 228.839844 C 760.257812 228.839844 760.015625 228.757812 759.769531 228.59375 C 759.03125 228.105469 758.621094 227.367188 758.621094 226.46875 C 758.621094 226.304688 758.621094 226.140625 758.621094 225.976562 C 758.460938 225.566406 758.296875 225.160156 758.050781 224.75 C 757.640625 223.851562 757.230469 222.949219 756.742188 222.050781 C 755.921875 220.332031 755.023438 218.53125 754.125 216.8125 C 753.222656 215.097656 752.242188 213.703125 751.503906 211.988281 C 751.179688 211.167969 750.933594 210.351562 750.523438 209.613281 C 750.113281 208.878906 749.625 208.304688 749.296875 207.570312 C 748.316406 205.851562 747.578125 203.96875 746.925781 202.085938 C 746.433594 200.371094 746.105469 198.570312 745.859375 196.769531 C 745.453125 193.335938 744.386719 189.980469 742.667969 187.035156 C 741.6875 185.480469 740.707031 184.007812 739.5625 182.617188 C 738.414062 181.226562 737.105469 179.917969 735.960938 178.527344 C 734.734375 177.136719 733.753906 175.582031 732.933594 173.863281 C 732.523438 173.125 732.117188 172.390625 731.625 171.734375 C 731.132812 170.835938 730.726562 169.855469 730.398438 168.871094 C 729.824219 167.074219 729.335938 165.191406 728.679688 163.390625 C 728.027344 161.589844 727.289062 159.875 726.472656 158.074219 C 725.570312 155.945312 724.835938 153.738281 724.097656 151.609375 C 725.40625 152.429688 726.714844 153.410156 728.027344 154.308594 C 732.445312 157.335938 736.941406 160.28125 741.035156 163.882812 Z M 741.035156 163.882812 " fill-opacity="1" fill-rule="nonzero"/></g><g clip-path="url(#f44a7df99d)"><path fill="#e47837" d="M 908.136719 341.847656 C 915.171875 340.128906 922.699219 340.539062 929.898438 340.375 C 937.507812 340.292969 945.035156 340.457031 952.640625 340.945312 C 956.242188 341.191406 959.757812 341.027344 963.359375 341.027344 C 967.285156 341.109375 971.214844 341.519531 975.222656 341.683594 C 982.75 341.847656 990.195312 342.828125 997.71875 343.238281 C 1003.445312 343.566406 1009.171875 343.972656 1014.902344 344.300781 C 1022.425781 344.710938 1029.871094 345.039062 1037.480469 345.039062 C 1051.632812 345.039062 1065.542969 346.429688 1079.613281 348.226562 C 1086.566406 349.128906 1093.519531 349.617188 1100.476562 349.699219 C 1107.101562 349.78125 1113.566406 351.253906 1120.191406 351.664062 C 1124.117188 351.910156 1128.046875 352.15625 1131.972656 352.484375 C 1134.589844 352.644531 1137.289062 352.890625 1139.90625 353.136719 C 1146.289062 353.792969 1153.160156 353.136719 1159.542969 352.726562 C 1166.496094 352.402344 1173.449219 351.828125 1180.402344 351.253906 C 1187.195312 350.765625 1193.984375 349.863281 1200.773438 349.699219 C 1206.664062 349.617188 1212.472656 348.554688 1218.363281 348.308594 C 1219.265625 348.308594 1220.164062 348.226562 1221.0625 348.226562 C 1228.183594 348.226562 1235.300781 348.636719 1242.335938 349.457031 C 1245.609375 349.863281 1248.714844 351.011719 1252.070312 351.089844 C 1255.015625 351.171875 1257.960938 351.089844 1260.988281 351.011719 C 1267.695312 351.011719 1274.488281 350.847656 1281.03125 349.457031 C 1287.085938 348.144531 1292.894531 345.773438 1298.703125 343.648438 L 1298.949219 343.566406 C 1301.320312 342.664062 1303.613281 341.519531 1305.820312 340.128906 C 1307.375 339.148438 1309.011719 338.410156 1310.730469 337.921875 C 1311.710938 338.492188 1312.9375 338.328125 1313.675781 337.347656 C 1314.65625 336.609375 1314.820312 335.21875 1314.164062 334.320312 C 1314.082031 334.238281 1314 334.074219 1313.839844 333.992188 C 1313.429688 329.328125 1311.957031 325.402344 1310.074219 320.984375 C 1307.621094 315.257812 1303.613281 311.660156 1299.277344 307.324219 C 1295.101562 303.148438 1291.832031 298.40625 1287.820312 294.152344 C 1285.613281 291.859375 1283.324219 289.652344 1280.867188 287.605469 C 1279.804688 286.625 1278.988281 285.5625 1278.167969 284.414062 C 1277.351562 283.1875 1276.613281 281.878906 1275.714844 280.652344 C 1273.015625 276.890625 1270.394531 272.308594 1266.304688 269.769531 C 1261.804688 266.988281 1256.242188 265.355469 1251.417969 263.308594 C 1246.179688 261.097656 1240.945312 258.808594 1235.707031 256.601562 L 1234.074219 255.945312 C 1233.417969 255.699219 1232.679688 255.453125 1232.027344 255.210938 C 1228.019531 253.898438 1223.601562 253.492188 1219.835938 251.609375 C 1219.347656 251.363281 1218.9375 251.035156 1218.527344 250.628906 C 1217.136719 248.910156 1217.875 246.375 1218.039062 244.164062 C 1218.199219 241.792969 1217.546875 240.15625 1216.238281 238.273438 C 1213.621094 234.429688 1211.902344 230.09375 1208.710938 226.738281 C 1205.273438 223.140625 1201.265625 220.683594 1197.257812 217.820312 C 1192.675781 214.550781 1188.175781 211.441406 1183.839844 208.003906 C 1179.832031 205.058594 1176.640625 201.132812 1174.59375 196.632812 C 1173.53125 194.097656 1171.8125 191.886719 1169.769531 190.003906 C 1168.707031 189.105469 1167.558594 188.371094 1166.332031 187.714844 C 1162.652344 185.832031 1158.886719 184.035156 1155.371094 181.90625 C 1153.242188 180.597656 1150.460938 180.023438 1148.089844 179.042969 C 1145.714844 178.0625 1143.507812 177.160156 1141.296875 176.097656 C 1140.480469 175.6875 1139.746094 175.199219 1139.007812 174.542969 C 1137.617188 173.234375 1136.390625 171.761719 1135.246094 170.207031 C 1133.609375 168.160156 1131.890625 166.28125 1129.925781 164.480469 C 1125.753906 160.71875 1121.910156 156.625 1117.738281 152.863281 C 1113.566406 149.101562 1109.230469 146.320312 1104.648438 143.210938 C 1103.339844 142.308594 1102.027344 141.410156 1100.71875 140.511719 C 1099.902344 139.9375 1099.003906 139.445312 1098.101562 139.039062 C 1097.121094 138.546875 1096.21875 137.890625 1095.320312 137.402344 C 1095.074219 136.746094 1094.585938 136.253906 1093.929688 136.09375 C 1093.355469 136.011719 1092.867188 135.929688 1092.292969 135.929688 C 1088.367188 135.847656 1085.503906 138.300781 1082.640625 141.082031 C 1078.632812 145.007812 1076.257812 150.328125 1072.742188 154.582031 C 1071.023438 156.789062 1069.140625 158.835938 1067.097656 160.71875 C 1064.886719 162.679688 1061.941406 163.007812 1059.324219 164.152344 C 1057.359375 165.054688 1055.152344 165.378906 1053.351562 166.527344 C 1051.144531 167.917969 1049.097656 169.632812 1046.96875 171.027344 C 1045.089844 172.253906 1043.042969 173.152344 1041.242188 174.460938 C 1039.445312 175.769531 1038.296875 177.488281 1036.742188 178.878906 C 1033.226562 182.070312 1030.855469 185.507812 1028.398438 189.515625 C 1025.617188 194.015625 1022.101562 197.941406 1019.15625 202.359375 C 1016.210938 206.777344 1013.347656 210.949219 1010.402344 215.203125 C 1007.539062 219.292969 1005.328125 224.285156 1001.730469 227.800781 C 998.375 231.074219 993.628906 232.21875 990.03125 235 C 986.511719 237.703125 984.792969 241.464844 982.339844 244.984375 C 979.394531 249.15625 976.53125 253.328125 973.667969 257.5 C 970.804688 261.671875 968.511719 265.84375 965.160156 269.691406 C 961.558594 273.78125 957.46875 277.460938 953.050781 280.570312 C 945.117188 286.214844 936.445312 290.386719 929.082031 296.933594 C 925.808594 299.960938 923.027344 303.558594 920.898438 307.566406 C 919.753906 309.695312 918.609375 311.742188 917.628906 313.949219 C 916.644531 316.160156 914.925781 317.304688 913.453125 319.105469 C 911.082031 322.046875 909.773438 326.222656 908.957031 329.820312 C 908.546875 331.949219 907.890625 333.992188 906.910156 335.957031 C 906.171875 337.101562 905.765625 338.410156 905.519531 339.71875 C 905.355469 341.273438 906.992188 342.175781 908.136719 341.847656 Z M 908.136719 341.847656 " fill-opacity="1" fill-rule="nonzero"/><path fill="#c36226" d="M 905.519531 339.882812 C 905.355469 341.273438 906.992188 342.175781 908.136719 341.929688 C 915.171875 340.210938 922.699219 340.621094 929.898438 340.457031 C 937.507812 340.375 945.035156 340.539062 952.640625 341.027344 C 956.242188 341.273438 959.757812 341.109375 963.359375 341.109375 C 967.285156 341.191406 971.214844 341.601562 975.222656 341.765625 C 982.75 341.929688 990.195312 342.910156 997.71875 343.320312 C 1003.445312 343.648438 1009.171875 344.054688 1014.902344 344.382812 C 1015.226562 342.992188 1015.554688 341.683594 1016.046875 340.292969 C 1016.78125 338.410156 1017.765625 336.609375 1018.335938 334.648438 C 1018.828125 332.847656 1019.238281 331.046875 1019.480469 329.25 C 1019.972656 325.402344 1020.136719 321.558594 1020.628906 317.710938 C 1021.117188 313.785156 1021.527344 309.777344 1021.9375 305.769531 C 1022.507812 301.839844 1022.835938 297.914062 1022.917969 293.988281 C 1022.917969 292.023438 1022.917969 290.140625 1023 288.179688 C 1023.164062 286.214844 1023.410156 284.332031 1023.816406 282.453125 C 1024.472656 278.769531 1023.816406 275.089844 1024.472656 271.40625 C 1025.125 267.726562 1026.109375 264.042969 1026.679688 260.28125 C 1027.746094 253 1028.398438 245.390625 1031.507812 238.601562 C 1034.617188 231.8125 1040.179688 226.246094 1044.761719 220.359375 C 1046.726562 217.738281 1049.507812 215.941406 1051.46875 213.320312 C 1052.535156 211.929688 1053.105469 210.375 1054.089844 208.984375 C 1055.070312 207.59375 1056.378906 206.695312 1057.195312 205.222656 C 1058.914062 202.195312 1061.449219 199.824219 1063.578125 197.125 C 1064.722656 195.652344 1065.707031 194.015625 1066.851562 192.542969 C 1067.832031 191.152344 1068.894531 189.925781 1069.796875 188.453125 C 1071.59375 185.507812 1072.003906 181.742188 1073.230469 178.46875 C 1074.621094 174.789062 1075.769531 171.027344 1076.585938 167.179688 C 1076.996094 165.542969 1077.648438 163.90625 1078.46875 162.351562 C 1079.121094 160.71875 1079.695312 159.082031 1080.023438 157.363281 C 1080.839844 153.925781 1082.148438 150.574219 1083.949219 147.546875 C 1084.929688 146.074219 1085.996094 144.601562 1087.140625 143.210938 C 1088.285156 141.738281 1089.101562 140.019531 1090.085938 138.464844 C 1090.738281 137.566406 1091.394531 136.664062 1092.210938 135.929688 C 1088.285156 135.847656 1085.421875 138.300781 1082.558594 141.082031 C 1078.550781 144.929688 1076.175781 150.328125 1072.660156 154.582031 C 1070.941406 156.789062 1069.058594 158.835938 1067.015625 160.71875 C 1064.804688 162.679688 1061.859375 163.007812 1059.242188 164.152344 C 1057.277344 165.054688 1055.070312 165.378906 1053.269531 166.527344 C 1051.0625 167.917969 1049.015625 169.632812 1046.886719 171.027344 C 1045.007812 172.253906 1042.960938 173.152344 1041.160156 174.460938 C 1039.363281 175.769531 1038.214844 177.488281 1036.664062 178.878906 C 1033.144531 182.070312 1030.773438 185.507812 1028.316406 189.515625 C 1025.535156 194.015625 1022.019531 197.941406 1019.074219 202.359375 C 1016.128906 206.777344 1013.265625 210.949219 1010.320312 215.203125 C 1007.457031 219.292969 1005.246094 224.285156 1001.648438 227.800781 C 998.292969 231.074219 993.546875 232.21875 989.949219 235 C 986.429688 237.703125 984.710938 241.464844 982.257812 244.984375 C 979.3125 249.15625 976.449219 253.328125 973.585938 257.5 C 970.722656 261.671875 968.511719 266.007812 965.242188 269.851562 C 961.640625 273.945312 957.550781 277.625 953.132812 280.734375 C 945.199219 286.378906 936.523438 290.550781 929.164062 297.097656 C 925.808594 300.125 923.027344 303.722656 920.898438 307.648438 C 919.753906 309.777344 918.609375 311.824219 917.628906 314.03125 C 916.644531 316.238281 914.925781 317.386719 913.453125 319.183594 C 911.082031 322.128906 909.773438 326.304688 908.953125 329.902344 C 908.546875 332.03125 907.890625 334.074219 906.910156 336.039062 C 906.253906 337.265625 905.765625 338.574219 905.519531 339.882812 Z M 1235.707031 256.761719 C 1235.136719 256.601562 1234.5625 256.355469 1233.992188 256.109375 L 1232.027344 255.289062 C 1232.679688 255.535156 1233.417969 255.78125 1234.074219 256.027344 Z M 1214.027344 249.320312 C 1212.472656 248.582031 1211 247.683594 1209.691406 246.699219 C 1207.15625 244.820312 1204.867188 242.9375 1203.394531 240.074219 C 1202.085938 237.621094 1201.265625 235 1200.203125 232.464844 C 1199.628906 231.15625 1198.976562 229.929688 1198.074219 228.785156 C 1197.011719 227.558594 1195.949219 226.410156 1194.722656 225.347656 C 1192.101562 222.976562 1189.15625 221.09375 1186.621094 218.722656 C 1185.394531 217.496094 1184.085938 216.347656 1182.777344 215.285156 C 1181.46875 214.386719 1180.324219 213.320312 1179.257812 212.175781 C 1177.296875 209.804688 1175.660156 207.105469 1174.433594 204.324219 C 1173.777344 202.933594 1173.042969 201.460938 1172.304688 200.070312 C 1171.652344 198.757812 1171.242188 197.285156 1171.078125 195.734375 C 1171.078125 195.078125 1170.914062 194.421875 1170.75 193.769531 C 1170.503906 192.949219 1170.179688 192.214844 1170.015625 191.394531 C 1169.933594 190.988281 1169.851562 190.578125 1169.769531 190.167969 C 1171.894531 191.96875 1173.53125 194.261719 1174.59375 196.796875 C 1176.640625 201.296875 1179.832031 205.222656 1183.839844 208.167969 C 1188.175781 211.605469 1192.757812 214.710938 1197.257812 217.984375 C 1201.265625 220.847656 1205.273438 223.304688 1208.710938 226.902344 C 1211.902344 230.257812 1213.621094 234.675781 1216.238281 238.4375 C 1217.546875 240.402344 1218.28125 241.957031 1218.039062 244.328125 C 1217.875 246.539062 1217.21875 249.074219 1218.527344 250.792969 C 1217.054688 250.382812 1215.5 249.972656 1214.027344 249.320312 Z M 1280.867188 287.769531 C 1283.324219 289.816406 1285.613281 292.023438 1287.820312 294.316406 C 1291.75 298.652344 1295.101562 303.394531 1299.277344 307.488281 C 1303.613281 311.742188 1307.539062 315.421875 1309.992188 321.066406 C 1311.875 325.566406 1313.347656 329.410156 1313.757812 334.074219 C 1314.65625 334.894531 1314.738281 336.285156 1313.921875 337.183594 C 1313.839844 337.265625 1313.675781 337.429688 1313.59375 337.511719 C 1312.9375 338.410156 1311.628906 338.65625 1310.648438 338.082031 C 1308.929688 338.574219 1307.292969 339.394531 1305.738281 340.292969 C 1303.53125 341.683594 1301.238281 342.828125 1298.867188 343.730469 L 1298.046875 340.867188 C 1297.394531 338.492188 1296.496094 336.203125 1295.59375 333.910156 C 1294.695312 331.457031 1293.875 328.921875 1292.730469 326.546875 C 1291.75 324.257812 1290.523438 322.128906 1289.292969 320.003906 C 1288.640625 319.023438 1288.148438 317.957031 1287.742188 316.8125 C 1287.578125 316.238281 1287.414062 315.667969 1287.25 315.175781 C 1287.085938 314.6875 1286.757812 314.277344 1286.511719 313.785156 C 1286.023438 312.640625 1285.53125 311.496094 1285.203125 310.269531 C 1284.796875 309.121094 1284.304688 307.976562 1283.894531 306.75 C 1283.484375 305.523438 1283.242188 304.542969 1282.832031 303.476562 C 1282.421875 302.414062 1282.011719 301.105469 1281.6875 299.878906 C 1281.441406 298.734375 1281.359375 297.585938 1281.441406 296.441406 C 1281.523438 295.296875 1280.949219 294.316406 1280.867188 293.085938 C 1280.867188 292.515625 1280.867188 292.023438 1280.785156 291.453125 C 1280.621094 291.042969 1280.460938 290.632812 1280.132812 290.304688 C 1279.558594 289.40625 1279.148438 288.34375 1278.90625 287.277344 C 1278.578125 286.378906 1278.25 285.398438 1277.921875 284.496094 C 1278.90625 285.726562 1279.804688 286.789062 1280.867188 287.769531 Z M 1139.90625 340.703125 C 1140.726562 339.230469 1141.460938 337.757812 1142.199219 336.285156 C 1142.933594 334.8125 1143.589844 333.09375 1144.242188 331.539062 C 1145.550781 328.59375 1147.679688 325.8125 1148.253906 322.621094 C 1148.578125 321.148438 1149.726562 320.167969 1150.378906 318.777344 C 1151.035156 317.386719 1151.605469 315.832031 1152.015625 314.359375 C 1152.507812 312.804688 1152.832031 311.25 1152.914062 309.613281 C 1152.996094 307.894531 1152.832031 306.175781 1152.589844 304.542969 C 1152.34375 302.90625 1152.015625 301.351562 1151.605469 299.714844 C 1151.199219 298.078125 1151.035156 296.359375 1151.035156 294.640625 C 1151.035156 293.003906 1151.035156 291.289062 1151.199219 289.652344 C 1151.441406 287.933594 1151.769531 286.296875 1152.34375 284.660156 C 1152.753906 283.105469 1153.078125 281.550781 1153.570312 280.078125 C 1154.144531 278.769531 1154.632812 277.378906 1155.042969 275.988281 C 1155.371094 274.433594 1154.960938 272.960938 1154.796875 271.40625 C 1154.714844 270.671875 1154.714844 269.851562 1154.714844 269.117188 C 1154.714844 268.378906 1154.46875 267.480469 1154.386719 266.582031 C 1154.144531 264.863281 1153.980469 263.144531 1153.652344 261.425781 C 1153.324219 259.707031 1152.832031 258.316406 1152.589844 256.761719 C 1152.34375 255.210938 1151.6875 253.65625 1151.769531 252.101562 C 1151.769531 251.117188 1152.589844 250.382812 1153.570312 250.382812 C 1153.734375 250.382812 1153.816406 250.382812 1153.980469 250.464844 C 1154.46875 250.628906 1154.878906 250.875 1155.289062 251.28125 C 1155.453125 251.527344 1155.699219 251.773438 1155.941406 252.019531 C 1156.84375 252.671875 1157.660156 253.410156 1158.398438 254.226562 C 1159.871094 255.863281 1161.261719 257.5 1162.816406 259.054688 C 1164.371094 260.609375 1166.003906 262.082031 1167.476562 263.71875 C 1168.050781 264.453125 1168.707031 265.191406 1169.359375 265.84375 C 1170.097656 266.5 1170.832031 267.070312 1171.570312 267.644531 C 1172.304688 268.300781 1172.878906 268.953125 1173.449219 269.769531 C 1173.777344 270.425781 1174.269531 271.082031 1174.839844 271.652344 C 1176.558594 273.125 1178.359375 274.597656 1179.996094 276.070312 C 1183.347656 279.179688 1185.804688 282.941406 1188.011719 286.871094 C 1190.222656 290.796875 1192.429688 294.722656 1194.804688 298.488281 C 1197.175781 302.25 1199.792969 306.015625 1202.410156 309.695312 C 1204.703125 312.886719 1207.15625 315.996094 1210.347656 318.367188 C 1211.984375 319.429688 1213.539062 320.574219 1214.929688 321.804688 C 1216.320312 323.277344 1217.464844 324.992188 1218.28125 326.875 C 1220.492188 331.457031 1220.492188 337.101562 1219.835938 342.09375 C 1219.589844 344.300781 1219.101562 346.347656 1218.609375 348.554688 C 1212.71875 348.800781 1206.910156 349.863281 1201.019531 349.945312 C 1194.230469 350.027344 1187.441406 350.929688 1180.648438 351.5 C 1173.695312 351.992188 1166.742188 352.5625 1159.789062 352.972656 C 1153.324219 353.300781 1146.535156 353.957031 1140.070312 353.382812 C 1137.453125 353.136719 1134.753906 352.890625 1132.136719 352.726562 C 1132.789062 351.417969 1133.609375 350.273438 1134.507812 349.128906 C 1136.472656 346.429688 1138.273438 343.648438 1139.90625 340.703125 Z M 1117.738281 152.863281 C 1121.910156 156.625 1125.835938 160.71875 1129.925781 164.480469 C 1131.890625 166.28125 1133.609375 168.160156 1135.246094 170.207031 C 1136.390625 171.761719 1137.617188 173.234375 1139.007812 174.542969 C 1139.5 176.261719 1139.582031 177.980469 1139.335938 179.777344 C 1139.171875 180.679688 1139.007812 181.496094 1139.007812 182.398438 C 1139.007812 183.378906 1138.925781 184.441406 1138.84375 185.425781 C 1138.597656 187.386719 1138.515625 189.433594 1138.679688 191.394531 C 1138.84375 193.605469 1138.679688 195.894531 1138.351562 198.105469 C 1138.109375 199.003906 1137.945312 199.90625 1137.863281 200.886719 C 1137.78125 202.03125 1137.863281 203.257812 1137.863281 204.484375 C 1137.78125 206.695312 1137.863281 208.984375 1138.191406 211.195312 C 1138.433594 212.09375 1138.679688 212.914062 1138.761719 213.8125 C 1138.761719 214.058594 1138.761719 214.386719 1138.679688 214.628906 C 1138.84375 215.121094 1138.925781 215.613281 1139.007812 216.101562 C 1139.007812 217.085938 1138.191406 217.820312 1137.289062 217.820312 C 1136.960938 217.820312 1136.71875 217.738281 1136.472656 217.574219 C 1135.734375 217.085938 1135.328125 216.347656 1135.328125 215.449219 C 1135.328125 215.285156 1135.328125 215.121094 1135.328125 214.957031 C 1135.164062 214.550781 1135 214.140625 1134.753906 213.730469 C 1134.34375 212.832031 1133.933594 211.929688 1133.445312 211.03125 C 1132.625 209.3125 1131.726562 207.511719 1130.828125 205.796875 C 1129.925781 204.078125 1128.945312 202.6875 1128.207031 200.96875 C 1127.882812 200.148438 1127.636719 199.332031 1127.226562 198.597656 C 1126.816406 197.859375 1126.328125 197.285156 1126 196.550781 C 1125.019531 194.832031 1124.28125 192.949219 1123.628906 191.070312 C 1123.136719 189.351562 1122.808594 187.550781 1122.5625 185.75 C 1122.15625 182.316406 1121.089844 178.960938 1119.375 176.015625 C 1118.390625 174.460938 1117.410156 172.988281 1116.265625 171.597656 C 1115.117188 170.207031 1113.808594 168.898438 1112.664062 167.507812 C 1111.4375 166.117188 1110.457031 164.5625 1109.636719 162.84375 C 1109.230469 162.109375 1108.820312 161.371094 1108.328125 160.71875 C 1107.835938 159.816406 1107.429688 158.835938 1107.101562 157.855469 C 1106.527344 156.054688 1106.039062 154.171875 1105.382812 152.371094 C 1104.730469 150.574219 1103.992188 148.855469 1103.175781 147.054688 C 1102.273438 144.929688 1101.539062 142.71875 1100.800781 140.589844 C 1102.109375 141.410156 1103.421875 142.390625 1104.730469 143.292969 C 1109.148438 146.320312 1113.644531 149.265625 1117.738281 152.863281 Z M 1117.738281 152.863281 " fill-opacity="1" fill-rule="nonzero"/></g></svg>