<svg xmlns="http://www.w3.org/2000/svg" xmlns:xlink="http://www.w3.org/1999/xlink" width="1366" zoomAndPan="magnify" viewBox="0 0 1024.5 576" height="768" preserveAspectRatio="xMidYMid meet" version="1.0"><defs><clipPath id="14f3b4dc44"><path d="M 0 170 L 290.339844 170 L 290.339844 341.570312 L 0 341.570312 Z M 0 170 " clip-rule="nonzero"/></clipPath><clipPath id="9751174f5a"><path d="M 0 170 L 254 170 L 254 341.570312 L 0 341.570312 Z M 0 170 " clip-rule="nonzero"/></clipPath><clipPath id="5cce092272"><path d="M 108 172 L 290.339844 172 L 290.339844 340 L 108 340 Z M 108 172 " clip-rule="nonzero"/></clipPath><clipPath id="d941e489e0"><path d="M 162.054688 264.207031 L 419 264.207031 L 419 372.15625 L 162.054688 372.15625 Z M 162.054688 264.207031 " clip-rule="nonzero"/></clipPath><clipPath id="2b47960d8a"><path d="M 162.054688 264.207031 L 397 264.207031 L 397 372.15625 L 162.054688 372.15625 Z M 162.054688 264.207031 " clip-rule="nonzero"/></clipPath><clipPath id="9e02fecd59"><path d="M 162.054688 282 L 384 282 L 384 372 L 162.054688 372 Z M 162.054688 282 " clip-rule="nonzero"/></clipPath></defs><g clip-path="url(#14f3b4dc44)"><path fill="#e47837" d="M 289.535156 338.175781 C 289.125 338.746094 288.390625 339.15625 287.734375 339.074219 C 284.875 339.15625 282.097656 338.910156 279.316406 338.421875 C 276.128906 337.765625 273.351562 336.539062 270 336.460938 L 269.347656 336.460938 C 266.40625 336.460938 263.382812 336.621094 260.441406 336.703125 C 258.398438 336.703125 256.273438 336.378906 254.308594 335.886719 C 253.246094 335.640625 252.105469 335.476562 251.042969 335.398438 C 247.527344 335.070312 243.929688 335.316406 240.417969 335.398438 C 238.210938 335.398438 236.003906 335.398438 233.796875 335.316406 C 229.628906 335.234375 225.542969 334.988281 221.375 334.90625 L 219.496094 334.90625 C 217.699219 334.90625 215.816406 334.988281 214.019531 335.152344 C 213.285156 335.234375 212.632812 335.316406 211.894531 335.398438 C 208.871094 335.886719 206.09375 336.949219 203.234375 337.765625 C 196.859375 339.484375 190.320312 339.15625 183.699219 339.15625 L 161.796875 339.15625 C 159.347656 339.15625 156.894531 339.15625 154.445312 339.15625 C 147.089844 339.15625 139.734375 339.15625 132.378906 339.320312 C 127.71875 339.402344 122.980469 339.644531 118.320312 339.972656 C 111.128906 340.464844 104.019531 340.21875 96.828125 340.300781 C 96.09375 340.300781 95.355469 340.300781 94.703125 340.382812 C 92.089844 340.546875 89.472656 340.953125 86.777344 341.28125 C 83.261719 341.691406 79.664062 341.851562 76.152344 341.691406 C 73.699219 341.609375 71.328125 341.527344 68.878906 341.363281 C 64.054688 341.117188 59.152344 340.707031 54.332031 340.546875 C 47.304688 340.300781 40.273438 340.300781 33.246094 339.726562 C 26.21875 339.15625 19.351562 338.585938 12.570312 337.195312 C 9.136719 336.378906 5.707031 335.886719 2.273438 335.722656 C 0.71875 335.640625 -0.832031 335.558594 -2.386719 335.476562 C -4.265625 335.316406 -6.226562 335.152344 -8.105469 334.90625 C -22.40625 333.109375 -36.382812 329.757812 -50.765625 329.511719 C -57.792969 329.429688 -64.902344 328.695312 -71.851562 329.511719 C -75.203125 329.921875 -78.46875 330.65625 -81.902344 330.738281 C -85.335938 330.820312 -88.523438 331.308594 -91.875 331.71875 C -97.675781 332.371094 -103.152344 331.390625 -108.953125 330.574219 C -112.222656 330.085938 -117.617188 329.347656 -118.433594 325.34375 C -118.679688 324.28125 -118.1875 323.136719 -117.207031 322.730469 C -117.125 322.402344 -116.878906 322.074219 -116.636719 321.832031 C -113.449219 318.644531 -110.34375 315.292969 -107.074219 312.105469 C -103.722656 308.835938 -100.128906 305.8125 -96.777344 302.542969 C -93.589844 299.519531 -90.074219 296.660156 -86.96875 293.554688 C -83.863281 290.449219 -81.003906 287.261719 -77.652344 284.484375 C -74.300781 281.703125 -70.953125 279.171875 -67.519531 276.636719 C -60.816406 271.570312 -53.625 267.238281 -46.109375 263.480469 C -38.589844 260.046875 -30.742188 257.433594 -22.734375 255.714844 C -18.566406 254.816406 -14.5625 253.671875 -10.558594 252.285156 C -6.714844 250.730469 -3.039062 248.6875 0.3125 246.234375 C 7.832031 241.085938 13.878906 234.46875 20.660156 228.417969 C 24.011719 225.394531 27.527344 222.535156 31.039062 219.675781 C 34.472656 216.734375 37.742188 213.628906 40.847656 210.195312 C 43.871094 207.007812 47.222656 204.230469 50.898438 201.777344 C 54.578125 199.324219 57.683594 196.382812 61.195312 193.6875 C 64.710938 190.988281 68.632812 188.945312 72.230469 186.496094 C 75.824219 184.042969 79.664062 182.410156 83.34375 180.367188 C 86.695312 178.488281 89.144531 175.871094 92.089844 173.417969 C 94.703125 171.132812 98.054688 169.90625 101.484375 170.070312 L 101.976562 170.152344 C 104.265625 170.394531 106.144531 171.457031 108.105469 172.519531 C 109.167969 173.09375 110.148438 173.746094 111.292969 174.238281 C 115.378906 176.199219 119.382812 177.585938 122.980469 180.367188 C 124.695312 181.511719 126.25 182.980469 127.636719 184.535156 C 128.617188 186.003906 129.519531 187.558594 130.171875 189.191406 C 131.886719 192.789062 134.746094 196.058594 137.363281 199.082031 C 140.058594 202.269531 143.164062 205.046875 146.515625 207.417969 C 150.113281 209.867188 153.300781 212.972656 157.386719 214.773438 C 161.0625 216.488281 164.660156 217.878906 167.929688 220.410156 C 170.871094 222.945312 173.648438 225.722656 176.183594 228.746094 C 178.796875 231.851562 181.574219 234.632812 184.761719 237.164062 C 188.359375 239.941406 191.953125 242.476562 195.386719 245.417969 C 202.253906 251.300781 209.605469 256.453125 216.308594 262.5 C 223.011719 268.546875 229.957031 274.347656 236.003906 281.132812 C 239.027344 284.5625 242.214844 287.75 245.730469 290.695312 C 249.078125 293.390625 252.183594 296.25 255.128906 299.355469 C 261.011719 305.894531 265.832031 313.167969 272.535156 318.886719 C 278.664062 324.117188 285.285156 328.613281 289.859375 335.316406 C 290.351562 336.296875 290.269531 337.441406 289.535156 338.175781 Z M 289.535156 338.175781 " fill-opacity="1" fill-rule="nonzero"/></g><g clip-path="url(#9751174f5a)"><path fill="#c36226" d="M 70.429688 211.75 C 69.777344 212.074219 69.125 212.484375 68.46875 212.890625 C 67.816406 213.382812 67.324219 214.035156 66.753906 214.609375 C 65.609375 215.753906 64.464844 216.734375 63.238281 217.796875 C 60.707031 220.085938 58.253906 222.371094 56.539062 225.234375 C 55.640625 226.621094 54.902344 228.09375 54.332031 229.644531 C 53.839844 231.199219 53.675781 232.75 53.269531 234.304688 C 52.535156 237.816406 52.042969 241.332031 51.796875 244.847656 C 51.714844 246.644531 51.472656 248.441406 51.0625 250.238281 C 50.816406 251.546875 50.652344 252.9375 50.492188 254.246094 C 50.246094 257.351562 49.183594 260.375 47.546875 262.988281 C 46.566406 264.460938 45.261719 265.6875 43.871094 266.75 C 42.644531 267.730469 41.5 268.710938 40.355469 269.773438 C 37.742188 271.980469 35.042969 274.023438 32.183594 275.902344 C 30.792969 276.800781 29.488281 277.78125 28.097656 278.597656 C 26.707031 279.253906 25.402344 280.070312 24.175781 280.96875 C 22.867188 282.113281 21.398438 283.09375 20.007812 284.074219 C 18.78125 284.890625 17.636719 285.871094 16.65625 286.933594 C 14.449219 288.976562 12.488281 291.183594 10.691406 293.636719 C 9.792969 295.023438 9.054688 296.496094 8.15625 297.886719 C 7.339844 299.191406 6.6875 300.5 6.277344 301.972656 C 5.789062 303.605469 5.132812 305.160156 4.480469 306.792969 C 3.988281 308.265625 3.664062 309.734375 3.5 311.289062 C 2.84375 314.71875 1.863281 317.988281 0.882812 321.339844 C -0.0976562 324.691406 -0.914062 328.125 -1.648438 331.472656 C -1.894531 332.699219 -2.058594 333.925781 -2.304688 335.152344 C -4.183594 334.988281 -6.144531 334.824219 -8.023438 334.578125 C -22.324219 332.78125 -36.300781 329.429688 -50.683594 329.1875 C -52.238281 329.1875 -53.871094 329.105469 -55.425781 329.023438 C -60.898438 328.777344 -66.375 328.53125 -71.769531 329.105469 C -75.121094 329.511719 -78.386719 330.25 -81.820312 330.328125 C -85.253906 330.410156 -88.441406 330.902344 -91.792969 331.308594 C -97.59375 331.964844 -103.070312 330.984375 -108.871094 330.167969 C -109.363281 330.085938 -109.851562 330.003906 -110.425781 329.921875 C -111.976562 329.675781 -113.53125 329.265625 -114.917969 328.695312 C -115.738281 328.367188 -116.554688 327.796875 -117.207031 327.144531 C -117.78125 326.570312 -118.1875 325.835938 -118.351562 325.019531 C -118.515625 324.9375 -118.515625 324.691406 -118.515625 324.445312 C -118.433594 323.628906 -117.941406 322.894531 -117.207031 322.566406 C -117.125 322.320312 -116.960938 322.074219 -116.878906 321.914062 C -116.878906 321.832031 -116.800781 321.832031 -116.800781 321.832031 L -116.71875 321.75 C -113.53125 318.5625 -110.425781 315.210938 -107.15625 312.023438 C -103.804688 308.753906 -100.207031 305.730469 -96.859375 302.460938 C -93.671875 299.4375 -90.15625 296.578125 -87.050781 293.472656 C -83.945312 290.367188 -81.085938 287.179688 -77.734375 284.402344 C -74.382812 281.621094 -71.035156 279.089844 -67.601562 276.554688 C -60.898438 271.570312 -53.707031 267.238281 -46.269531 263.5625 C -38.753906 260.128906 -30.90625 257.511719 -22.898438 255.796875 C -18.730469 254.898438 -14.726562 253.753906 -10.722656 252.363281 C -6.878906 250.8125 -3.203125 248.769531 0.148438 246.316406 C 7.667969 241.167969 13.714844 234.550781 20.496094 228.5 C 23.847656 225.476562 27.363281 222.617188 30.875 219.757812 C 34.308594 216.816406 37.578125 213.710938 40.683594 210.277344 L 40.929688 210.03125 C 43.871094 206.925781 47.140625 204.230469 50.734375 201.859375 C 54.414062 199.40625 57.519531 196.464844 61.03125 193.769531 C 64.546875 191.070312 68.46875 189.027344 72.066406 186.578125 C 75.660156 184.125 79.503906 182.492188 83.179688 180.449219 C 86.53125 178.566406 88.984375 175.953125 91.925781 173.5 C 94.539062 171.214844 97.890625 169.988281 101.324219 170.152344 L 101.8125 170.230469 C 101.484375 170.96875 101.160156 171.621094 100.832031 172.355469 C 99.28125 175.460938 97.238281 178.160156 95.519531 181.183594 C 95.113281 181.917969 93.886719 183.472656 94.210938 184.371094 C 94.375 184.859375 95.113281 185.515625 95.4375 185.921875 C 95.847656 186.496094 96.175781 187.148438 96.335938 187.804688 C 97.15625 190.828125 95.519531 193.605469 93.3125 195.648438 C 91.105469 197.691406 88.738281 199.570312 86.203125 201.289062 C 84.816406 202.1875 83.589844 203.25 82.28125 204.230469 C 81.054688 204.964844 79.746094 205.699219 78.441406 206.355469 C 76.96875 207.171875 75.660156 208.234375 74.273438 209.132812 C 72.882812 210.03125 71.820312 211.011719 70.429688 211.75 Z M 154.769531 313.414062 C 153.871094 310.472656 152.644531 307.609375 151.175781 304.914062 C 150.4375 303.605469 149.539062 302.296875 148.640625 301.074219 C 147.742188 299.929688 146.679688 298.867188 145.78125 297.722656 C 144.882812 296.660156 144.144531 295.433594 143.65625 294.042969 C 143.492188 293.390625 143.246094 292.738281 143.164062 292.082031 C 143.003906 291.347656 142.675781 290.613281 142.511719 289.875 C 142.347656 288.078125 142.347656 286.363281 142.511719 284.5625 C 142.59375 282.847656 143.164062 281.050781 143.410156 279.335938 C 143.574219 277.699219 143.902344 275.984375 144.390625 274.429688 C 145.046875 272.632812 145.535156 270.753906 145.699219 268.792969 C 145.863281 266.992188 145.699219 265.113281 145.699219 263.316406 C 145.78125 262.335938 145.78125 261.4375 145.699219 260.457031 C 145.535156 259.636719 145.453125 258.820312 145.453125 258.085938 C 145.617188 257.433594 145.78125 256.859375 146.027344 256.289062 C 146.1875 255.550781 146.351562 254.898438 146.597656 254.164062 C 147.007812 252.9375 147.742188 251.792969 148.640625 250.894531 C 149.539062 249.996094 149.539062 248.441406 148.640625 247.542969 C 148.476562 247.378906 148.3125 247.296875 148.152344 247.214844 C 147.578125 246.316406 146.515625 245.910156 145.535156 246.152344 C 142.921875 246.480469 140.46875 247.542969 138.261719 249.015625 C 136.300781 250.566406 134.421875 252.285156 132.703125 254.164062 C 131.886719 255.0625 131.070312 256.125 130.171875 257.023438 C 129.109375 258.003906 128.128906 258.984375 127.230469 260.046875 C 125.59375 262.089844 124.125 264.296875 122.816406 266.585938 C 122.324219 267.648438 121.671875 268.546875 120.9375 269.445312 C 120.121094 270.34375 119.382812 271.324219 118.566406 272.304688 C 117.914062 273.121094 117.175781 273.941406 116.359375 274.59375 C 115.296875 275.328125 114.234375 275.984375 113.171875 276.800781 C 109.25 279.90625 106.472656 284.15625 104.101562 288.488281 C 101.566406 293.308594 98.953125 298.050781 96.828125 303.117188 C 95.765625 305.566406 94.785156 308.101562 93.96875 310.632812 C 93.640625 311.695312 93.230469 312.757812 92.742188 313.738281 C 92.089844 314.882812 91.269531 315.945312 90.617188 317.007812 C 90.289062 317.746094 89.800781 318.398438 89.226562 318.96875 C 88.328125 319.625 87.429688 320.359375 86.53125 321.09375 C 85.714844 321.832031 84.894531 322.648438 84.078125 323.382812 C 83.589844 323.875 83.261719 324.445312 82.769531 324.855469 C 82.363281 325.179688 81.871094 325.507812 81.464844 325.753906 C 80.648438 326.488281 79.828125 327.304688 79.09375 328.203125 C 78.195312 329.023438 77.214844 329.839844 76.316406 330.738281 C 74.4375 332.453125 72.71875 334.417969 71.167969 336.460938 C 70.1875 338.011719 69.367188 339.726562 68.878906 341.445312 C 71.25 341.609375 73.699219 341.691406 76.152344 341.769531 C 79.664062 341.933594 83.261719 341.769531 86.777344 341.363281 C 90.125 340.789062 93.476562 340.464844 96.828125 340.382812 C 104.019531 340.300781 111.128906 340.546875 118.320312 340.054688 C 130.335938 339.238281 142.429688 339.238281 154.445312 339.320312 C 154.605469 338.585938 154.6875 337.765625 154.851562 337.03125 C 155.261719 335.398438 155.75 333.84375 156.242188 332.210938 C 156.648438 330.820312 156.894531 329.347656 156.976562 327.878906 C 157.058594 326.160156 157.058594 324.445312 156.976562 322.730469 C 156.730469 319.378906 155.914062 316.355469 154.769531 313.414062 Z M 98.054688 238.878906 C 97.398438 239.78125 96.746094 240.679688 96.011719 241.496094 C 95.273438 242.3125 94.375 243.046875 93.640625 243.867188 C 92.988281 244.765625 92.414062 245.828125 92.007812 246.890625 C 91.515625 247.789062 90.945312 248.605469 90.207031 249.339844 C 88.082031 251.546875 91.351562 254.734375 93.558594 252.691406 C 95.601562 250.566406 98.21875 249.015625 100.667969 247.378906 C 103.203125 245.746094 105.898438 244.4375 108.757812 243.375 C 111.785156 242.230469 114.644531 240.84375 117.421875 239.207031 C 119.546875 237.898438 122.082031 236.101562 123.304688 233.8125 C 123.960938 232.425781 123.960938 230.871094 123.386719 229.5625 C 122.816406 228.09375 122.324219 226.703125 121.917969 225.152344 C 121.507812 223.84375 121.34375 222.453125 121.261719 221.066406 C 121.261719 219.511719 121.34375 217.960938 121.34375 216.40625 C 121.34375 215.015625 121.507812 213.710938 121.835938 212.402344 C 122.164062 210.929688 122.898438 209.542969 123.386719 208.070312 C 123.878906 206.761719 124.207031 205.375 124.289062 203.984375 C 124.207031 202.59375 123.796875 201.289062 123.144531 200.144531 C 121.917969 197.855469 119.957031 195.15625 117.75 193.769531 C 116.605469 193.035156 115.378906 192.625 114.316406 191.808594 C 113.171875 190.746094 111.621094 190.171875 110.066406 190.007812 C 107.699219 189.929688 107.207031 192.707031 108.433594 194.015625 C 108.839844 194.832031 109.25 195.730469 109.578125 196.628906 C 109.820312 197.691406 110.066406 198.835938 110.148438 199.980469 C 110.230469 200.386719 110.3125 200.796875 110.476562 201.207031 C 110.476562 201.371094 110.558594 201.371094 110.558594 201.371094 C 110.476562 201.449219 110.476562 201.613281 110.476562 201.695312 C 110.148438 202.675781 110.066406 203.65625 109.742188 204.636719 C 109.085938 206.597656 108.023438 208.480469 107.289062 210.441406 C 106.472656 212.074219 105.652344 213.628906 104.671875 215.097656 C 103.691406 216.976562 103.121094 219.023438 103.203125 221.144531 C 103.285156 223.351562 103.203125 225.476562 102.875 227.601562 C 102.710938 228.582031 102.386719 229.644531 102.140625 230.625 C 101.976562 231.605469 101.648438 232.585938 101.242188 233.570312 C 100.261719 235.449219 99.199219 237.164062 98.054688 238.878906 Z M 253.246094 335.234375 C 250.386719 333.191406 247.199219 331.636719 244.257812 329.757812 C 242.789062 328.941406 241.398438 328.042969 240.089844 327.0625 C 238.78125 326 237.558594 324.9375 236.25 323.875 C 233.46875 321.585938 232.082031 318.644531 230.527344 315.539062 C 229.710938 313.902344 228.8125 312.351562 227.914062 310.714844 C 227.097656 309.246094 226.441406 307.609375 225.460938 306.222656 C 224.480469 304.832031 223.171875 303.933594 222.191406 302.625 C 221.128906 301.15625 219.824219 299.929688 218.351562 298.949219 C 217.863281 298.621094 217.371094 298.375 216.878906 298.128906 C 216.71875 298.050781 216.144531 297.640625 216.0625 297.640625 C 215.574219 297.230469 215.082031 296.824219 214.59375 296.414062 C 214.019531 295.925781 213.367188 295.515625 212.710938 295.1875 C 212.140625 294.941406 211.570312 294.78125 210.996094 294.453125 C 210.589844 294.125 210.261719 293.800781 209.851562 293.554688 C 208.871094 292.820312 208.542969 291.757812 207.808594 290.695312 C 206.910156 289.46875 205.683594 288.40625 204.375 287.589844 C 203.234375 286.851562 202.496094 285.707031 201.269531 285.054688 C 200.046875 284.402344 198.820312 283.828125 197.59375 283.175781 C 194.980469 281.621094 192.117188 280.316406 189.175781 279.335938 C 187.785156 278.925781 186.070312 280.070312 186.152344 281.621094 C 186.234375 282.441406 186.480469 283.175781 186.96875 283.828125 C 187.132812 284.15625 187.378906 284.402344 187.625 284.726562 L 188.113281 285.382812 C 188.765625 286.28125 189.175781 287.179688 189.75 288.078125 C 190.320312 288.976562 190.972656 289.792969 191.464844 290.777344 C 192.527344 292.65625 192.855469 295.105469 193.34375 297.148438 C 193.753906 299.273438 194.734375 301.316406 196.121094 302.953125 C 197.511719 304.585938 199.226562 305.894531 200.699219 307.445312 C 202.171875 309 203.722656 310.878906 205.195312 312.597656 C 205.847656 313.414062 206.582031 314.148438 207.320312 314.882812 C 208.21875 315.539062 209.035156 316.355469 209.769531 317.171875 C 210.425781 317.988281 210.996094 318.726562 211.648438 319.460938 C 212.304688 320.195312 212.140625 320.523438 212.058594 321.339844 C 211.976562 323.546875 211.242188 325.507812 211.976562 327.714844 C 212.710938 329.921875 212.875 332.292969 213.449219 334.578125 C 213.449219 334.742188 213.53125 334.90625 213.53125 335.070312 C 215.980469 334.90625 218.433594 334.824219 220.886719 334.90625 C 227.257812 334.988281 233.550781 335.480469 239.925781 335.398438 C 243.441406 335.398438 247.117188 335.152344 250.550781 335.398438 C 251.613281 335.480469 252.757812 335.722656 253.820312 335.886719 C 253.902344 335.722656 253.574219 335.476562 253.246094 335.234375 Z M 253.246094 335.234375 " fill-opacity="1" fill-rule="nonzero"/></g><path fill="#c36226" d="M 40.847656 210.195312 L 41.09375 209.949219 C 40.929688 210.847656 40.519531 211.75 39.949219 212.484375 C 39.539062 213.054688 38.96875 213.464844 38.640625 214.035156 C 38.3125 214.609375 37.824219 215.425781 37.332031 216.078125 C 36.105469 217.46875 34.800781 218.777344 33.328125 219.921875 C 30.632812 222.371094 28.261719 225.070312 26.21875 228.011719 C 24.011719 231.199219 21.804688 234.632812 19.351562 237.574219 C 17.148438 240.269531 14.53125 242.722656 12.652344 245.746094 C 11.671875 247.214844 10.527344 248.605469 9.300781 249.914062 C 8.238281 251.222656 7.09375 252.527344 5.867188 253.671875 C 3.007812 256.207031 -0.421875 258.085938 -3.855469 259.800781 C -5.652344 260.699219 -7.453125 261.601562 -9.167969 262.5 C -10.882812 263.316406 -12.4375 264.214844 -13.988281 265.277344 C -15.378906 266.257812 -16.6875 267.320312 -17.832031 268.546875 C -19.058594 269.855469 -20.039062 271.324219 -21.183594 272.714844 C -22.324219 274.023438 -23.550781 275.246094 -24.859375 276.390625 C -25.511719 277.046875 -26.167969 277.699219 -26.65625 278.515625 C -27.230469 279.171875 -27.882812 279.824219 -28.617188 280.394531 C -30.007812 281.621094 -31.316406 283.011719 -32.703125 284.238281 C -34.09375 285.464844 -35.566406 286.6875 -36.871094 287.996094 C -39.40625 290.613281 -42.347656 292.980469 -44.71875 295.761719 C -46.925781 298.539062 -48.886719 301.5625 -50.519531 304.75 C -51.417969 306.140625 -52.15625 307.691406 -52.644531 309.246094 C -53.136719 310.960938 -53.382812 312.757812 -53.953125 314.558594 C -54.28125 315.375 -54.445312 316.273438 -54.523438 317.171875 C -54.605469 318.070312 -54.6875 319.050781 -54.851562 319.949219 C -55.261719 321.914062 -55.425781 323.792969 -55.425781 325.753906 C -55.425781 326.898438 -55.425781 328.042969 -55.425781 329.105469 C -60.898438 328.859375 -66.375 328.613281 -71.769531 329.1875 C -75.121094 329.59375 -78.386719 330.328125 -81.820312 330.410156 C -85.253906 330.492188 -88.441406 330.984375 -91.792969 331.390625 C -97.59375 332.046875 -103.070312 331.066406 -108.871094 330.25 C -109.363281 330.167969 -109.851562 330.085938 -110.425781 330.003906 C -111.976562 329.757812 -113.449219 329.347656 -114.917969 328.777344 C -115.738281 328.449219 -116.554688 327.878906 -117.207031 327.222656 C -117.78125 326.652344 -118.1875 325.917969 -118.351562 325.097656 C -118.515625 325.019531 -118.515625 324.773438 -118.515625 324.527344 C -118.433594 323.710938 -117.941406 322.976562 -117.207031 322.648438 C -117.125 322.402344 -116.960938 322.15625 -116.878906 321.992188 C -116.878906 321.992188 -116.800781 321.914062 -116.800781 321.914062 L -116.71875 321.832031 C -113.53125 318.644531 -110.425781 315.292969 -107.15625 312.105469 C -103.804688 308.835938 -100.207031 305.8125 -96.859375 302.542969 C -93.671875 299.519531 -90.15625 296.660156 -87.050781 293.554688 C -83.945312 290.449219 -81.085938 287.261719 -77.734375 284.484375 C -74.382812 281.703125 -71.035156 279.171875 -67.601562 276.636719 C -60.898438 271.652344 -53.707031 267.238281 -46.269531 263.5625 C -38.753906 260.128906 -30.90625 257.511719 -22.898438 255.796875 C -18.730469 254.898438 -14.726562 253.753906 -10.722656 252.363281 C -6.878906 250.8125 -3.203125 248.769531 0.148438 246.316406 C 7.667969 241.167969 13.714844 234.550781 20.496094 228.5 C 23.847656 225.476562 27.363281 222.617188 30.875 219.757812 C 34.472656 216.734375 37.824219 213.546875 40.847656 210.195312 Z M 136.21875 302.214844 C 135.074219 299.929688 134.09375 297.722656 132.785156 295.515625 C 130.417969 291.511719 130.5 286.445312 133.113281 282.519531 C 133.765625 281.378906 133.359375 279.90625 132.214844 279.253906 C 131.886719 279.089844 131.480469 278.925781 131.070312 278.925781 C 129.519531 279.007812 128.945312 279.90625 128.128906 281.050781 C 127.3125 281.949219 126.492188 282.765625 125.59375 283.582031 C 123.550781 285.625 121.753906 287.832031 120.121094 290.203125 C 118.566406 292.574219 117.257812 295.105469 116.277344 297.804688 C 115.378906 300.253906 115.296875 302.871094 114.5625 305.402344 C 113.664062 307.9375 112.601562 310.390625 111.292969 312.757812 C 110.722656 313.984375 109.984375 315.128906 109.496094 316.4375 C 109.332031 316.925781 109.085938 317.417969 108.839844 317.90625 C 108.433594 318.5625 107.859375 319.050781 107.453125 319.707031 C 106.878906 320.6875 106.144531 321.585938 105.410156 322.402344 C 104.347656 323.546875 103.285156 324.773438 102.304688 325.917969 C 100.667969 328.042969 99.117188 330.410156 97.890625 332.78125 C 96.5 335.070312 95.4375 337.601562 94.785156 340.21875 C 95.519531 340.136719 96.175781 340.136719 96.910156 340.136719 C 104.101562 340.054688 111.210938 340.300781 118.402344 339.808594 C 123.0625 339.484375 127.800781 339.320312 132.460938 339.15625 L 132.542969 339.074219 C 134.910156 334.660156 136.382812 329.839844 137.609375 324.9375 C 138.996094 319.871094 139.40625 314.558594 138.753906 309.410156 C 138.179688 306.957031 137.363281 304.503906 136.21875 302.214844 Z M 232.246094 332.617188 C 231.425781 330.902344 230.527344 329.1875 229.792969 327.46875 C 229.058594 325.753906 228.566406 323.875 227.832031 322.074219 C 227.097656 320.359375 226.117188 318.644531 224.972656 317.171875 C 224.398438 316.355469 223.746094 315.621094 223.089844 314.964844 C 222.765625 314.71875 222.4375 314.476562 222.109375 314.230469 C 222.109375 314.230469 222.03125 314.148438 222.03125 314.148438 C 221.703125 313.496094 221.210938 313.003906 220.640625 312.675781 C 219.003906 311.859375 216.308594 313.332031 217.207031 315.375 C 217.371094 315.703125 217.535156 316.027344 217.699219 316.273438 C 217.78125 316.273438 217.941406 316.355469 217.941406 316.519531 C 217.941406 316.4375 217.941406 316.519531 217.941406 316.601562 L 217.863281 316.519531 L 217.941406 316.683594 C 218.023438 317.007812 218.105469 317.253906 218.1875 317.582031 C 218.515625 318.808594 218.84375 319.949219 219.25 321.09375 C 219.984375 323.300781 220.394531 325.507812 220.640625 327.796875 C 220.722656 328.613281 220.722656 329.429688 220.558594 330.25 C 220.476562 330.820312 220.476562 331.390625 220.3125 331.964844 C 220.148438 332.371094 219.984375 332.863281 219.742188 333.273438 C 219.496094 333.84375 219.414062 334.417969 219.414062 334.988281 L 221.292969 334.988281 C 225.460938 335.070312 229.546875 335.316406 233.714844 335.398438 C 233.0625 334.417969 232.652344 333.433594 232.246094 332.617188 Z M 111.292969 231.035156 C 112.519531 231.363281 113.828125 230.625 114.234375 229.402344 C 114.480469 228.257812 114.5625 227.113281 114.726562 225.96875 C 114.890625 224.824219 115.378906 223.597656 115.625 222.371094 C 115.871094 221.144531 115.625 219.921875 115.871094 218.613281 C 116.113281 217.304688 116.113281 215.996094 116.113281 214.609375 C 116.03125 214.199219 116.03125 213.710938 116.113281 213.300781 C 116.277344 212.808594 116.523438 212.402344 116.769531 211.992188 C 117.175781 210.929688 117.421875 209.867188 117.585938 208.722656 C 117.832031 207.582031 118.320312 206.597656 118.484375 205.457031 C 118.648438 204.3125 117.996094 203.167969 117.914062 201.941406 C 117.75 198.917969 113.007812 198.917969 113.171875 201.941406 C 113.171875 202.59375 113.335938 203.167969 113.417969 203.820312 C 113.5 204.066406 113.5 204.230469 113.582031 204.476562 C 113.582031 204.554688 113.746094 205.128906 113.746094 204.964844 C 113.746094 205.699219 113.007812 207.171875 112.847656 208.152344 C 112.683594 208.96875 112.519531 209.785156 112.109375 210.523438 C 111.457031 211.667969 111.210938 212.972656 111.210938 214.199219 C 111.292969 215.34375 111.292969 216.40625 111.128906 217.550781 C 110.964844 218.203125 110.882812 218.941406 110.882812 219.59375 C 110.964844 220.085938 110.964844 220.574219 110.964844 221.066406 C 110.882812 222.289062 110.3125 223.515625 110.066406 224.660156 C 109.820312 225.804688 109.742188 226.949219 109.578125 228.09375 C 109.332031 229.402344 110.066406 230.625 111.292969 231.035156 Z M 111.292969 231.035156 " fill-opacity="1" fill-rule="nonzero"/><g clip-path="url(#5cce092272)"><path fill="#e47837" d="M 289.535156 338.175781 C 289.125 338.746094 288.390625 339.15625 287.734375 339.074219 C 284.875 339.15625 282.097656 338.910156 279.316406 338.421875 C 276.128906 337.765625 273.351562 336.539062 270 336.460938 L 269.347656 336.460938 C 268.855469 335.804688 268.285156 335.152344 267.714844 334.496094 C 266.160156 332.535156 264.769531 330.410156 263.464844 328.285156 C 262.15625 326.324219 260.683594 324.527344 258.96875 322.8125 C 255.535156 319.214844 252.265625 315.375 249.324219 311.371094 C 247.773438 309.328125 246.054688 307.445312 244.421875 305.566406 C 243.523438 304.585938 242.707031 303.605469 242.050781 302.460938 C 241.480469 301.5625 241.070312 300.664062 240.582031 299.765625 C 239.355469 297.886719 237.800781 296.167969 236.085938 294.78125 C 235.105469 293.882812 234.207031 292.980469 233.226562 292.164062 C 232.328125 291.511719 231.507812 290.773438 230.691406 289.957031 C 229.140625 288.324219 227.914062 286.363281 226.277344 284.890625 C 224.644531 283.421875 222.683594 281.785156 220.96875 280.152344 C 219.25 278.515625 217.207031 277.046875 215.410156 275.410156 C 213.613281 273.777344 211.894531 272.140625 210.015625 270.671875 C 208.136719 269.199219 206.09375 267.972656 203.96875 266.910156 C 201.84375 265.847656 199.882812 264.625 197.921875 263.234375 C 197.101562 262.5 196.203125 261.84375 195.222656 261.273438 C 194.242188 260.78125 193.34375 260.375 192.445312 259.800781 C 190.320312 258.496094 188.195312 257.351562 186.234375 255.878906 C 184.273438 254.570312 182.476562 253.019531 180.839844 251.300781 C 179.207031 249.503906 177.816406 247.460938 176.265625 245.582031 C 173.238281 241.90625 170.542969 237.898438 167.027344 234.710938 C 163.269531 231.28125 158.855469 228.582031 154.6875 225.722656 C 152.644531 224.332031 150.765625 222.78125 148.886719 221.308594 C 146.925781 219.921875 145.046875 218.449219 143.246094 216.816406 C 141.53125 215.179688 139.976562 213.382812 138.34375 211.585938 C 136.710938 209.785156 134.828125 208.152344 133.277344 206.355469 C 130.089844 202.757812 127.066406 199.082031 125.023438 194.75 C 124.449219 193.605469 124.125 192.460938 123.714844 191.316406 C 123.304688 190.171875 122.734375 189.191406 122.246094 188.210938 C 121.34375 186.414062 120.691406 184.535156 119.300781 182.980469 C 116.195312 179.628906 112.355469 177.261719 109.414062 173.746094 C 109.085938 173.335938 108.757812 172.929688 108.433594 172.601562 C 109.496094 173.175781 110.476562 173.828125 111.621094 174.320312 C 115.707031 176.28125 119.710938 177.667969 123.304688 180.449219 C 125.023438 181.59375 126.574219 183.0625 127.964844 184.617188 C 128.945312 186.085938 129.84375 187.640625 130.5 189.273438 C 132.214844 192.871094 135.074219 196.140625 137.691406 199.164062 C 140.386719 202.351562 143.492188 205.128906 146.84375 207.5 C 150.4375 209.949219 153.625 213.054688 157.710938 214.855469 C 161.390625 216.570312 164.984375 217.960938 168.253906 220.492188 C 171.195312 223.027344 173.976562 225.886719 176.507812 228.828125 C 179.125 231.933594 181.902344 234.710938 185.089844 237.246094 C 188.6875 240.023438 192.28125 242.558594 195.714844 245.5 C 202.578125 251.382812 209.933594 256.53125 216.636719 262.582031 C 223.335938 268.628906 230.285156 274.429688 236.332031 281.214844 C 239.355469 284.644531 242.542969 287.832031 246.054688 290.773438 C 249.40625 293.472656 252.511719 296.332031 255.453125 299.4375 C 261.339844 305.976562 266.160156 313.25 272.863281 318.96875 C 278.992188 324.199219 285.609375 328.695312 290.1875 335.398438 C 290.351562 336.296875 290.269531 337.441406 289.535156 338.175781 Z M 289.535156 338.175781 " fill-opacity="1" fill-rule="nonzero"/></g><g clip-path="url(#d941e489e0)"><path fill="#e47837" d="M 418.527344 369.851562 C 418.269531 370.210938 417.808594 370.46875 417.398438 370.417969 C 415.601562 370.46875 413.859375 370.316406 412.113281 370.007812 C 410.113281 369.597656 408.367188 368.828125 406.265625 368.773438 L 405.855469 368.773438 C 404.007812 368.773438 402.109375 368.878906 400.261719 368.929688 C 398.980469 368.929688 397.644531 368.722656 396.414062 368.417969 C 395.746094 368.261719 395.027344 368.160156 394.359375 368.109375 C 392.15625 367.902344 389.898438 368.058594 387.691406 368.109375 C 386.304688 368.109375 384.921875 368.109375 383.535156 368.058594 C 380.917969 368.003906 378.351562 367.851562 375.734375 367.800781 L 374.554688 367.800781 C 373.425781 367.800781 372.246094 367.851562 371.117188 367.953125 C 370.65625 368.003906 370.246094 368.058594 369.785156 368.109375 C 367.886719 368.417969 366.140625 369.082031 364.34375 369.597656 C 360.34375 370.671875 356.238281 370.46875 352.082031 370.46875 L 338.332031 370.46875 C 336.792969 370.46875 335.253906 370.46875 333.714844 370.46875 C 329.09375 370.46875 324.476562 370.46875 319.859375 370.570312 C 316.933594 370.621094 313.960938 370.777344 311.035156 370.980469 C 306.519531 371.289062 302.054688 371.136719 297.539062 371.1875 C 297.078125 371.1875 296.617188 371.1875 296.207031 371.238281 C 294.5625 371.339844 292.921875 371.597656 291.230469 371.800781 C 289.023438 372.058594 286.765625 372.160156 284.558594 372.058594 C 283.019531 372.007812 281.53125 371.957031 279.992188 371.855469 C 276.964844 371.699219 273.886719 371.441406 270.859375 371.339844 C 266.445312 371.1875 262.035156 371.1875 257.621094 370.828125 C 253.210938 370.46875 248.898438 370.109375 244.640625 369.238281 C 242.484375 368.722656 240.332031 368.414062 238.175781 368.3125 C 237.199219 368.261719 236.226562 368.210938 235.25 368.160156 C 234.070312 368.058594 232.839844 367.953125 231.660156 367.800781 C 222.679688 366.671875 213.90625 364.566406 204.875 364.414062 C 200.464844 364.363281 196 363.902344 191.636719 364.414062 C 189.535156 364.671875 187.480469 365.132812 185.328125 365.183594 C 183.171875 365.234375 181.171875 365.542969 179.066406 365.800781 C 175.425781 366.210938 171.988281 365.59375 168.34375 365.082031 C 166.292969 364.773438 162.90625 364.3125 162.390625 361.796875 C 162.238281 361.128906 162.546875 360.410156 163.160156 360.15625 C 163.210938 359.949219 163.367188 359.746094 163.519531 359.589844 C 165.523438 357.589844 167.472656 355.484375 169.523438 353.484375 C 171.628906 351.433594 173.886719 349.535156 175.988281 347.480469 C 177.988281 345.582031 180.195312 343.789062 182.144531 341.835938 C 184.097656 339.886719 185.890625 337.886719 187.996094 336.140625 C 190.097656 334.398438 192.203125 332.808594 194.359375 331.21875 C 198.566406 328.035156 203.082031 325.316406 207.800781 322.957031 C 212.519531 320.800781 217.445312 319.160156 222.476562 318.082031 C 225.089844 317.515625 227.605469 316.800781 230.121094 315.925781 C 232.53125 314.953125 234.839844 313.667969 236.945312 312.128906 C 241.664062 308.898438 245.460938 304.742188 249.71875 300.945312 C 251.824219 299.046875 254.03125 297.25 256.238281 295.453125 C 258.390625 293.605469 260.445312 291.65625 262.394531 289.503906 C 264.292969 287.5 266.394531 285.757812 268.703125 284.21875 C 271.011719 282.679688 272.964844 280.832031 275.167969 279.136719 C 277.375 277.445312 279.839844 276.160156 282.097656 274.621094 C 284.355469 273.082031 286.765625 272.058594 289.074219 270.773438 C 291.179688 269.59375 292.71875 267.953125 294.5625 266.414062 C 296.207031 264.976562 298.308594 264.207031 300.464844 264.308594 L 300.773438 264.359375 C 302.210938 264.515625 303.390625 265.183594 304.621094 265.847656 C 305.289062 266.207031 305.902344 266.617188 306.621094 266.925781 C 309.1875 268.15625 311.703125 269.03125 313.960938 270.773438 C 315.035156 271.492188 316.011719 272.417969 316.882812 273.390625 C 317.5 274.316406 318.0625 275.289062 318.472656 276.316406 C 319.550781 278.574219 321.347656 280.625 322.988281 282.523438 C 324.683594 284.527344 326.632812 286.269531 328.738281 287.757812 C 330.992188 289.296875 332.996094 291.246094 335.558594 292.375 C 337.871094 293.453125 340.128906 294.324219 342.179688 295.917969 C 344.027344 297.507812 345.769531 299.25 347.363281 301.148438 C 349.003906 303.097656 350.746094 304.84375 352.75 306.433594 C 355.007812 308.179688 357.265625 309.769531 359.417969 311.617188 C 363.730469 315.3125 368.347656 318.542969 372.554688 322.339844 C 376.761719 326.136719 381.125 329.78125 384.921875 334.039062 C 386.820312 336.195312 388.820312 338.195312 391.027344 340.042969 C 393.128906 341.734375 395.078125 343.53125 396.925781 345.480469 C 400.621094 349.585938 403.648438 354.152344 407.855469 357.742188 C 411.703125 361.027344 415.859375 363.847656 418.734375 368.058594 C 419.039062 368.671875 418.988281 369.390625 418.527344 369.851562 Z M 418.527344 369.851562 " fill-opacity="1" fill-rule="nonzero"/></g><g clip-path="url(#2b47960d8a)"><path fill="#c36226" d="M 280.96875 290.476562 C 280.558594 290.683594 280.148438 290.9375 279.734375 291.195312 C 279.324219 291.503906 279.019531 291.914062 278.660156 292.273438 C 277.941406 292.992188 277.222656 293.605469 276.453125 294.273438 C 274.863281 295.710938 273.324219 297.148438 272.246094 298.941406 C 271.679688 299.816406 271.21875 300.738281 270.859375 301.714844 C 270.550781 302.6875 270.449219 303.664062 270.191406 304.636719 C 269.730469 306.84375 269.421875 309.050781 269.269531 311.257812 C 269.21875 312.386719 269.0625 313.515625 268.808594 314.644531 C 268.652344 315.464844 268.550781 316.335938 268.449219 317.15625 C 268.292969 319.109375 267.628906 321.007812 266.601562 322.648438 C 265.984375 323.570312 265.164062 324.339844 264.292969 325.007812 C 263.523438 325.625 262.804688 326.238281 262.085938 326.90625 C 260.445312 328.292969 258.75 329.574219 256.953125 330.753906 C 256.082031 331.320312 255.261719 331.933594 254.390625 332.449219 C 253.515625 332.859375 252.695312 333.371094 251.925781 333.9375 C 251.105469 334.65625 250.183594 335.269531 249.308594 335.886719 C 248.539062 336.398438 247.820312 337.015625 247.207031 337.683594 C 245.820312 338.964844 244.589844 340.351562 243.460938 341.890625 C 242.894531 342.761719 242.433594 343.683594 241.871094 344.558594 C 241.355469 345.378906 240.945312 346.199219 240.691406 347.121094 C 240.382812 348.148438 239.972656 349.125 239.5625 350.148438 C 239.253906 351.074219 239.046875 351.996094 238.945312 352.972656 C 238.535156 355.125 237.917969 357.179688 237.304688 359.28125 C 236.6875 361.386719 236.175781 363.542969 235.710938 365.644531 C 235.558594 366.414062 235.457031 367.183594 235.300781 367.953125 C 234.121094 367.851562 232.890625 367.75 231.710938 367.59375 C 222.730469 366.464844 213.957031 364.363281 204.925781 364.207031 C 203.953125 364.207031 202.925781 364.15625 201.953125 364.105469 C 198.511719 363.953125 195.074219 363.796875 191.691406 364.15625 C 189.585938 364.414062 187.535156 364.875 185.378906 364.925781 C 183.222656 364.976562 181.222656 365.285156 179.117188 365.542969 C 175.476562 365.953125 172.039062 365.335938 168.394531 364.824219 C 168.085938 364.773438 167.78125 364.722656 167.421875 364.671875 C 166.445312 364.515625 165.46875 364.261719 164.597656 363.902344 C 164.085938 363.695312 163.570312 363.335938 163.160156 362.925781 C 162.800781 362.566406 162.546875 362.105469 162.441406 361.59375 C 162.339844 361.539062 162.339844 361.386719 162.339844 361.234375 C 162.390625 360.71875 162.699219 360.257812 163.160156 360.050781 C 163.210938 359.898438 163.316406 359.746094 163.367188 359.640625 C 163.367188 359.589844 163.417969 359.589844 163.417969 359.589844 L 163.46875 359.539062 C 165.46875 357.539062 167.421875 355.433594 169.472656 353.433594 C 171.578125 351.382812 173.832031 349.484375 175.9375 347.429688 C 177.9375 345.53125 180.144531 343.734375 182.09375 341.785156 C 184.042969 339.835938 185.839844 337.835938 187.945312 336.089844 C 190.046875 334.347656 192.152344 332.757812 194.304688 331.164062 C 198.511719 328.035156 203.027344 325.316406 207.699219 323.007812 C 212.417969 320.851562 217.34375 319.210938 222.371094 318.132812 C 224.988281 317.570312 227.503906 316.851562 230.015625 315.976562 C 232.429688 315.003906 234.738281 313.71875 236.839844 312.179688 C 241.5625 308.949219 245.359375 304.792969 249.617188 300.996094 C 251.722656 299.097656 253.925781 297.300781 256.132812 295.503906 C 258.289062 293.660156 260.339844 291.707031 262.289062 289.554688 L 262.445312 289.398438 C 264.292969 287.449219 266.34375 285.757812 268.601562 284.269531 C 270.910156 282.730469 272.859375 280.882812 275.066406 279.1875 C 277.273438 277.496094 279.734375 276.214844 281.992188 274.675781 C 284.25 273.136719 286.664062 272.109375 288.972656 270.824219 C 291.074219 269.644531 292.613281 268.003906 294.460938 266.464844 C 296.105469 265.027344 298.207031 264.257812 300.363281 264.359375 L 300.671875 264.414062 C 300.464844 264.875 300.261719 265.285156 300.054688 265.746094 C 299.078125 267.695312 297.796875 269.390625 296.71875 271.289062 C 296.460938 271.75 295.691406 272.722656 295.898438 273.289062 C 296 273.597656 296.460938 274.007812 296.667969 274.261719 C 296.925781 274.621094 297.128906 275.035156 297.234375 275.445312 C 297.746094 277.34375 296.71875 279.085938 295.335938 280.371094 C 293.949219 281.652344 292.460938 282.832031 290.871094 283.910156 C 289.996094 284.472656 289.226562 285.140625 288.40625 285.757812 C 287.636719 286.21875 286.816406 286.679688 285.996094 287.089844 C 285.070312 287.605469 284.25 288.269531 283.378906 288.835938 C 282.507812 289.398438 281.839844 290.015625 280.96875 290.476562 Z M 333.917969 354.304688 C 333.355469 352.457031 332.585938 350.664062 331.660156 348.96875 C 331.199219 348.148438 330.636719 347.328125 330.070312 346.558594 C 329.507812 345.839844 328.839844 345.171875 328.273438 344.453125 C 327.710938 343.789062 327.25 343.019531 326.941406 342.144531 C 326.839844 341.734375 326.683594 341.324219 326.632812 340.914062 C 326.53125 340.453125 326.324219 339.992188 326.222656 339.527344 C 326.121094 338.398438 326.121094 337.324219 326.222656 336.195312 C 326.273438 335.117188 326.632812 333.988281 326.785156 332.910156 C 326.890625 331.882812 327.09375 330.804688 327.402344 329.832031 C 327.8125 328.703125 328.121094 327.523438 328.222656 326.292969 C 328.324219 325.164062 328.222656 323.980469 328.222656 322.851562 C 328.273438 322.238281 328.273438 321.671875 328.222656 321.058594 C 328.121094 320.542969 328.070312 320.03125 328.070312 319.570312 C 328.171875 319.160156 328.273438 318.800781 328.429688 318.441406 C 328.53125 317.980469 328.632812 317.570312 328.789062 317.105469 C 329.042969 316.335938 329.507812 315.617188 330.070312 315.054688 C 330.636719 314.488281 330.636719 313.515625 330.070312 312.949219 C 329.96875 312.847656 329.863281 312.796875 329.761719 312.746094 C 329.402344 312.179688 328.738281 311.925781 328.121094 312.078125 C 326.480469 312.285156 324.941406 312.949219 323.554688 313.875 C 322.324219 314.847656 321.144531 315.925781 320.066406 317.105469 C 319.550781 317.671875 319.039062 318.339844 318.472656 318.902344 C 317.808594 319.519531 317.191406 320.132812 316.628906 320.800781 C 315.601562 322.082031 314.675781 323.46875 313.855469 324.90625 C 313.550781 325.574219 313.136719 326.136719 312.675781 326.703125 C 312.164062 327.265625 311.703125 327.882812 311.1875 328.496094 C 310.777344 329.011719 310.316406 329.523438 309.804688 329.933594 C 309.136719 330.394531 308.46875 330.804688 307.800781 331.320312 C 305.339844 333.269531 303.59375 335.9375 302.105469 338.65625 C 300.515625 341.683594 298.875 344.660156 297.539062 347.839844 C 296.875 349.378906 296.257812 350.972656 295.746094 352.5625 C 295.539062 353.226562 295.28125 353.894531 294.976562 354.511719 C 294.566406 355.230469 294.050781 355.898438 293.640625 356.5625 C 293.4375 357.023438 293.128906 357.4375 292.769531 357.796875 C 292.203125 358.207031 291.640625 358.667969 291.074219 359.128906 C 290.5625 359.589844 290.050781 360.105469 289.535156 360.566406 C 289.226562 360.875 289.023438 361.234375 288.714844 361.488281 C 288.457031 361.695312 288.152344 361.898438 287.894531 362.054688 C 287.382812 362.515625 286.867188 363.027344 286.40625 363.59375 C 285.84375 364.105469 285.226562 364.621094 284.660156 365.183594 C 283.480469 366.261719 282.402344 367.492188 281.429688 368.773438 C 280.8125 369.75 280.300781 370.828125 279.992188 371.90625 C 281.480469 372.007812 283.019531 372.058594 284.558594 372.109375 C 286.765625 372.214844 289.023438 372.109375 291.230469 371.855469 C 293.332031 371.496094 295.4375 371.289062 297.539062 371.238281 C 302.054688 371.1875 306.519531 371.339844 311.035156 371.03125 C 318.578125 370.519531 326.171875 370.519531 333.714844 370.570312 C 333.816406 370.109375 333.867188 369.597656 333.96875 369.132812 C 334.226562 368.109375 334.535156 367.132812 334.84375 366.105469 C 335.097656 365.234375 335.253906 364.3125 335.304688 363.386719 C 335.355469 362.308594 335.355469 361.234375 335.304688 360.15625 C 335.148438 358.050781 334.636719 356.152344 333.917969 354.304688 Z M 298.308594 307.511719 C 297.898438 308.078125 297.488281 308.640625 297.027344 309.152344 C 296.566406 309.667969 296 310.128906 295.539062 310.640625 C 295.128906 311.207031 294.769531 311.875 294.511719 312.539062 C 294.207031 313.105469 293.847656 313.617188 293.382812 314.078125 C 292.050781 315.464844 294.101562 317.464844 295.488281 316.183594 C 296.769531 314.847656 298.414062 313.875 299.953125 312.847656 C 301.542969 311.820312 303.234375 311 305.03125 310.335938 C 306.929688 309.617188 308.726562 308.742188 310.46875 307.71875 C 311.804688 306.894531 313.394531 305.765625 314.164062 304.332031 C 314.574219 303.457031 314.574219 302.484375 314.214844 301.664062 C 313.855469 300.738281 313.550781 299.867188 313.292969 298.890625 C 313.035156 298.070312 312.933594 297.199219 312.882812 296.328125 C 312.882812 295.351562 312.933594 294.375 312.933594 293.402344 C 312.933594 292.53125 313.035156 291.707031 313.242188 290.886719 C 313.445312 289.964844 313.90625 289.09375 314.214844 288.167969 C 314.523438 287.347656 314.730469 286.476562 314.78125 285.601562 C 314.730469 284.730469 314.472656 283.910156 314.0625 283.191406 C 313.292969 281.753906 312.0625 280.0625 310.675781 279.1875 C 309.957031 278.726562 309.1875 278.472656 308.519531 277.957031 C 307.800781 277.289062 306.828125 276.933594 305.851562 276.828125 C 304.363281 276.777344 304.058594 278.523438 304.828125 279.34375 C 305.082031 279.855469 305.339844 280.421875 305.542969 280.984375 C 305.699219 281.652344 305.851562 282.371094 305.902344 283.089844 C 305.957031 283.34375 306.007812 283.601562 306.109375 283.859375 C 306.109375 283.960938 306.160156 283.960938 306.160156 283.960938 C 306.109375 284.011719 306.109375 284.113281 306.109375 284.167969 C 305.902344 284.78125 305.851562 285.398438 305.648438 286.011719 C 305.238281 287.246094 304.570312 288.425781 304.109375 289.65625 C 303.59375 290.683594 303.082031 291.65625 302.464844 292.582031 C 301.851562 293.761719 301.492188 295.042969 301.542969 296.378906 C 301.59375 297.761719 301.542969 299.097656 301.335938 300.429688 C 301.234375 301.046875 301.03125 301.714844 300.875 302.328125 C 300.773438 302.945312 300.566406 303.5625 300.3125 304.175781 C 299.695312 305.355469 299.027344 306.433594 298.308594 307.511719 Z M 395.746094 368.003906 C 393.949219 366.722656 391.949219 365.746094 390.101562 364.566406 C 389.179688 364.054688 388.304688 363.492188 387.484375 362.875 C 386.664062 362.207031 385.894531 361.539062 385.074219 360.875 C 383.328125 359.4375 382.457031 357.589844 381.480469 355.640625 C 380.96875 354.613281 380.40625 353.640625 379.839844 352.613281 C 379.328125 351.6875 378.917969 350.664062 378.300781 349.789062 C 377.683594 348.917969 376.863281 348.355469 376.25 347.53125 C 375.582031 346.609375 374.761719 345.839844 373.835938 345.222656 C 373.527344 345.019531 373.222656 344.863281 372.914062 344.710938 C 372.8125 344.660156 372.453125 344.402344 372.402344 344.402344 C 372.09375 344.148438 371.785156 343.890625 371.476562 343.632812 C 371.117188 343.324219 370.707031 343.070312 370.296875 342.863281 C 369.9375 342.710938 369.578125 342.609375 369.21875 342.402344 C 368.960938 342.195312 368.757812 341.992188 368.5 341.835938 C 367.886719 341.375 367.679688 340.710938 367.21875 340.042969 C 366.652344 339.273438 365.882812 338.605469 365.0625 338.09375 C 364.34375 337.628906 363.882812 336.914062 363.113281 336.5 C 362.34375 336.089844 361.574219 335.730469 360.804688 335.320312 C 359.164062 334.347656 357.367188 333.527344 355.519531 332.910156 C 354.648438 332.652344 353.570312 333.371094 353.621094 334.347656 C 353.671875 334.859375 353.828125 335.320312 354.132812 335.730469 C 354.238281 335.9375 354.390625 336.089844 354.542969 336.296875 L 354.851562 336.707031 C 355.261719 337.269531 355.519531 337.835938 355.878906 338.398438 C 356.238281 338.964844 356.648438 339.476562 356.957031 340.09375 C 357.625 341.273438 357.828125 342.8125 358.136719 344.09375 C 358.394531 345.429688 359.007812 346.710938 359.882812 347.738281 C 360.753906 348.765625 361.832031 349.585938 362.753906 350.558594 C 363.679688 351.535156 364.652344 352.714844 365.578125 353.792969 C 365.988281 354.304688 366.449219 354.769531 366.910156 355.230469 C 367.476562 355.640625 367.988281 356.152344 368.449219 356.667969 C 368.859375 357.179688 369.21875 357.640625 369.628906 358.101562 C 370.039062 358.566406 369.9375 358.769531 369.886719 359.28125 C 369.835938 360.667969 369.375 361.898438 369.835938 363.285156 C 370.296875 364.671875 370.398438 366.160156 370.757812 367.59375 C 370.757812 367.699219 370.808594 367.800781 370.808594 367.902344 C 372.347656 367.800781 373.886719 367.75 375.425781 367.800781 C 379.429688 367.851562 383.378906 368.160156 387.382812 368.109375 C 389.589844 368.109375 391.898438 367.953125 394.054688 368.109375 C 394.71875 368.160156 395.4375 368.3125 396.105469 368.417969 C 396.15625 368.3125 395.953125 368.160156 395.746094 368.003906 Z M 395.746094 368.003906 " fill-opacity="1" fill-rule="nonzero"/></g><g clip-path="url(#9e02fecd59)"><path fill="#c36226" d="M 262.394531 289.503906 L 262.546875 289.347656 C 262.445312 289.914062 262.1875 290.476562 261.828125 290.9375 C 261.574219 291.296875 261.214844 291.554688 261.007812 291.914062 C 260.804688 292.273438 260.496094 292.785156 260.1875 293.195312 C 259.417969 294.070312 258.597656 294.890625 257.671875 295.609375 C 255.980469 297.148438 254.492188 298.839844 253.210938 300.6875 C 251.824219 302.6875 250.4375 304.84375 248.898438 306.691406 C 247.515625 308.382812 245.871094 309.921875 244.691406 311.820312 C 244.078125 312.746094 243.359375 313.617188 242.589844 314.4375 C 241.921875 315.257812 241.203125 316.082031 240.433594 316.800781 C 238.636719 318.390625 236.484375 319.570312 234.328125 320.648438 C 233.199219 321.210938 232.070312 321.777344 230.992188 322.339844 C 229.914062 322.851562 228.941406 323.417969 227.964844 324.085938 C 227.09375 324.699219 226.273438 325.367188 225.554688 326.136719 C 224.785156 326.957031 224.167969 327.882812 223.449219 328.753906 C 222.730469 329.574219 221.960938 330.34375 221.140625 331.0625 C 220.730469 331.472656 220.320312 331.882812 220.011719 332.398438 C 219.652344 332.808594 219.242188 333.21875 218.78125 333.578125 C 217.910156 334.347656 217.085938 335.21875 216.214844 335.988281 C 215.34375 336.757812 214.417969 337.527344 213.597656 338.347656 C 212.007812 339.992188 210.160156 341.480469 208.671875 343.222656 C 207.289062 344.96875 206.054688 346.867188 205.03125 348.867188 C 204.464844 349.738281 204.003906 350.714844 203.695312 351.6875 C 203.386719 352.765625 203.234375 353.894531 202.875 355.023438 C 202.667969 355.539062 202.566406 356.101562 202.515625 356.667969 C 202.464844 357.230469 202.414062 357.847656 202.308594 358.410156 C 202.054688 359.640625 201.953125 360.820312 201.953125 362.054688 C 201.953125 362.773438 201.953125 363.492188 201.953125 364.15625 C 198.511719 364.003906 195.074219 363.847656 191.691406 364.207031 C 189.585938 364.464844 187.535156 364.925781 185.378906 364.976562 C 183.222656 365.03125 181.222656 365.335938 179.117188 365.59375 C 175.476562 366.003906 172.039062 365.390625 168.394531 364.875 C 168.085938 364.824219 167.78125 364.773438 167.421875 364.722656 C 166.445312 364.566406 165.523438 364.3125 164.597656 363.953125 C 164.085938 363.746094 163.570312 363.386719 163.160156 362.976562 C 162.800781 362.617188 162.546875 362.15625 162.441406 361.644531 C 162.339844 361.59375 162.339844 361.4375 162.339844 361.285156 C 162.390625 360.769531 162.699219 360.308594 163.160156 360.105469 C 163.210938 359.949219 163.316406 359.796875 163.367188 359.695312 C 163.367188 359.695312 163.417969 359.640625 163.417969 359.640625 L 163.46875 359.589844 C 165.46875 357.589844 167.421875 355.484375 169.472656 353.484375 C 171.578125 351.433594 173.832031 349.535156 175.9375 347.480469 C 177.9375 345.582031 180.144531 343.789062 182.09375 341.835938 C 184.042969 339.886719 185.839844 337.886719 187.945312 336.140625 C 190.046875 334.398438 192.152344 332.808594 194.304688 331.21875 C 198.511719 328.085938 203.027344 325.316406 207.699219 323.007812 C 212.417969 320.851562 217.34375 319.210938 222.371094 318.132812 C 224.988281 317.570312 227.503906 316.851562 230.015625 315.976562 C 232.429688 315.003906 234.738281 313.71875 236.839844 312.179688 C 241.5625 308.949219 245.359375 304.792969 249.617188 300.996094 C 251.722656 299.097656 253.925781 297.300781 256.132812 295.503906 C 258.390625 293.605469 260.496094 291.605469 262.394531 289.503906 Z M 322.269531 347.277344 C 321.554688 345.839844 320.9375 344.453125 320.117188 343.070312 C 318.628906 340.554688 318.679688 337.375 320.320312 334.910156 C 320.730469 334.191406 320.476562 333.269531 319.757812 332.859375 C 319.550781 332.757812 319.296875 332.652344 319.039062 332.652344 C 318.0625 332.703125 317.703125 333.269531 317.191406 333.988281 C 316.679688 334.550781 316.164062 335.066406 315.601562 335.578125 C 314.320312 336.859375 313.191406 338.246094 312.164062 339.734375 C 311.1875 341.222656 310.367188 342.8125 309.75 344.507812 C 309.1875 346.046875 309.136719 347.6875 308.675781 349.277344 C 308.109375 350.867188 307.441406 352.40625 306.621094 353.894531 C 306.261719 354.664062 305.800781 355.382812 305.492188 356.203125 C 305.390625 356.511719 305.238281 356.820312 305.082031 357.128906 C 304.828125 357.539062 304.46875 357.847656 304.210938 358.257812 C 303.851562 358.871094 303.390625 359.4375 302.929688 359.949219 C 302.261719 360.667969 301.59375 361.4375 300.976562 362.15625 C 299.953125 363.492188 298.976562 364.976562 298.207031 366.464844 C 297.335938 367.902344 296.667969 369.492188 296.257812 371.136719 C 296.71875 371.085938 297.128906 371.085938 297.589844 371.085938 C 302.105469 371.03125 306.570312 371.1875 311.085938 370.878906 C 314.011719 370.671875 316.988281 370.570312 319.910156 370.46875 L 319.960938 370.417969 C 321.449219 367.644531 322.375 364.621094 323.144531 361.539062 C 324.015625 358.359375 324.273438 355.023438 323.863281 351.792969 C 323.503906 350.253906 322.988281 348.714844 322.269531 347.277344 Z M 382.558594 366.363281 C 382.046875 365.285156 381.480469 364.207031 381.019531 363.132812 C 380.558594 362.054688 380.25 360.875 379.789062 359.746094 C 379.328125 358.667969 378.710938 357.589844 377.992188 356.667969 C 377.632812 356.152344 377.222656 355.691406 376.8125 355.28125 C 376.609375 355.125 376.402344 354.972656 376.199219 354.820312 C 376.199219 354.820312 376.144531 354.769531 376.144531 354.769531 C 375.941406 354.355469 375.632812 354.050781 375.273438 353.84375 C 374.246094 353.332031 372.554688 354.253906 373.117188 355.539062 C 373.222656 355.742188 373.324219 355.949219 373.425781 356.101562 C 373.476562 356.101562 373.582031 356.152344 373.582031 356.253906 C 373.582031 356.203125 373.582031 356.253906 373.582031 356.308594 L 373.527344 356.253906 L 373.582031 356.359375 C 373.632812 356.5625 373.683594 356.71875 373.734375 356.921875 C 373.941406 357.691406 374.144531 358.410156 374.402344 359.128906 C 374.863281 360.515625 375.121094 361.898438 375.273438 363.335938 C 375.324219 363.847656 375.324219 364.363281 375.222656 364.875 C 375.171875 365.234375 375.171875 365.59375 375.070312 365.953125 C 374.964844 366.210938 374.863281 366.515625 374.710938 366.773438 C 374.554688 367.132812 374.503906 367.492188 374.503906 367.851562 L 375.683594 367.851562 C 378.300781 367.902344 380.867188 368.058594 383.484375 368.109375 C 383.074219 367.492188 382.816406 366.875 382.558594 366.363281 Z M 306.621094 302.585938 C 307.390625 302.792969 308.210938 302.328125 308.46875 301.558594 C 308.625 300.839844 308.675781 300.125 308.777344 299.40625 C 308.878906 298.6875 309.1875 297.917969 309.339844 297.148438 C 309.496094 296.378906 309.339844 295.609375 309.496094 294.789062 C 309.648438 293.964844 309.648438 293.144531 309.648438 292.273438 C 309.597656 292.015625 309.597656 291.707031 309.648438 291.453125 C 309.753906 291.144531 309.90625 290.886719 310.058594 290.632812 C 310.316406 289.964844 310.46875 289.296875 310.574219 288.578125 C 310.726562 287.859375 311.035156 287.246094 311.136719 286.527344 C 311.238281 285.808594 310.828125 285.089844 310.777344 284.320312 C 310.675781 282.421875 307.699219 282.421875 307.800781 284.320312 C 307.800781 284.730469 307.90625 285.089844 307.957031 285.5 C 308.007812 285.652344 308.007812 285.757812 308.058594 285.910156 C 308.058594 285.960938 308.160156 286.320312 308.160156 286.21875 C 308.160156 286.679688 307.699219 287.605469 307.597656 288.21875 C 307.496094 288.734375 307.390625 289.246094 307.136719 289.707031 C 306.726562 290.425781 306.570312 291.246094 306.570312 292.015625 C 306.621094 292.734375 306.621094 293.402344 306.519531 294.121094 C 306.417969 294.53125 306.367188 294.992188 306.367188 295.402344 C 306.417969 295.710938 306.417969 296.019531 306.417969 296.328125 C 306.367188 297.097656 306.007812 297.867188 305.851562 298.585938 C 305.699219 299.300781 305.648438 300.019531 305.542969 300.738281 C 305.390625 301.558594 305.851562 302.328125 306.621094 302.585938 Z M 306.621094 302.585938 " fill-opacity="1" fill-rule="nonzero"/></g><path fill="#e47837" d="M 418.527344 369.851562 C 418.269531 370.210938 417.808594 370.46875 417.398438 370.417969 C 415.601562 370.46875 413.859375 370.316406 412.113281 370.007812 C 410.113281 369.597656 408.367188 368.828125 406.265625 368.773438 L 405.855469 368.773438 C 405.546875 368.363281 405.1875 367.953125 404.828125 367.542969 C 403.851562 366.3125 402.980469 364.976562 402.160156 363.644531 C 401.339844 362.414062 400.414062 361.285156 399.335938 360.207031 C 397.183594 357.949219 395.128906 355.539062 393.285156 353.023438 C 392.308594 351.742188 391.230469 350.558594 390.203125 349.378906 C 389.640625 348.765625 389.128906 348.148438 388.71875 347.429688 C 388.359375 346.867188 388.101562 346.300781 387.792969 345.738281 C 387.023438 344.558594 386.046875 343.480469 384.972656 342.609375 C 384.355469 342.042969 383.792969 341.480469 383.175781 340.964844 C 382.609375 340.554688 382.097656 340.09375 381.585938 339.582031 C 380.609375 338.554688 379.839844 337.324219 378.8125 336.398438 C 377.789062 335.476562 376.554688 334.449219 375.480469 333.421875 C 374.402344 332.398438 373.117188 331.472656 371.988281 330.445312 C 370.859375 329.421875 369.785156 328.394531 368.605469 327.472656 C 367.421875 326.546875 366.140625 325.777344 364.808594 325.109375 C 363.472656 324.445312 362.242188 323.675781 361.011719 322.800781 C 360.496094 322.339844 359.933594 321.929688 359.316406 321.570312 C 358.699219 321.261719 358.136719 321.007812 357.570312 320.648438 C 356.238281 319.828125 354.902344 319.109375 353.671875 318.183594 C 352.441406 317.363281 351.3125 316.386719 350.285156 315.3125 C 349.261719 314.183594 348.386719 312.898438 347.414062 311.71875 C 345.515625 309.410156 343.820312 306.894531 341.613281 304.894531 C 339.253906 302.738281 336.484375 301.046875 333.867188 299.25 C 332.585938 298.378906 331.40625 297.402344 330.222656 296.480469 C 328.992188 295.609375 327.8125 294.683594 326.683594 293.660156 C 325.605469 292.632812 324.632812 291.503906 323.605469 290.375 C 322.578125 289.246094 321.398438 288.21875 320.425781 287.089844 C 318.421875 284.832031 316.523438 282.523438 315.242188 279.804688 C 314.882812 279.085938 314.675781 278.367188 314.421875 277.648438 C 314.164062 276.933594 313.804688 276.316406 313.496094 275.699219 C 312.933594 274.570312 312.523438 273.390625 311.652344 272.417969 C 309.699219 270.3125 307.289062 268.824219 305.441406 266.617188 C 305.238281 266.363281 305.03125 266.105469 304.828125 265.898438 C 305.492188 266.257812 306.109375 266.667969 306.828125 266.976562 C 309.394531 268.210938 311.90625 269.082031 314.164062 270.824219 C 315.242188 271.542969 316.21875 272.46875 317.089844 273.441406 C 317.703125 274.367188 318.269531 275.339844 318.679688 276.367188 C 319.757812 278.625 321.554688 280.675781 323.195312 282.574219 C 324.886719 284.578125 326.839844 286.320312 328.941406 287.808594 C 331.199219 289.347656 333.199219 291.296875 335.765625 292.425781 C 338.074219 293.503906 340.332031 294.375 342.382812 295.96875 C 344.230469 297.558594 345.976562 299.355469 347.566406 301.199219 C 349.207031 303.152344 350.953125 304.894531 352.953125 306.484375 C 355.210938 308.230469 357.46875 309.820312 359.625 311.667969 C 363.933594 315.363281 368.550781 318.59375 372.757812 322.390625 C 376.96875 326.1875 381.328125 329.832031 385.125 334.089844 C 387.023438 336.246094 389.023438 338.246094 391.230469 340.09375 C 393.335938 341.785156 395.285156 343.582031 397.132812 345.53125 C 400.824219 349.636719 403.851562 354.203125 408.058594 357.796875 C 411.910156 361.078125 416.066406 363.902344 418.9375 368.109375 C 419.039062 368.671875 418.988281 369.390625 418.527344 369.851562 Z M 418.527344 369.851562 " fill-opacity="1" fill-rule="nonzero"/></svg>